<svg width="9" height="9" viewBox="0 0 9 9" fill="none" xmlns="http://www.w3.org/2000/svg">
<path d="M4.60254 8.26318L0.837402 4.49805L4.60254 0.73291L5.40283 1.52783L4.18896 2.7417C3.99919 2.9279 3.77897 3.12484 3.52832 3.33252C3.27767 3.5402 3.0306 3.73714 2.78711 3.92334C2.54362 4.10954 2.33594 4.2653 2.16406 4.39062L2.26074 4.14355C2.40397 4.11133 2.56689 4.0791 2.74951 4.04688C2.93571 4.01107 3.1237 3.98242 3.31348 3.96094C3.50684 3.93587 3.68766 3.92334 3.85596 3.92334H8.87256V5.07812H3.85596C3.68766 5.07812 3.50684 5.06738 3.31348 5.0459C3.1237 5.02083 2.93571 4.9904 2.74951 4.95459C2.56689 4.91878 2.40397 4.88656 2.26074 4.85791L2.16406 4.61084C2.29297 4.70394 2.44336 4.81673 2.61523 4.94922C2.79069 5.08171 2.97331 5.22314 3.16309 5.37354C3.35645 5.52393 3.54085 5.67611 3.71631 5.83008C3.89535 5.98047 4.0529 6.1237 4.18896 6.25977L5.39746 7.46826L4.60254 8.26318Z" fill="#2E2F38" style="fill:#2E2F38;fill:color(display-p3 0.1804 0.1843 0.2196);fill-opacity:1;"/>
</svg>
