<svg width="12" height="12" viewBox="0 0 12 12" fill="none" xmlns="http://www.w3.org/2000/svg">
<path d="M7.23967 6.55372L8.42975 7.7438C8.53995 7.85399 8.67218 7.90909 8.82645 7.90909C8.98072 7.90909 9.11295 7.85399 9.22314 7.7438C9.33333 7.63361 9.38843 7.50138 9.38843 7.34711C9.38843 7.19284 9.33333 7.06061 9.22314 6.95041L8.03306 5.76033L9.22314 4.57025C9.33333 4.46005 9.38843 4.32782 9.38843 4.17355C9.38843 4.01928 9.33333 3.88705 9.22314 3.77686C9.11295 3.66667 8.98072 3.61157 8.82645 3.61157C8.67218 3.61157 8.53995 3.66667 8.42975 3.77686L7.23967 4.96694L6.04959 3.77686C5.93939 3.66667 5.80716 3.61157 5.65289 3.61157C5.49862 3.61157 5.36639 3.66667 5.2562 3.77686C5.14601 3.88705 5.09091 4.01928 5.09091 4.17355C5.09091 4.32782 5.14601 4.46005 5.2562 4.57025L6.44628 5.76033L5.2562 6.95041C5.14601 7.06061 5.09091 7.19284 5.09091 7.34711C5.09091 7.50138 5.14601 7.63361 5.2562 7.7438C5.36639 7.85399 5.49862 7.90909 5.65289 7.90909C5.80716 7.90909 5.93939 7.85399 6.04959 7.7438L7.23967 6.55372ZM3.86777 10.5207C3.68209 10.5207 3.50623 10.4793 3.34017 10.3967C3.17399 10.314 3.0303 10.1956 2.90909 10.0413L0.231405 6.47107C0.077135 6.25069 0 6.01377 0 5.76033C0 5.50689 0.077135 5.26997 0.231405 5.04959L2.90909 1.47934C3.0303 1.32507 3.17399 1.20661 3.34017 1.12397C3.50623 1.04132 3.68209 1 3.86777 1H10.8099C11.1372 1 11.4174 1.11658 11.6504 1.34975C11.8835 1.58292 12 1.86325 12 2.19074V9.33521C12 9.6627 11.8835 9.94215 11.6504 10.1736C11.4174 10.405 11.1372 10.5207 10.8099 10.5207H3.86777ZM3.86777 9.33058H10.8099V2.19008H3.86777L1.19008 5.76033L3.86777 9.33058Z" fill="#2E2F38" style="fill:#2E2F38;fill:color(display-p3 0.1804 0.1843 0.2196);fill-opacity:1;"/>
</svg>
