<svg width="12" height="12" viewBox="0 0 12 12" fill="none" xmlns="http://www.w3.org/2000/svg">
<g clip-path="url(#clip0_1838_43)">
<path d="M6.64286 12C6.46071 12 6.30804 11.9388 6.18482 11.8163C6.06161 11.6938 6 11.542 6 11.3609C6 11.1798 6.06161 11.0268 6.18482 10.9018C6.30804 10.7768 6.46071 10.7143 6.64286 10.7143H10.7143V1.28571H6.64286C6.46071 1.28571 6.30804 1.22446 6.18482 1.10196C6.06161 0.979465 6 0.827679 6 0.646608C6 0.465536 6.06161 0.3125 6.18482 0.1875C6.30804 0.0625 6.46071 0 6.64286 0H10.7143C11.0679 0 11.3705 0.125893 11.6223 0.377679C11.8741 0.629465 12 0.932143 12 1.28571V10.7143C12 11.0679 11.8741 11.3705 11.6223 11.6223C11.3705 11.8741 11.0679 12 10.7143 12H6.64286ZM5.25 6.64286H0.642143C0.460238 6.64286 0.307738 6.58161 0.184643 6.45911C0.0615476 6.33661 0 6.18482 0 6.00375C0 5.82268 0.0615476 5.66964 0.184643 5.54464C0.307738 5.41964 0.460238 5.35714 0.642143 5.35714H5.25L4.25 4.35714C4.11905 4.22619 4.05357 4.07399 4.05357 3.90054C4.05357 3.72708 4.11905 3.5753 4.25 3.44518C4.38095 3.31506 4.53274 3.25 4.70536 3.25C4.87798 3.25 5.02976 3.31548 5.16071 3.44643L7.26786 5.55357C7.39881 5.68024 7.46429 5.82798 7.46429 5.99679C7.46429 6.1656 7.39881 6.31548 7.26786 6.44643L5.16071 8.55357C5.02976 8.68452 4.88095 8.74702 4.71429 8.74107C4.54762 8.73512 4.39595 8.66667 4.25929 8.53571C4.13405 8.40476 4.07143 8.25298 4.07143 8.08036C4.07143 7.90774 4.1369 7.75595 4.26786 7.625L5.25 6.64286Z" fill="#2E2F38" style="fill:#2E2F38;fill:color(display-p3 0.1804 0.1843 0.2196);fill-opacity:1;"/>
</g>
<defs>
<clipPath id="clip0_1838_43">
<rect width="12" height="12" fill="white" style="fill:white;fill-opacity:1;"/>
</clipPath>
</defs>
</svg>
