<svg width="164" height="52" viewBox="0 0 164 52" fill="none" xmlns="http://www.w3.org/2000/svg">
<rect x="0.5" y="0.5" width="23" height="23" rx="5.5" fill="white" style="fill:white;fill-opacity:1;"/>
<rect x="0.5" y="0.5" width="23" height="23" rx="5.5" stroke="url(#paint0_linear_1565_1049)" style=""/>
<path d="M8.8418 16V7.99707H12.3115C12.9202 7.99707 13.4323 8.07943 13.8477 8.24414C14.263 8.40885 14.5763 8.6416 14.7876 8.94238C14.9989 9.23958 15.1045 9.59049 15.1045 9.99512C15.1045 10.2887 15.04 10.5573 14.9111 10.8008C14.7822 11.0443 14.6014 11.2484 14.3687 11.4131C14.1395 11.5742 13.8691 11.6852 13.5576 11.7461V11.832C13.9014 11.8428 14.2129 11.9287 14.4922 12.0898C14.7751 12.2474 14.9989 12.4676 15.1636 12.7505C15.3319 13.0298 15.416 13.3574 15.416 13.7334C15.416 14.1702 15.3032 14.5605 15.0776 14.9043C14.8521 15.2445 14.5298 15.513 14.1108 15.71C13.6919 15.9033 13.1924 16 12.6123 16H8.8418ZM11.0117 14.2705H12.0322C12.3939 14.2705 12.666 14.2007 12.8486 14.061C13.0348 13.9214 13.1279 13.7191 13.1279 13.4541C13.1279 13.2643 13.085 13.105 12.999 12.9761C12.9131 12.8436 12.7896 12.7433 12.6284 12.6753C12.4709 12.6073 12.2829 12.5732 12.0645 12.5732H11.0117V14.2705ZM11.0117 11.2305H11.9033C12.0931 11.2305 12.2596 11.2018 12.4028 11.1445C12.5496 11.0837 12.6642 10.9977 12.7466 10.8867C12.8289 10.7721 12.8701 10.6325 12.8701 10.4678C12.8701 10.2243 12.7806 10.0363 12.6016 9.90381C12.4261 9.77132 12.2041 9.70508 11.9355 9.70508H11.0117V11.2305Z" fill="#2E2F38" style="fill:#2E2F38;fill:color(display-p3 0.1804 0.1843 0.2196);fill-opacity:1;"/>
<rect x="28.5" y="0.5" width="23" height="23" rx="5.5" fill="white" style="fill:white;fill-opacity:1;"/>
<rect x="28.5" y="0.5" width="23" height="23" rx="5.5" stroke="url(#paint1_linear_1565_1049)" style=""/>
<path d="M39.9946 16.0967C39.3071 16.0967 38.7038 15.9767 38.1846 15.7368C37.6689 15.4933 37.2661 15.1496 36.9761 14.7056C36.6896 14.258 36.5464 13.7298 36.5464 13.1211V7.99707H38.7163V12.9385C38.7163 13.1891 38.7718 13.4111 38.8828 13.6045C38.9938 13.7943 39.1442 13.9447 39.334 14.0557C39.5273 14.1631 39.7476 14.2168 39.9946 14.2168C40.2453 14.2168 40.4673 14.1631 40.6606 14.0557C40.854 13.9447 41.0062 13.7943 41.1172 13.6045C41.2282 13.4111 41.2837 13.1891 41.2837 12.9385V7.99707H43.4536V13.1211C43.4536 13.7298 43.3086 14.258 43.0186 14.7056C42.7285 15.1496 42.3239 15.4933 41.8047 15.7368C41.2855 15.9767 40.6821 16.0967 39.9946 16.0967Z" fill="#2E2F38" style="fill:#2E2F38;fill:color(display-p3 0.1804 0.1843 0.2196);fill-opacity:1;"/>
<rect x="56.5" y="0.5" width="23" height="23" rx="5.5" fill="white" style="fill:white;fill-opacity:1;"/>
<rect x="56.5" y="0.5" width="23" height="23" rx="5.5" stroke="url(#paint2_linear_1565_1049)" style=""/>
<path d="M64.729 16V14.7969L67.6938 10.8384C67.9266 10.5269 68.1862 10.2153 68.4727 9.90381C68.7627 9.5887 69.0563 9.27539 69.3535 8.96387L69.4878 9.66211C69.1047 9.70508 68.7215 9.73014 68.3384 9.7373C67.9552 9.74447 67.5721 9.74805 67.189 9.74805H64.7397V7.99707H71.271V9.2002L68.3706 13.0781C68.1271 13.404 67.855 13.7298 67.5542 14.0557C67.257 14.3815 66.9544 14.7074 66.6465 15.0332L66.5122 14.335C66.9276 14.292 67.3411 14.2669 67.7529 14.2598C68.1683 14.2526 68.5819 14.249 68.9937 14.249H71.2603V16H64.729Z" fill="#2E2F38" style="fill:#2E2F38;fill:color(display-p3 0.1804 0.1843 0.2196);fill-opacity:1;"/>
<rect x="84.5" y="0.5" width="23" height="23" rx="5.5" fill="white" style="fill:white;fill-opacity:1;"/>
<rect x="84.5" y="0.5" width="23" height="23" rx="5.5" stroke="url(#paint3_linear_1565_1049)" style=""/>
<path d="M92.729 16V14.7969L95.6938 10.8384C95.9266 10.5269 96.1862 10.2153 96.4727 9.90381C96.7627 9.5887 97.0563 9.27539 97.3535 8.96387L97.4878 9.66211C97.1047 9.70508 96.7215 9.73014 96.3384 9.7373C95.9552 9.74447 95.5721 9.74805 95.189 9.74805H92.7397V7.99707H99.271V9.2002L96.3706 13.0781C96.1271 13.404 95.855 13.7298 95.5542 14.0557C95.257 14.3815 94.9544 14.7074 94.6465 15.0332L94.5122 14.335C94.9276 14.292 95.3411 14.2669 95.7529 14.2598C96.1683 14.2526 96.5819 14.249 96.9937 14.249H99.2603V16H92.729Z" fill="#2E2F38" style="fill:#2E2F38;fill:color(display-p3 0.1804 0.1843 0.2196);fill-opacity:1;"/>
<rect x="0.5" y="28.5" width="23" height="23" rx="5.5" fill="white" style="fill:white;fill-opacity:1;"/>
<rect x="0.5" y="28.5" width="23" height="23" rx="5.5" stroke="url(#paint4_linear_1565_1049)" style=""/>
<path d="M8.41748 44L6.2959 35.9971H8.72363L9.36279 39.1016C9.44515 39.4919 9.51855 39.9198 9.58301 40.3853C9.64746 40.8472 9.71012 41.3091 9.771 41.771C9.83545 42.2329 9.8999 42.6608 9.96436 43.0547H9.53467C9.60986 42.6608 9.68148 42.2329 9.74951 41.771C9.81755 41.3091 9.88737 40.8472 9.95898 40.3853C10.0342 39.9198 10.1165 39.4919 10.2061 39.1016L10.915 35.9971H13.085L13.7939 39.1016C13.8835 39.4919 13.964 39.9198 14.0356 40.3853C14.1108 40.8472 14.1825 41.3091 14.2505 41.771C14.3185 42.2329 14.3901 42.6608 14.4653 43.0547H14.0303C14.0983 42.6608 14.1628 42.2329 14.2236 41.771C14.2845 41.3091 14.3472 40.8472 14.4116 40.3853C14.4797 39.9198 14.5531 39.4919 14.6318 39.1016L15.2764 35.9971H17.7041L15.5825 44H13.1279L12.333 40.7397C12.1969 40.1776 12.0877 39.5706 12.0054 38.9189C11.9266 38.2673 11.8299 37.6406 11.7153 37.0391H12.2847C12.1486 37.6406 12.0465 38.2655 11.9785 38.9136C11.9141 39.5617 11.812 40.1704 11.6724 40.7397L10.8721 44H8.41748Z" fill="#2E2F38" style="fill:#2E2F38;fill:color(display-p3 0.1804 0.1843 0.2196);fill-opacity:1;"/>
<rect x="28.5" y="28.5" width="23" height="23" rx="5.5" fill="white" style="fill:white;fill-opacity:1;"/>
<rect x="28.5" y="28.5" width="23" height="23" rx="5.5" stroke="url(#paint5_linear_1565_1049)" style=""/>
<path d="M40 44.1074C39.2731 44.1074 38.6143 43.9499 38.0234 43.6348C37.4362 43.3197 36.9707 42.8577 36.627 42.249C36.2832 41.6367 36.1113 40.8883 36.1113 40.0039C36.1113 39.1123 36.2832 38.3604 36.627 37.748C36.9707 37.1357 37.4362 36.6738 38.0234 36.3623C38.6143 36.0472 39.2731 35.8896 40 35.8896C40.7269 35.8896 41.384 36.0472 41.9712 36.3623C42.5584 36.6738 43.0239 37.1357 43.3677 37.748C43.715 38.3604 43.8887 39.1123 43.8887 40.0039C43.8887 40.8919 43.715 41.6421 43.3677 42.2544C43.0239 42.8631 42.5584 43.325 41.9712 43.6401C41.384 43.9517 40.7269 44.1074 40 44.1074ZM40 42.2168C40.3617 42.2168 40.6642 42.1326 40.9077 41.9644C41.1548 41.7925 41.341 41.5418 41.4663 41.2124C41.5916 40.883 41.6543 40.4801 41.6543 40.0039C41.6543 39.5241 41.5916 39.1195 41.4663 38.79C41.341 38.457 41.1548 38.2064 40.9077 38.0381C40.6642 37.8662 40.3617 37.7803 40 37.7803C39.6419 37.7803 39.3394 37.8662 39.0923 38.0381C38.8488 38.2064 38.6626 38.457 38.5337 38.79C38.4084 39.1195 38.3457 39.5241 38.3457 40.0039C38.3457 40.4801 38.4084 40.883 38.5337 41.2124C38.6626 41.5418 38.8488 41.7925 39.0923 41.9644C39.3394 42.1326 39.6419 42.2168 40 42.2168Z" fill="#2E2F38" style="fill:#2E2F38;fill:color(display-p3 0.1804 0.1843 0.2196);fill-opacity:1;"/>
<rect x="56.5" y="28.5" width="23" height="23" rx="5.5" fill="white" style="fill:white;fill-opacity:1;"/>
<rect x="56.5" y="28.5" width="23" height="23" rx="5.5" stroke="url(#paint6_linear_1565_1049)" style=""/>
<path d="M64.8418 44V35.9971H68.29C68.8844 35.9971 69.4036 36.1063 69.8477 36.3247C70.2952 36.5396 70.6426 36.8511 70.8896 37.2593C71.1403 37.6639 71.2656 38.1491 71.2656 38.7148C71.2656 39.2878 71.1385 39.7712 70.8843 40.165C70.63 40.5589 70.2738 40.8561 69.8154 41.0566C69.3571 41.2572 68.8236 41.3574 68.2148 41.3574H66.1523V39.6709H67.7744C68.0322 39.6709 68.2524 39.6387 68.4351 39.5742C68.6177 39.5098 68.7573 39.4077 68.854 39.2681C68.9507 39.1284 68.999 38.944 68.999 38.7148C68.999 38.4857 68.9507 38.2995 68.854 38.1562C68.7573 38.013 68.6177 37.9074 68.4351 37.8394C68.2524 37.7713 68.0322 37.7373 67.7744 37.7373H67.0117V44H64.8418ZM69.1709 44L67.2158 40.3262H69.5254L71.5342 44H69.1709Z" fill="#2E2F38" style="fill:#2E2F38;fill:color(display-p3 0.1804 0.1843 0.2196);fill-opacity:1;"/>
<rect x="84.5" y="28.5" width="23" height="23" rx="5.5" fill="white" style="fill:white;fill-opacity:1;"/>
<rect x="84.5" y="28.5" width="23" height="23" rx="5.5" stroke="url(#paint7_linear_1565_1049)" style=""/>
<path d="M95.624 44H93.4326V42.1523H95.5381C95.9355 42.1523 96.2739 42.0897 96.5532 41.9644C96.8361 41.839 97.0509 41.6206 97.1978 41.3091C97.3446 40.994 97.418 40.5589 97.418 40.0039C97.418 39.4453 97.3428 39.0103 97.1924 38.6987C97.042 38.3836 96.8218 38.1634 96.5317 38.0381C96.2453 37.9092 95.8926 37.8447 95.4736 37.8447H93.4004V35.9971H95.5918C96.4154 35.9971 97.1261 36.1582 97.7241 36.4805C98.3221 36.7992 98.784 37.2575 99.1099 37.8555C99.4357 38.4535 99.5986 39.1696 99.5986 40.0039C99.5986 40.8346 99.4357 41.549 99.1099 42.147C98.7876 42.745 98.3293 43.2033 97.7349 43.522C97.1405 43.8407 96.4368 44 95.624 44ZM94.7109 35.9971V44H92.541V35.9971H94.7109Z" fill="#2E2F38" style="fill:#2E2F38;fill:color(display-p3 0.1804 0.1843 0.2196);fill-opacity:1;"/>
<rect x="112.5" y="28.5" width="23" height="23" rx="5.5" fill="white" style="fill:white;fill-opacity:1;"/>
<rect x="112.5" y="28.5" width="23" height="23" rx="5.5" stroke="url(#paint8_linear_1565_1049)" style=""/>
<path d="M124.107 44.0967C123.413 44.0967 122.806 43.9946 122.287 43.7905C121.771 43.5828 121.37 43.2642 121.083 42.8345C120.797 42.4048 120.652 41.8551 120.648 41.1855H122.711C122.725 41.429 122.786 41.6349 122.894 41.8032C123.005 41.9715 123.159 42.0986 123.355 42.1846C123.556 42.2705 123.796 42.3135 124.075 42.3135C124.308 42.3135 124.503 42.2848 124.661 42.2275C124.818 42.1702 124.936 42.0915 125.015 41.9912C125.097 41.8874 125.139 41.7692 125.139 41.6367C125.139 41.515 125.099 41.4093 125.021 41.3198C124.945 41.2267 124.82 41.1426 124.645 41.0674C124.469 40.9922 124.233 40.9242 123.936 40.8633L123.13 40.6914C122.424 40.541 121.868 40.285 121.459 39.9233C121.055 39.5581 120.853 39.0622 120.853 38.4355C120.853 37.9271 120.99 37.4831 121.266 37.1035C121.542 36.7204 121.921 36.4232 122.405 36.2119C122.892 35.9971 123.452 35.8896 124.086 35.8896C124.734 35.8896 125.293 35.9989 125.762 36.2173C126.234 36.4321 126.598 36.7365 126.852 37.1304C127.11 37.5207 127.241 37.9772 127.244 38.5H125.16C125.142 38.2386 125.046 38.0363 124.87 37.8931C124.698 37.7463 124.437 37.6729 124.086 37.6729C123.864 37.6729 123.681 37.6997 123.538 37.7534C123.395 37.8035 123.289 37.8752 123.221 37.9683C123.153 38.0614 123.119 38.167 123.119 38.2852C123.119 38.4105 123.155 38.5215 123.227 38.6182C123.302 38.7113 123.418 38.7936 123.576 38.8652C123.737 38.9333 123.943 38.9941 124.193 39.0479L124.849 39.1875C125.289 39.2806 125.667 39.4041 125.982 39.5581C126.301 39.7121 126.56 39.8929 126.761 40.1006C126.965 40.3047 127.113 40.5356 127.207 40.7935C127.303 41.0513 127.352 41.3324 127.352 41.6367C127.352 42.1631 127.221 42.6107 126.959 42.9795C126.702 43.3447 126.331 43.6222 125.848 43.812C125.364 44.0018 124.784 44.0967 124.107 44.0967Z" fill="#2E2F38" style="fill:#2E2F38;fill:color(display-p3 0.1804 0.1843 0.2196);fill-opacity:1;"/>
<rect x="140.5" y="28.5" width="23" height="23" rx="5.5" fill="white" style="fill:white;fill-opacity:1;"/>
<rect x="140.5" y="28.5" width="23" height="23" rx="5.5" stroke="url(#paint9_linear_1565_1049)" style=""/>
<path d="M151.022 41.4971L150.861 35.9971H153.139L152.978 41.4971H151.022ZM152 44.1289C151.653 44.1289 151.373 44.034 151.162 43.8442C150.954 43.6509 150.851 43.3895 150.851 43.0601C150.851 42.7306 150.954 42.471 151.162 42.2812C151.373 42.0879 151.653 41.9912 152 41.9912C152.351 41.9912 152.63 42.0879 152.838 42.2812C153.046 42.471 153.149 42.7306 153.149 43.0601C153.149 43.3895 153.046 43.6509 152.838 43.8442C152.63 44.034 152.351 44.1289 152 44.1289Z" fill="#2E2F38" style="fill:#2E2F38;fill:color(display-p3 0.1804 0.1843 0.2196);fill-opacity:1;"/>
<defs>
<linearGradient id="paint0_linear_1565_1049" x1="12" y1="0" x2="12" y2="24" gradientUnits="userSpaceOnUse">
<stop stop-color="#F2F3FB" style="stop-color:#F2F3FB;stop-color:color(display-p3 0.9490 0.9529 0.9843);stop-opacity:1;"/>
<stop offset="1" stop-color="#C9CAD6" style="stop-color:#C9CAD6;stop-color:color(display-p3 0.7882 0.7922 0.8392);stop-opacity:1;"/>
</linearGradient>
<linearGradient id="paint1_linear_1565_1049" x1="40" y1="0" x2="40" y2="24" gradientUnits="userSpaceOnUse">
<stop stop-color="#F2F3FB" style="stop-color:#F2F3FB;stop-color:color(display-p3 0.9490 0.9529 0.9843);stop-opacity:1;"/>
<stop offset="1" stop-color="#C9CAD6" style="stop-color:#C9CAD6;stop-color:color(display-p3 0.7882 0.7922 0.8392);stop-opacity:1;"/>
</linearGradient>
<linearGradient id="paint2_linear_1565_1049" x1="68" y1="0" x2="68" y2="24" gradientUnits="userSpaceOnUse">
<stop stop-color="#F2F3FB" style="stop-color:#F2F3FB;stop-color:color(display-p3 0.9490 0.9529 0.9843);stop-opacity:1;"/>
<stop offset="1" stop-color="#C9CAD6" style="stop-color:#C9CAD6;stop-color:color(display-p3 0.7882 0.7922 0.8392);stop-opacity:1;"/>
</linearGradient>
<linearGradient id="paint3_linear_1565_1049" x1="96" y1="0" x2="96" y2="24" gradientUnits="userSpaceOnUse">
<stop stop-color="#F2F3FB" style="stop-color:#F2F3FB;stop-color:color(display-p3 0.9490 0.9529 0.9843);stop-opacity:1;"/>
<stop offset="1" stop-color="#C9CAD6" style="stop-color:#C9CAD6;stop-color:color(display-p3 0.7882 0.7922 0.8392);stop-opacity:1;"/>
</linearGradient>
<linearGradient id="paint4_linear_1565_1049" x1="12" y1="28" x2="12" y2="52" gradientUnits="userSpaceOnUse">
<stop stop-color="#F2F3FB" style="stop-color:#F2F3FB;stop-color:color(display-p3 0.9490 0.9529 0.9843);stop-opacity:1;"/>
<stop offset="1" stop-color="#C9CAD6" style="stop-color:#C9CAD6;stop-color:color(display-p3 0.7882 0.7922 0.8392);stop-opacity:1;"/>
</linearGradient>
<linearGradient id="paint5_linear_1565_1049" x1="40" y1="28" x2="40" y2="52" gradientUnits="userSpaceOnUse">
<stop stop-color="#F2F3FB" style="stop-color:#F2F3FB;stop-color:color(display-p3 0.9490 0.9529 0.9843);stop-opacity:1;"/>
<stop offset="1" stop-color="#C9CAD6" style="stop-color:#C9CAD6;stop-color:color(display-p3 0.7882 0.7922 0.8392);stop-opacity:1;"/>
</linearGradient>
<linearGradient id="paint6_linear_1565_1049" x1="68" y1="28" x2="68" y2="52" gradientUnits="userSpaceOnUse">
<stop stop-color="#F2F3FB" style="stop-color:#F2F3FB;stop-color:color(display-p3 0.9490 0.9529 0.9843);stop-opacity:1;"/>
<stop offset="1" stop-color="#C9CAD6" style="stop-color:#C9CAD6;stop-color:color(display-p3 0.7882 0.7922 0.8392);stop-opacity:1;"/>
</linearGradient>
<linearGradient id="paint7_linear_1565_1049" x1="96" y1="28" x2="96" y2="52" gradientUnits="userSpaceOnUse">
<stop stop-color="#F2F3FB" style="stop-color:#F2F3FB;stop-color:color(display-p3 0.9490 0.9529 0.9843);stop-opacity:1;"/>
<stop offset="1" stop-color="#C9CAD6" style="stop-color:#C9CAD6;stop-color:color(display-p3 0.7882 0.7922 0.8392);stop-opacity:1;"/>
</linearGradient>
<linearGradient id="paint8_linear_1565_1049" x1="124" y1="28" x2="124" y2="52" gradientUnits="userSpaceOnUse">
<stop stop-color="#F2F3FB" style="stop-color:#F2F3FB;stop-color:color(display-p3 0.9490 0.9529 0.9843);stop-opacity:1;"/>
<stop offset="1" stop-color="#C9CAD6" style="stop-color:#C9CAD6;stop-color:color(display-p3 0.7882 0.7922 0.8392);stop-opacity:1;"/>
</linearGradient>
<linearGradient id="paint9_linear_1565_1049" x1="152" y1="28" x2="152" y2="52" gradientUnits="userSpaceOnUse">
<stop stop-color="#F2F3FB" style="stop-color:#F2F3FB;stop-color:color(display-p3 0.9490 0.9529 0.9843);stop-opacity:1;"/>
<stop offset="1" stop-color="#C9CAD6" style="stop-color:#C9CAD6;stop-color:color(display-p3 0.7882 0.7922 0.8392);stop-opacity:1;"/>
</linearGradient>
</defs>
</svg>
