<svg width="12" height="12" viewBox="0 0 12 12" fill="none" xmlns="http://www.w3.org/2000/svg">
<path d="M6 10.0471C4.74346 10.0471 3.66754 9.60209 2.77225 8.71204C1.87696 7.82199 1.44503 6.72775 1.47644 5.42932L0.973822 5.93194C0.858639 6.04712 0.725131 6.10471 0.573298 6.10471C0.421466 6.10471 0.287958 6.04712 0.172775 5.93194C0.0575916 5.81675 0 5.68325 0 5.53141C0 5.37958 0.0575916 5.24607 0.172775 5.13089L1.64921 3.65445C1.7644 3.53927 1.89529 3.48168 2.04188 3.48168C2.18848 3.48168 2.31937 3.53927 2.43455 3.65445L3.91099 5.13089C4.02618 5.24607 4.08377 5.37696 4.08377 5.52356C4.08377 5.67016 4.02618 5.80105 3.91099 5.91623C3.79581 6.03141 3.6623 6.089 3.51047 6.089C3.35864 6.089 3.22513 6.03141 3.10995 5.91623L2.60733 5.42932C2.58639 6.41361 2.91099 7.24084 3.58115 7.91099C4.25131 8.58115 5.05759 8.91623 6 8.91623C6.12565 8.91623 6.25131 8.90838 6.37696 8.89267C6.50262 8.87696 6.62304 8.85864 6.73822 8.8377C6.89529 8.80628 7.0445 8.81937 7.18586 8.87696C7.32722 8.93455 7.42932 9.03665 7.49215 9.18325C7.55497 9.32984 7.55236 9.4712 7.48429 9.60733C7.41623 9.74346 7.3089 9.83246 7.1623 9.87435C6.97382 9.9267 6.78534 9.96859 6.59686 10C6.40838 10.0314 6.20942 10.0471 6 10.0471ZM6 2.13089C5.87435 2.13089 5.74869 2.13874 5.62304 2.15445C5.49738 2.17016 5.37696 2.18848 5.26178 2.20942C5.10471 2.24084 4.9555 2.22775 4.81414 2.17016C4.67277 2.11257 4.57592 2.01047 4.52356 1.86387C4.4712 1.71728 4.47382 1.57592 4.53141 1.43979C4.58901 1.30366 4.6911 1.21466 4.8377 1.17277C5.02618 1.12042 5.21728 1.07853 5.41099 1.04712C5.60471 1.01571 5.80105 1 6 1C7.26702 1 8.34555 1.44503 9.2356 2.33508C10.1257 3.22513 10.555 4.31937 10.5236 5.6178L11.0262 5.11518C11.1414 5 11.2749 4.94241 11.4267 4.94241C11.5785 4.94241 11.712 5 11.8272 5.11518C11.9424 5.23037 12 5.36387 12 5.51571C12 5.66754 11.9424 5.80105 11.8272 5.91623L10.3508 7.39267C10.2356 7.50785 10.1047 7.56544 9.95811 7.56544C9.81152 7.56544 9.68063 7.50785 9.56544 7.39267L8.089 5.91623C7.97382 5.80105 7.91885 5.66754 7.92408 5.51571C7.92932 5.36387 7.98953 5.23037 8.10471 5.11518C8.21989 5 8.3534 4.94241 8.50524 4.94241C8.65707 4.94241 8.79058 5 8.90576 5.11518L9.39267 5.6178C9.41361 4.63351 9.089 3.80628 8.41885 3.13613C7.74869 2.46597 6.94241 2.13089 6 2.13089Z" fill="#DDA846" style="fill:#DDA846;fill:color(display-p3 0.8667 0.6588 0.2745);fill-opacity:1;"/>
</svg>
