<svg width="12" height="12" viewBox="0 0 12 12" fill="none" xmlns="http://www.w3.org/2000/svg">
<path d="M8.29412 10.991C8.11719 10.991 7.96889 10.9315 7.84921 10.8125C7.72952 10.6935 7.66968 10.546 7.66968 10.3702C7.66968 10.1943 7.72952 10.0456 7.84921 9.92421C7.96889 9.80279 8.11719 9.74208 8.29412 9.74208H8.86652L7.31948 8.19504C7.19448 8.07004 7.13464 7.92272 7.13995 7.75308C7.14527 7.58356 7.212 7.43711 7.34012 7.31373C7.4635 7.18653 7.60996 7.12293 7.77948 7.12293C7.94912 7.12293 8.09696 7.18601 8.223 7.31216L9.75113 8.85747V8.28507C9.75113 8.10814 9.81063 7.95984 9.92961 7.84016C10.0486 7.72047 10.196 7.66063 10.3719 7.66063C10.5478 7.66063 10.6965 7.72047 10.8179 7.84016C10.9393 7.95984 11 8.10814 11 8.28507V10.3665C11 10.5434 10.9402 10.6917 10.8205 10.8114C10.7008 10.9311 10.5525 10.991 10.3756 10.991H8.29412ZM1.19985 10.8002C1.07265 10.673 1.00905 10.5255 1.00905 10.3578C1.00905 10.1902 1.07265 10.0427 1.19985 9.91554L8.86652 2.24887H8.29412C8.11719 2.24887 7.96889 2.18937 7.84921 2.07038C7.72952 1.9514 7.66968 1.80396 7.66968 1.62808C7.66968 1.45219 7.72952 1.30354 7.84921 1.18213C7.96889 1.06071 8.11719 1 8.29412 1H10.3756C10.5525 1 10.7008 1.05984 10.8205 1.17952C10.9402 1.29921 11 1.44751 11 1.62443V3.70588C11 3.88281 10.9405 4.03111 10.8215 4.15079C10.7025 4.27048 10.5551 4.33032 10.3792 4.33032C10.2033 4.33032 10.0547 4.27048 9.93326 4.15079C9.81184 4.03111 9.75113 3.88281 9.75113 3.70588V3.13348L2.06712 10.8175C1.93992 10.9447 1.79537 11.0054 1.63348 10.9996C1.47159 10.9938 1.32705 10.9274 1.19985 10.8002ZM1.1825 2.07541C1.0553 1.94822 0.994595 1.80078 1.00038 1.63311C1.00616 1.46543 1.07265 1.318 1.19985 1.1908C1.32705 1.0636 1.47547 1 1.64511 1C1.81463 1 1.96108 1.0636 2.08446 1.1908L4.68627 3.79261C4.81347 3.91981 4.87418 4.06724 4.8684 4.23492C4.86262 4.40259 4.79613 4.55003 4.66893 4.67722C4.54173 4.80442 4.39718 4.86802 4.23529 4.86802C4.0734 4.86802 3.92886 4.80442 3.80166 4.67722L1.1825 2.07541Z" fill="#2E2F38" style="fill:#2E2F38;fill:color(display-p3 0.1804 0.1843 0.2196);fill-opacity:1;"/>
</svg>
