<svg width="8" height="10" viewBox="0 0 8 10" fill="none" xmlns="http://www.w3.org/2000/svg">
<path d="M4.00537 10C3.45036 10 2.93115 9.89616 2.44775 9.68848C1.96436 9.48079 1.53825 9.19434 1.16943 8.8291C0.804199 8.46387 0.517741 8.03955 0.310059 7.55615C0.102376 7.07275 -0.00146484 6.55534 -0.00146484 6.00391C-0.00146484 5.44889 0.102376 4.92969 0.310059 4.44629C0.517741 3.96289 0.804199 3.53857 1.16943 3.17334C1.53825 2.80452 1.96436 2.51628 2.44775 2.30859C2.93115 2.10091 3.45036 1.99707 4.00537 1.99707V3.15723C3.61149 3.15723 3.24268 3.23063 2.89893 3.37744C2.55518 3.52425 2.2526 3.72835 1.99121 3.98975C1.72982 4.24756 1.52572 4.54834 1.37891 4.89209C1.2321 5.23584 1.15869 5.60645 1.15869 6.00391C1.15869 6.39779 1.2321 6.7666 1.37891 7.11035C1.52572 7.4541 1.72803 7.75667 1.98584 8.01807C2.24723 8.27588 2.5498 8.47819 2.89355 8.625C3.24089 8.77181 3.61149 8.84521 4.00537 8.84521C4.39925 8.84521 4.76628 8.77181 5.10645 8.625C5.4502 8.47819 5.75277 8.27409 6.01416 8.0127C6.27555 7.7513 6.47965 7.45052 6.62646 7.11035C6.77327 6.7666 6.84668 6.39779 6.84668 6.00391H8.00146C8.00146 6.55534 7.89762 7.07275 7.68994 7.55615C7.48584 8.03955 7.19938 8.46387 6.83057 8.8291C6.46533 9.19434 6.04102 9.48079 5.55762 9.68848C5.07422 9.89616 4.5568 10 4.00537 10ZM3.7959 5.17676V0.111816L6.35791 2.64697L3.7959 5.17676Z" fill="#2E2F38" style="fill:#2E2F38;fill:color(display-p3 0.1804 0.1843 0.2196);fill-opacity:1;"/>
</svg>
