<svg width="12" height="12" viewBox="0 0 12 12" fill="none" xmlns="http://www.w3.org/2000/svg">
<path fill-rule="evenodd" clip-rule="evenodd" d="M4.50146 1H6.50146C6.77646 1 7.00146 1.225 7.00146 1.5C7.00146 1.775 6.77646 2 6.50146 2H4.50146C4.22646 2 4.00146 1.775 4.00146 1.5C4.00146 1.225 4.22646 1 4.50146 1ZM6.00146 7C6.00146 7.275 5.77646 7.5 5.50146 7.5C5.22646 7.5 5.00146 7.275 5.00146 7V5C5.00146 4.725 5.22646 4.5 5.50146 4.5C5.77646 4.5 6.00146 4.725 6.00146 5V7ZM9.01651 4.195L9.39151 3.82C9.58151 3.63 9.58651 3.315 9.39151 3.12L9.38651 3.115C9.19151 2.92 8.88152 2.925 8.68651 3.115L8.31151 3.49C7.53651 2.87 6.56151 2.5 5.50151 2.5C3.10151 2.5 1.06151 4.48 1.00151 6.88C0.936515 9.42 2.97151 11.5 5.50151 11.5C7.99152 11.5 10.0015 9.485 10.0015 7C10.0015 5.94 9.63151 4.965 9.01651 4.195ZM2.00146 7C2.00146 8.935 3.56646 10.5 5.50146 10.5C7.43646 10.5 9.00146 8.935 9.00146 7C9.00146 5.065 7.43646 3.5 5.50146 3.5C3.56646 3.5 2.00146 5.065 2.00146 7Z" fill="#9EA0AB" style="fill:#9EA0AB;fill:color(display-p3 0.6196 0.6275 0.6706);fill-opacity:1;"/>
</svg>
