<svg width="16" height="16" viewBox="0 0 16 16" fill="none" xmlns="http://www.w3.org/2000/svg">
<path d="M7.99984 8.00033C7.2665 8.00033 6.63873 7.73921 6.1165 7.21699C5.59428 6.69477 5.33317 6.06699 5.33317 5.33366C5.33317 4.60033 5.59428 3.97255 6.1165 3.45033C6.63873 2.9281 7.2665 2.66699 7.99984 2.66699C8.73317 2.66699 9.36095 2.9281 9.88317 3.45033C10.4054 3.97255 10.6665 4.60033 10.6665 5.33366C10.6665 6.06699 10.4054 6.69477 9.88317 7.21699C9.36095 7.73921 8.73317 8.00033 7.99984 8.00033ZM2.6665 12.0003V11.467C2.6665 11.0892 2.76373 10.742 2.95817 10.4253C3.15262 10.1087 3.41095 9.86699 3.73317 9.70033C4.42206 9.35588 5.12206 9.09755 5.83317 8.92533C6.54428 8.7531 7.2665 8.66699 7.99984 8.66699C8.73317 8.66699 9.45539 8.7531 10.1665 8.92533C10.8776 9.09755 11.5776 9.35588 12.2665 9.70033C12.5887 9.86699 12.8471 10.1087 13.0415 10.4253C13.2359 10.742 13.3332 11.0892 13.3332 11.467V12.0003C13.3332 12.367 13.2026 12.6809 12.9415 12.942C12.6804 13.2031 12.3665 13.3337 11.9998 13.3337H3.99984C3.63317 13.3337 3.31928 13.2031 3.05817 12.942C2.79706 12.6809 2.6665 12.367 2.6665 12.0003ZM3.99984 12.0003H11.9998V11.467C11.9998 11.3448 11.9693 11.2337 11.9082 11.1337C11.8471 11.0337 11.7665 10.9559 11.6665 10.9003C11.0665 10.6003 10.4609 10.3753 9.84984 10.2253C9.23873 10.0753 8.62206 10.0003 7.99984 10.0003C7.37762 10.0003 6.76095 10.0753 6.14984 10.2253C5.53873 10.3753 4.93317 10.6003 4.33317 10.9003C4.23317 10.9559 4.15262 11.0337 4.0915 11.1337C4.03039 11.2337 3.99984 11.3448 3.99984 11.467V12.0003ZM7.99984 6.66699C8.3665 6.66699 8.68039 6.53644 8.9415 6.27533C9.20262 6.01421 9.33317 5.70033 9.33317 5.33366C9.33317 4.96699 9.20262 4.6531 8.9415 4.39199C8.68039 4.13088 8.3665 4.00033 7.99984 4.00033C7.63317 4.00033 7.31928 4.13088 7.05817 4.39199C6.79706 4.6531 6.6665 4.96699 6.6665 5.33366C6.6665 5.70033 6.79706 6.01421 7.05817 6.27533C7.31928 6.53644 7.63317 6.66699 7.99984 6.66699Z" fill="#2E2F38" style="fill:#2E2F38;fill:color(display-p3 0.1804 0.1843 0.2196);fill-opacity:1;"/>
</svg>
