<svg width="24" height="24" viewBox="0 0 24 24" fill="none" xmlns="http://www.w3.org/2000/svg">
<path d="M13 13.4L14.9 15.3C15.0833 15.4833 15.3167 15.575 15.6 15.575C15.8833 15.575 16.1167 15.4833 16.3 15.3C16.4833 15.1167 16.575 14.8833 16.575 14.6C16.575 14.3167 16.4833 14.0833 16.3 13.9L14.4 12L16.3 10.1C16.4833 9.91667 16.575 9.68333 16.575 9.4C16.575 9.11667 16.4833 8.88333 16.3 8.7C16.1167 8.51667 15.8833 8.425 15.6 8.425C15.3167 8.425 15.0833 8.51667 14.9 8.7L13 10.6L11.1 8.7C10.9167 8.51667 10.6833 8.425 10.4 8.425C10.1167 8.425 9.88333 8.51667 9.7 8.7C9.51667 8.88333 9.425 9.11667 9.425 9.4C9.425 9.68333 9.51667 9.91667 9.7 10.1L11.6 12L9.7 13.9C9.51667 14.0833 9.425 14.3167 9.425 14.6C9.425 14.8833 9.51667 15.1167 9.7 15.3C9.88333 15.4833 10.1167 15.575 10.4 15.575C10.6833 15.575 10.9167 15.4833 11.1 15.3L13 13.4ZM8 20C7.68333 20 7.38333 19.9292 7.1 19.7875C6.81667 19.6458 6.58333 19.45 6.4 19.2L1.9 13.2C1.63333 12.85 1.5 12.45 1.5 12C1.5 11.55 1.63333 11.15 1.9 10.8L6.4 4.8C6.58333 4.55 6.81667 4.35417 7.1 4.2125C7.38333 4.07083 7.68333 4 8 4H19C19.55 4 20.0208 4.19583 20.4125 4.5875C20.8042 4.97917 21 5.45 21 6V18C21 18.55 20.8042 19.0208 20.4125 19.4125C20.0208 19.8042 19.55 20 19 20H8ZM8 18H19V6H8L3.5 12L8 18Z" fill="#2E2F38" style="fill:#2E2F38;fill:color(display-p3 0.1804 0.1843 0.2196);fill-opacity:1;"/>
</svg>
