<svg width="16" height="16" viewBox="0 0 16 16" fill="none" xmlns="http://www.w3.org/2000/svg">
<path d="M5.21637 8.66686L8.48304 11.9335C8.61637 12.0669 8.68026 12.2224 8.67471 12.4002C8.66915 12.578 8.59971 12.7335 8.46637 12.8669C8.33304 12.9891 8.17748 13.053 7.99971 13.0585C7.82193 13.0641 7.66637 13.0002 7.53304 12.8669L3.13304 8.46686C3.06637 8.4002 3.01915 8.32797 2.99137 8.2502C2.9636 8.17242 2.94971 8.08908 2.94971 8.0002C2.94971 7.91131 2.9636 7.82797 2.99137 7.7502C3.01915 7.67242 3.06637 7.6002 3.13304 7.53353L7.53304 3.13353C7.65526 3.01131 7.80804 2.9502 7.99137 2.9502C8.17471 2.9502 8.33304 3.01131 8.46637 3.13353C8.59971 3.26686 8.66637 3.4252 8.66637 3.60853C8.66637 3.79186 8.59971 3.9502 8.46637 4.08353L5.21637 7.33353H12.6664C12.8553 7.33353 13.0136 7.39742 13.1414 7.5252C13.2692 7.65297 13.333 7.81131 13.333 8.0002C13.333 8.18908 13.2692 8.34742 13.1414 8.4752C13.0136 8.60297 12.8553 8.66686 12.6664 8.66686H5.21637Z" fill="#2E2F38" style="fill:#2E2F38;fill:color(display-p3 0.1804 0.1843 0.2196);fill-opacity:1;"/>
</svg>
