<svg width="16" height="16" viewBox="0 0 16 16" fill="none" xmlns="http://www.w3.org/2000/svg">
<path d="M12.0002 5.99967L11.4668 6.46634C11.3113 6.61079 11.1279 6.68301 10.9168 6.68301C10.7057 6.68301 10.5224 6.6219 10.3668 6.49967C10.2113 6.37745 10.1057 6.2219 10.0502 6.03301C9.99461 5.84412 10.0002 5.64412 10.0668 5.43301L10.3335 4.59967L9.76683 4.26634C9.58905 4.16634 9.46405 4.0219 9.39183 3.83301C9.31961 3.64412 9.31127 3.45523 9.36683 3.26634C9.42239 3.07745 9.5335 2.93023 9.70016 2.82467C9.86683 2.71912 10.0557 2.66634 10.2668 2.66634H10.9335L11.1335 2.03301C11.2002 1.8219 11.3141 1.65245 11.4752 1.52467C11.6363 1.3969 11.8113 1.33301 12.0002 1.33301C12.1891 1.33301 12.3641 1.3969 12.5252 1.52467C12.6863 1.65245 12.8002 1.8219 12.8668 2.03301L13.0668 2.66634H13.7335C13.9446 2.66634 14.1307 2.71912 14.2918 2.82467C14.4529 2.93023 14.5668 3.07745 14.6335 3.26634C14.7113 3.46634 14.7113 3.66079 14.6335 3.84967C14.5557 4.03856 14.4335 4.17745 14.2668 4.26634L13.6668 4.59967L13.9335 5.43301C14.0002 5.64412 14.0057 5.8469 13.9502 6.04134C13.8946 6.23579 13.7891 6.38856 13.6335 6.49967C13.4668 6.6219 13.2807 6.68301 13.0752 6.68301C12.8696 6.68301 12.6891 6.61079 12.5335 6.46634L12.0002 5.99967ZM12.0002 4.66634C12.1891 4.66634 12.3474 4.60245 12.4752 4.47467C12.6029 4.3469 12.6668 4.18856 12.6668 3.99967C12.6668 3.81079 12.6029 3.65245 12.4752 3.52467C12.3474 3.3969 12.1891 3.33301 12.0002 3.33301C11.8113 3.33301 11.6529 3.3969 11.5252 3.52467C11.3974 3.65245 11.3335 3.81079 11.3335 3.99967C11.3335 4.18856 11.3974 4.3469 11.5252 4.47467C11.6529 4.60245 11.8113 4.66634 12.0002 4.66634ZM9.20016 11.933C9.45572 12.5997 9.37239 13.2219 8.95016 13.7997C8.52794 14.3775 7.9335 14.6663 7.16683 14.6663C6.80016 14.6663 6.45294 14.5719 6.12516 14.383C5.79739 14.1941 5.55572 13.9441 5.40016 13.633C4.47794 13.7663 3.71405 13.5302 3.1085 12.9247C2.50294 12.3191 2.25572 11.5441 2.36683 10.5997C2.0335 10.4108 1.77794 10.1525 1.60016 9.82467C1.42238 9.4969 1.3335 9.1219 1.3335 8.69967C1.3335 8.0219 1.64183 7.47467 2.2585 7.05801C2.87516 6.64134 3.47794 6.55523 4.06683 6.79967L5.10016 7.23301C5.32239 6.88856 5.61683 6.60801 5.9835 6.39134C6.35016 6.17467 6.74461 6.05523 7.16683 6.03301V5.16634C7.16683 5.0219 7.21405 4.90245 7.3085 4.80801C7.40294 4.71356 7.52239 4.66634 7.66683 4.66634C7.81127 4.66634 7.93072 4.71356 8.02516 4.80801C8.11961 4.90245 8.16683 5.0219 8.16683 5.16634V6.16634C8.57794 6.28856 8.91683 6.48023 9.1835 6.74134C9.45016 7.00245 9.67794 7.36634 9.86683 7.83301H10.8335C10.9779 7.83301 11.0974 7.88023 11.1918 7.97467C11.2863 8.06912 11.3335 8.18856 11.3335 8.33301C11.3335 8.47745 11.2863 8.5969 11.1918 8.69134C11.0974 8.78579 10.9779 8.83301 10.8335 8.83301H9.96683C9.94461 9.25523 9.83072 9.64967 9.62516 10.0163C9.41961 10.383 9.14461 10.6775 8.80016 10.8997L9.20016 11.933ZM5.06683 12.333C5.06683 12.033 5.09183 11.7413 5.14183 11.458C5.19183 11.1747 5.26683 10.8997 5.36683 10.633C5.11127 10.7552 4.83627 10.8413 4.54183 10.8913C4.24739 10.9413 3.95572 10.9552 3.66683 10.933C3.66683 11.3663 3.79183 11.708 4.04183 11.958C4.29183 12.208 4.6335 12.333 5.06683 12.333ZM3.8335 9.59967C4.18905 9.59967 4.50294 9.55523 4.77516 9.46634C5.04739 9.37745 5.40016 9.19967 5.8335 8.93301L3.8335 8.09967C3.51127 7.96634 3.23627 7.96912 3.0085 8.10801C2.78072 8.2469 2.66683 8.46634 2.66683 8.76634C2.66683 9.05523 2.76127 9.26634 2.95016 9.39967C3.13905 9.53301 3.4335 9.59967 3.8335 9.59967ZM7.16683 13.333C7.44461 13.333 7.66961 13.2358 7.84183 13.0413C8.01405 12.8469 8.05572 12.6441 7.96683 12.433L7.06683 10.1663C6.85572 10.5219 6.69183 10.8775 6.57516 11.233C6.4585 11.5886 6.40016 11.9108 6.40016 12.1997C6.40016 12.5663 6.46405 12.8469 6.59183 13.0413C6.71961 13.2358 6.91127 13.333 7.16683 13.333ZM8.26683 9.63301C8.37794 9.5219 8.46683 9.37467 8.5335 9.19134C8.60016 9.00801 8.6335 8.81634 8.6335 8.61634C8.6335 8.26079 8.51683 7.96079 8.2835 7.71634C8.05016 7.4719 7.76127 7.34967 7.41683 7.34967C7.21683 7.34967 7.02794 7.38301 6.85016 7.44967C6.67239 7.51634 6.52239 7.61079 6.40016 7.73301L7.70016 8.33301L8.26683 9.63301Z" fill="#2E2F38" style="fill:#2E2F38;fill:color(display-p3 0.1804 0.1843 0.2196);fill-opacity:1;"/>
</svg>
