<svg width="16" height="16" viewBox="0 0 16 16" fill="none" xmlns="http://www.w3.org/2000/svg">
<path d="M3.33333 14.6663C2.96667 14.6663 2.65278 14.5358 2.39167 14.2747C2.13056 14.0136 2 13.6997 2 13.333V3.99967C2 3.63301 2.13056 3.31912 2.39167 3.05801C2.65278 2.7969 2.96667 2.66634 3.33333 2.66634H4V1.99967C4 1.81079 4.06389 1.65245 4.19167 1.52467C4.31944 1.3969 4.47778 1.33301 4.66667 1.33301C4.85556 1.33301 5.01389 1.3969 5.14167 1.52467C5.26944 1.65245 5.33333 1.81079 5.33333 1.99967V2.66634H10.6667V1.99967C10.6667 1.81079 10.7306 1.65245 10.8583 1.52467C10.9861 1.3969 11.1444 1.33301 11.3333 1.33301C11.5222 1.33301 11.6806 1.3969 11.8083 1.52467C11.9361 1.65245 12 1.81079 12 1.99967V2.66634H12.6667C13.0333 2.66634 13.3472 2.7969 13.6083 3.05801C13.8694 3.31912 14 3.63301 14 3.99967V13.333C14 13.6997 13.8694 14.0136 13.6083 14.2747C13.3472 14.5358 13.0333 14.6663 12.6667 14.6663H3.33333ZM3.33333 13.333H12.6667V6.66634H3.33333V13.333ZM3.33333 5.33301H12.6667V3.99967H3.33333V5.33301Z" fill="#2E2F38" style="fill:#2E2F38;fill:color(display-p3 0.1804 0.1843 0.2196);fill-opacity:1;"/>
</svg>
