<svg width="16" height="16" viewBox="0 0 16 16" fill="none" xmlns="http://www.w3.org/2000/svg">
<path d="M7.64997 9.65033L5.2333 7.23366C5.19997 7.20033 5.17497 7.16421 5.1583 7.12533C5.14163 7.08644 5.1333 7.04477 5.1333 7.00033C5.1333 6.91144 5.16386 6.83366 5.22497 6.76699C5.28608 6.70033 5.36663 6.66699 5.46663 6.66699H10.5333C10.6333 6.66699 10.7139 6.70033 10.775 6.76699C10.8361 6.83366 10.8666 6.91144 10.8666 7.00033C10.8666 7.02255 10.8333 7.10033 10.7666 7.23366L8.34997 9.65033C8.29441 9.70588 8.23886 9.74477 8.1833 9.76699C8.12775 9.78921 8.06663 9.80033 7.99997 9.80033C7.9333 9.80033 7.87219 9.78921 7.81663 9.76699C7.76108 9.74477 7.70552 9.70588 7.64997 9.65033Z" fill="#2E2F38" style="fill:#2E2F38;fill:color(display-p3 0.1804 0.1843 0.2196);fill-opacity:1;"/>
</svg>
