<svg width="15" height="17" viewBox="0 0 15 17" fill="none" xmlns="http://www.w3.org/2000/svg">
<path d="M1 0.5C1 0.223858 0.776142 0 0.5 0V0C0.223858 0 0 0.223858 0 0.5V0.5C0 0.776142 0.223858 1 0.5 1V1C0.776142 1 1 0.776142 1 0.5V0.5Z" fill="#DDA846" style="fill:#DDA846;fill:color(display-p3 0.8667 0.6588 0.2745);fill-opacity:1;"/>
<path d="M0 2.5C0 2.22386 0.223858 2 0.5 2V2C0.776142 2 1 2.22386 1 2.5V14.5C1 14.7761 0.776142 15 0.5 15V15C0.223858 15 0 14.7761 0 14.5V2.5Z" fill="#DDA846" style="fill:#DDA846;fill:color(display-p3 0.8667 0.6588 0.2745);fill-opacity:1;"/>
<path d="M4 3C4 2.44772 3.55228 2 3 2V2C2.44772 2 2 2.44772 2 3V14C2 14.5523 2.44772 15 3 15V15C3.55228 15 4 14.5523 4 14V3Z" fill="#DDA846" style="fill:#DDA846;fill:color(display-p3 0.8667 0.6588 0.2745);fill-opacity:1;"/>
<path d="M5 3C5 2.44772 5.44772 2 6 2V2C6.55228 2 7 2.44772 7 3V4C7 4.55228 6.55228 5 6 5V5C5.44772 5 5 4.55228 5 4V3Z" fill="#DDA846" style="fill:#DDA846;fill:color(display-p3 0.8667 0.6588 0.2745);fill-opacity:1;"/>
<path d="M5 8C5 7.44772 5.44772 7 6 7V7C6.55228 7 7 7.44772 7 8V9C7 9.55228 6.55228 10 6 10V10C5.44772 10 5 9.55228 5 9V8Z" fill="#DDA846" style="fill:#DDA846;fill:color(display-p3 0.8667 0.6588 0.2745);fill-opacity:1;"/>
<path d="M11 0.5C11 0.223858 11.2239 0 11.5 0V0C11.7761 0 12 0.223858 12 0.5V0.5C12 0.776142 11.7761 1 11.5 1V1C11.2239 1 11 0.776142 11 0.5V0.5Z" fill="#DDA846" style="fill:#DDA846;fill:color(display-p3 0.8667 0.6588 0.2745);fill-opacity:1;"/>
<path d="M4 0.5C4 0.223858 3.77614 0 3.5 0H2.5C2.22386 0 2 0.223858 2 0.5V0.5C2 0.776142 2.22386 1 2.5 1H3.5C3.77614 1 4 0.776142 4 0.5V0.5Z" fill="#DDA846" style="fill:#DDA846;fill:color(display-p3 0.8667 0.6588 0.2745);fill-opacity:1;"/>
<path d="M5 0.5C5 0.223858 5.22386 0 5.5 0H6.5C6.77614 0 7 0.223858 7 0.5V0.5C7 0.776142 6.77614 1 6.5 1H5.5C5.22386 1 5 0.776142 5 0.5V0.5Z" fill="#DDA846" style="fill:#DDA846;fill:color(display-p3 0.8667 0.6588 0.2745);fill-opacity:1;"/>
<path d="M10 0.5C10 0.223858 9.77614 0 9.5 0H8.5C8.22386 0 8 0.223858 8 0.5V0.5C8 0.776142 8.22386 1 8.5 1H9.5C9.77614 1 10 0.776142 10 0.5V0.5Z" fill="#DDA846" style="fill:#DDA846;fill:color(display-p3 0.8667 0.6588 0.2745);fill-opacity:1;"/>
<path d="M12.5 2C12.7761 2 13 2.22386 13 2.5V2.5C13 2.77614 12.7761 3 12.5 3H11.5C11.2239 3 11 2.77614 11 2.5V2.5C11 2.22386 11.2239 2 11.5 2H12.5Z" fill="#DDA846" style="fill:#DDA846;fill:color(display-p3 0.8667 0.6588 0.2745);fill-opacity:1;"/>
<path d="M14.5 7C14.7761 7 15 6.77614 15 6.5V4.5C15 4.22386 14.7761 4 14.5 4V4C14.2239 4 14 4.22386 14 4.5V6.5C14 6.77614 14.2239 7 14.5 7V7Z" fill="#DDA846" style="fill:#DDA846;fill:color(display-p3 0.8667 0.6588 0.2745);fill-opacity:1;"/>
<path d="M14.5 10C14.7761 10 15 10.2239 15 10.5V12.5C15 12.7761 14.7761 13 14.5 13V13C14.2239 13 14 12.7761 14 12.5V10.5C14 10.2239 14.2239 10 14.5 10V10Z" fill="#DDA846" style="fill:#DDA846;fill:color(display-p3 0.8667 0.6588 0.2745);fill-opacity:1;"/>
<path d="M1 16.5C1 16.7761 0.776142 17 0.5 17V17C0.223858 17 0 16.7761 0 16.5V16.5C0 16.2239 0.223858 16 0.5 16V16C0.776142 16 1 16.2239 1 16.5V16.5Z" fill="#DDA846" style="fill:#DDA846;fill:color(display-p3 0.8667 0.6588 0.2745);fill-opacity:1;"/>
<path d="M11 16.5C11 16.7761 11.2239 17 11.5 17V17C11.7761 17 12 16.7761 12 16.5V16.5C12 16.2239 11.7761 16 11.5 16V16C11.2239 16 11 16.2239 11 16.5V16.5Z" fill="#DDA846" style="fill:#DDA846;fill:color(display-p3 0.8667 0.6588 0.2745);fill-opacity:1;"/>
<path d="M4 16.5C4 16.7761 3.77614 17 3.5 17H2.5C2.22386 17 2 16.7761 2 16.5V16.5C2 16.2239 2.22386 16 2.5 16H3.5C3.77614 16 4 16.2239 4 16.5V16.5Z" fill="#DDA846" style="fill:#DDA846;fill:color(display-p3 0.8667 0.6588 0.2745);fill-opacity:1;"/>
<path d="M5 16.5C5 16.7761 5.22386 17 5.5 17H6.5C6.77614 17 7 16.7761 7 16.5V16.5C7 16.2239 6.77614 16 6.5 16H5.5C5.22386 16 5 16.2239 5 16.5V16.5Z" fill="#DDA846" style="fill:#DDA846;fill:color(display-p3 0.8667 0.6588 0.2745);fill-opacity:1;"/>
<path d="M10 16.5C10 16.7761 9.77614 17 9.5 17H8.5C8.22386 17 8 16.7761 8 16.5V16.5C8 16.2239 8.22386 16 8.5 16H9.5C9.77614 16 10 16.2239 10 16.5V16.5Z" fill="#DDA846" style="fill:#DDA846;fill:color(display-p3 0.8667 0.6588 0.2745);fill-opacity:1;"/>
<path d="M11 14.5C11 14.7761 11.2239 15 11.5 15H12.5C12.7761 15 13 14.7761 13 14.5V14.5C13 14.2239 12.7761 14 12.5 14H11.5C11.2239 14 11 14.2239 11 14.5V14.5Z" fill="#DDA846" style="fill:#DDA846;fill:color(display-p3 0.8667 0.6588 0.2745);fill-opacity:1;"/>
<path d="M10 3C10 2.44772 9.55228 2 9 2V2C8.44772 2 8 2.44772 8 3V4C8 4.55228 8.44772 5 9 5V5C9.55228 5 10 4.55228 10 4V3Z" fill="#DDA846" style="fill:#DDA846;fill:color(display-p3 0.8667 0.6588 0.2745);fill-opacity:1;"/>
<path d="M11 5C11 4.44772 11.4477 4 12 4V4C12.5523 4 13 4.44772 13 5V6C13 6.55228 12.5523 7 12 7V7C11.4477 7 11 6.55228 11 6V5Z" fill="#DDA846" style="fill:#DDA846;fill:color(display-p3 0.8667 0.6588 0.2745);fill-opacity:1;"/>
<path d="M13 11C13 10.4477 12.5523 10 12 10V10C11.4477 10 11 10.4477 11 11V12C11 12.5523 11.4477 13 12 13V13C12.5523 13 13 12.5523 13 12V11Z" fill="#DDA846" style="fill:#DDA846;fill:color(display-p3 0.8667 0.6588 0.2745);fill-opacity:1;"/>
<path d="M8 13C8 12.4477 8.44772 12 9 12V12C9.55228 12 10 12.4477 10 13V14C10 14.5523 9.55228 15 9 15V15C8.44772 15 8 14.5523 8 14V13Z" fill="#DDA846" style="fill:#DDA846;fill:color(display-p3 0.8667 0.6588 0.2745);fill-opacity:1;"/>
<path d="M7 13C7 12.4477 6.55228 12 6 12V12C5.44772 12 5 12.4477 5 13V14C5 14.5523 5.44772 15 6 15V15C6.55228 15 7 14.5523 7 14V13Z" fill="#DDA846" style="fill:#DDA846;fill:color(display-p3 0.8667 0.6588 0.2745);fill-opacity:1;"/>
<rect x="8" y="7" width="3" height="3" rx="1" fill="#DDA846" style="fill:#DDA846;fill:color(display-p3 0.8667 0.6588 0.2745);fill-opacity:1;"/>
</svg>
