<svg width="16" height="16" viewBox="0 0 16 16" fill="none" xmlns="http://www.w3.org/2000/svg">
<path d="M9.73321 5.38333C9.73321 4.90556 9.57488 4.52222 9.25821 4.23333C8.94154 3.94444 8.5221 3.8 7.99988 3.8C7.67765 3.8 7.38599 3.86944 7.12488 4.00833C6.86376 4.14722 6.63876 4.35 6.44988 4.61667C6.2721 4.87222 6.03043 5.01944 5.72488 5.05833C5.41932 5.09722 5.15543 5.01667 4.93321 4.81667C4.77765 4.67222 4.69154 4.49444 4.67488 4.28333C4.65821 4.07222 4.71099 3.87222 4.83321 3.68333C5.18876 3.15 5.64154 2.73611 6.19154 2.44167C6.74154 2.14722 7.34432 2 7.99988 2C9.07765 2 9.95265 2.30556 10.6249 2.91667C11.2971 3.52778 11.6332 4.32778 11.6332 5.31667C11.6332 5.81667 11.5277 6.26667 11.3165 6.66667C11.1054 7.06667 10.7165 7.53889 10.1499 8.08333C9.73876 8.47222 9.46099 8.775 9.31654 8.99167C9.1721 9.20833 9.07765 9.45556 9.03321 9.73333C8.98876 10 8.87488 10.2222 8.69154 10.4C8.50821 10.5778 8.28876 10.6667 8.03321 10.6667C7.77765 10.6667 7.55821 10.5806 7.37488 10.4083C7.19154 10.2361 7.09988 10.0222 7.09988 9.76667C7.09988 9.33333 7.19432 8.93611 7.38321 8.575C7.5721 8.21389 7.88876 7.83333 8.33321 7.43333C8.89988 6.93333 9.27488 6.54722 9.45821 6.275C9.64154 6.00278 9.73321 5.70556 9.73321 5.38333ZM7.99988 14.6667C7.63321 14.6667 7.31932 14.5361 7.05821 14.275C6.7971 14.0139 6.66654 13.7 6.66654 13.3333C6.66654 12.9667 6.7971 12.6528 7.05821 12.3917C7.31932 12.1306 7.63321 12 7.99988 12C8.36654 12 8.68043 12.1306 8.94154 12.3917C9.20265 12.6528 9.33321 12.9667 9.33321 13.3333C9.33321 13.7 9.20265 14.0139 8.94154 14.275C8.68043 14.5361 8.36654 14.6667 7.99988 14.6667Z" fill="#2E2F38" style="fill:#2E2F38;fill:color(display-p3 0.1804 0.1843 0.2196);fill-opacity:1;"/>
</svg>
