<svg width="24" height="24" viewBox="0 0 24 24" fill="none" xmlns="http://www.w3.org/2000/svg">
<path d="M8.0499 19H5.9249C5.55824 19 5.22074 18.9083 4.9124 18.725C4.60407 18.5417 4.35824 18.2917 4.1749 17.975L3.0499 15.975C2.86657 15.675 2.7749 15.35 2.7749 15C2.7749 14.65 2.86657 14.325 3.0499 14.025L4.1999 12L3.0499 9.975C2.86657 9.675 2.7749 9.35 2.7749 9C2.7749 8.65 2.86657 8.325 3.0499 8.025L4.1749 6.025C4.35824 5.70833 4.60407 5.45833 4.9124 5.275C5.22074 5.09167 5.55824 5 5.9249 5H8.0499L9.1749 3.025C9.35824 2.70833 9.60407 2.45833 9.9124 2.275C10.2207 2.09167 10.5582 2 10.9249 2H13.0749C13.4416 2 13.7791 2.09167 14.0874 2.275C14.3957 2.45833 14.6416 2.70833 14.8249 3.025L15.9499 5H18.0749C18.4416 5 18.7791 5.09167 19.0874 5.275C19.3957 5.45833 19.6416 5.70833 19.8249 6.025L20.9499 8.025C21.1332 8.325 21.2249 8.65 21.2249 9C21.2249 9.35 21.1332 9.675 20.9499 9.975L19.7999 12L20.9499 14.025C21.1332 14.325 21.2249 14.65 21.2249 15C21.2249 15.35 21.1332 15.675 20.9499 15.975L19.8249 17.975C19.6416 18.2917 19.3957 18.5417 19.0874 18.725C18.7791 18.9083 18.4416 19 18.0749 19H15.9499L14.8249 20.975C14.6416 21.2917 14.3957 21.5417 14.0874 21.725C13.7791 21.9083 13.4416 22 13.0749 22H10.9249C10.5582 22 10.2207 21.9083 9.9124 21.725C9.60407 21.5417 9.35824 21.2917 9.1749 20.975L8.0499 19ZM15.9499 11H18.0999L19.1999 9L18.0999 7H15.9499L14.8249 9L15.9499 11ZM10.9499 14H13.0499L14.1749 12L13.0499 10H10.9499L9.8249 12L10.9499 14ZM10.9499 8H13.0499L14.1999 5.975L13.0749 4H10.9249L9.7999 5.975L10.9499 8ZM9.1749 9L8.0499 7H5.9249L4.7999 9L5.9249 11H8.0499L9.1749 9ZM9.1749 15L8.0499 13H5.8999L4.7999 15L5.9249 17H8.0499L9.1749 15ZM10.9499 16L9.7999 18.025L10.9249 20H13.0749L14.1999 18.025L13.0499 16H10.9499ZM15.9499 17H18.0749L19.1999 15L18.0749 13H15.9499L14.8249 15L15.9499 17Z" fill="#2E2F38" style="fill:#2E2F38;fill:color(display-p3 0.1804 0.1843 0.2196);fill-opacity:1;"/>
</svg>
