<svg width="16" height="16" viewBox="0 0 16 16" fill="none" xmlns="http://www.w3.org/2000/svg">
<path d="M5.36628 12.6663H3.94961C3.70517 12.6663 3.48017 12.6052 3.27461 12.483C3.06905 12.3608 2.90516 12.1941 2.78294 11.983L2.03294 10.6497C1.91072 10.4497 1.84961 10.233 1.84961 9.99967C1.84961 9.76634 1.91072 9.54967 2.03294 9.34967L2.79961 7.99967L2.03294 6.64967C1.91072 6.44967 1.84961 6.23301 1.84961 5.99967C1.84961 5.76634 1.91072 5.54967 2.03294 5.34967L2.78294 4.01634C2.90516 3.80523 3.06905 3.63856 3.27461 3.51634C3.48017 3.39412 3.70517 3.33301 3.94961 3.33301H5.36628L6.11628 2.01634C6.2385 1.80523 6.40239 1.63856 6.60794 1.51634C6.8135 1.39412 7.0385 1.33301 7.28294 1.33301H8.71628C8.96072 1.33301 9.18572 1.39412 9.39128 1.51634C9.59683 1.63856 9.76072 1.80523 9.88294 2.01634L10.6329 3.33301H12.0496C12.2941 3.33301 12.5191 3.39412 12.7246 3.51634C12.9302 3.63856 13.0941 3.80523 13.2163 4.01634L13.9663 5.34967C14.0885 5.54967 14.1496 5.76634 14.1496 5.99967C14.1496 6.23301 14.0885 6.44967 13.9663 6.64967L13.1996 7.99967L13.9663 9.34967C14.0885 9.54967 14.1496 9.76634 14.1496 9.99967C14.1496 10.233 14.0885 10.4497 13.9663 10.6497L13.2163 11.983C13.0941 12.1941 12.9302 12.3608 12.7246 12.483C12.5191 12.6052 12.2941 12.6663 12.0496 12.6663H10.6329L9.88294 13.983C9.76072 14.1941 9.59683 14.3608 9.39128 14.483C9.18572 14.6052 8.96072 14.6663 8.71628 14.6663H7.28294C7.0385 14.6663 6.8135 14.6052 6.60794 14.483C6.40239 14.3608 6.2385 14.1941 6.11628 13.983L5.36628 12.6663ZM10.6329 7.33301H12.0663L12.7996 5.99967L12.0663 4.66634H10.6329L9.88294 5.99967L10.6329 7.33301ZM7.29961 9.33301H8.69961L9.44961 7.99967L8.69961 6.66634H7.29961L6.54961 7.99967L7.29961 9.33301ZM7.29961 5.33301H8.69961L9.46628 3.98301L8.71628 2.66634H7.28294L6.53294 3.98301L7.29961 5.33301ZM6.11628 5.99967L5.36628 4.66634H3.94961L3.19961 5.99967L3.94961 7.33301H5.36628L6.11628 5.99967ZM6.11628 9.99967L5.36628 8.66634H3.93294L3.19961 9.99967L3.94961 11.333H5.36628L6.11628 9.99967ZM7.29961 10.6663L6.53294 12.0163L7.28294 13.333H8.71628L9.46628 12.0163L8.69961 10.6663H7.29961ZM10.6329 11.333H12.0496L12.7996 9.99967L12.0496 8.66634H10.6329L9.88294 9.99967L10.6329 11.333Z" fill="#2E2F38" style="fill:#2E2F38;fill:color(display-p3 0.1804 0.1843 0.2196);fill-opacity:1;"/>
</svg>
