<svg width="16" height="16" viewBox="0 0 16 16" fill="none" xmlns="http://www.w3.org/2000/svg">
<path d="M3.33317 12.6663C3.14428 12.6663 2.98595 12.6025 2.85817 12.4747C2.73039 12.3469 2.6665 12.1886 2.6665 11.9997C2.6665 11.8108 2.73039 11.6525 2.85817 11.5247C2.98595 11.3969 3.14428 11.333 3.33317 11.333H8.6665C8.85539 11.333 9.01373 11.3969 9.1415 11.5247C9.26928 11.6525 9.33317 11.8108 9.33317 11.9997C9.33317 12.1886 9.26928 12.3469 9.1415 12.4747C9.01373 12.6025 8.85539 12.6663 8.6665 12.6663H3.33317ZM3.33317 9.99967C3.14428 9.99967 2.98595 9.93579 2.85817 9.80801C2.73039 9.68023 2.6665 9.5219 2.6665 9.33301C2.6665 9.14412 2.73039 8.98579 2.85817 8.85801C2.98595 8.73023 3.14428 8.66634 3.33317 8.66634H12.6665C12.8554 8.66634 13.0137 8.73023 13.1415 8.85801C13.2693 8.98579 13.3332 9.14412 13.3332 9.33301C13.3332 9.5219 13.2693 9.68023 13.1415 9.80801C13.0137 9.93579 12.8554 9.99967 12.6665 9.99967H3.33317ZM3.33317 7.33301C3.14428 7.33301 2.98595 7.26912 2.85817 7.14134C2.73039 7.01356 2.6665 6.85523 2.6665 6.66634C2.6665 6.47745 2.73039 6.31912 2.85817 6.19134C2.98595 6.06356 3.14428 5.99967 3.33317 5.99967H12.6665C12.8554 5.99967 13.0137 6.06356 13.1415 6.19134C13.2693 6.31912 13.3332 6.47745 13.3332 6.66634C13.3332 6.85523 13.2693 7.01356 13.1415 7.14134C13.0137 7.26912 12.8554 7.33301 12.6665 7.33301H3.33317ZM3.33317 4.66634C3.14428 4.66634 2.98595 4.60245 2.85817 4.47467C2.73039 4.3469 2.6665 4.18856 2.6665 3.99967C2.6665 3.81079 2.73039 3.65245 2.85817 3.52467C2.98595 3.3969 3.14428 3.33301 3.33317 3.33301H12.6665C12.8554 3.33301 13.0137 3.3969 13.1415 3.52467C13.2693 3.65245 13.3332 3.81079 13.3332 3.99967C13.3332 4.18856 13.2693 4.3469 13.1415 4.47467C13.0137 4.60245 12.8554 4.66634 12.6665 4.66634H3.33317Z" fill="#9EA0AB" style="fill:#9EA0AB;fill:color(display-p3 0.6196 0.6275 0.6706);fill-opacity:1;"/>
</svg>
