<svg width="172" height="60" viewBox="0 0 172 60" fill="none" xmlns="http://www.w3.org/2000/svg">
<path d="M10 4.5H22C25.0376 4.5 27.5 6.96243 27.5 10V22C27.5 25.0376 25.0376 27.5 22 27.5H10C6.96243 27.5 4.5 25.0376 4.5 22V10C4.5 6.96243 6.96243 4.5 10 4.5Z" fill="#F9F2E7" style="fill:#F9F2E7;fill:color(display-p3 0.9765 0.9490 0.9059);fill-opacity:1;"/>
<path d="M10 4.5H22C25.0376 4.5 27.5 6.96243 27.5 10V22C27.5 25.0376 25.0376 27.5 22 27.5H10C6.96243 27.5 4.5 25.0376 4.5 22V10C4.5 6.96243 6.96243 4.5 10 4.5Z" stroke="url(#paint0_linear_1982_2730)" style=""/>
<path d="M12.8418 20V11.9971H16.3115C16.9202 11.9971 17.4323 12.0794 17.8477 12.2441C18.263 12.4089 18.5763 12.6416 18.7876 12.9424C18.9989 13.2396 19.1045 13.5905 19.1045 13.9951C19.1045 14.2887 19.04 14.5573 18.9111 14.8008C18.7822 15.0443 18.6014 15.2484 18.3687 15.4131C18.1395 15.5742 17.8691 15.6852 17.5576 15.7461V15.832C17.9014 15.8428 18.2129 15.9287 18.4922 16.0898C18.7751 16.2474 18.9989 16.4676 19.1636 16.7505C19.3319 17.0298 19.416 17.3574 19.416 17.7334C19.416 18.1702 19.3032 18.5605 19.0776 18.9043C18.8521 19.2445 18.5298 19.513 18.1108 19.71C17.6919 19.9033 17.1924 20 16.6123 20H12.8418ZM15.0117 18.2705H16.0322C16.3939 18.2705 16.666 18.2007 16.8486 18.061C17.0348 17.9214 17.1279 17.7191 17.1279 17.4541C17.1279 17.2643 17.085 17.105 16.999 16.9761C16.9131 16.8436 16.7896 16.7433 16.6284 16.6753C16.4709 16.6073 16.2829 16.5732 16.0645 16.5732H15.0117V18.2705ZM15.0117 15.2305H15.9033C16.0931 15.2305 16.2596 15.2018 16.4028 15.1445C16.5496 15.0837 16.6642 14.9977 16.7466 14.8867C16.8289 14.7721 16.8701 14.6325 16.8701 14.4678C16.8701 14.2243 16.7806 14.0363 16.6016 13.9038C16.4261 13.7713 16.2041 13.7051 15.9355 13.7051H15.0117V15.2305Z" fill="#2E2F38" style="fill:#2E2F38;fill:color(display-p3 0.1804 0.1843 0.2196);fill-opacity:1;"/>
<path d="M38 4.5H50C53.0376 4.5 55.5 6.96243 55.5 10V22C55.5 25.0376 53.0376 27.5 50 27.5H38C34.9624 27.5 32.5 25.0376 32.5 22V10C32.5 6.96243 34.9624 4.5 38 4.5Z" fill="#F9F2E7" style="fill:#F9F2E7;fill:color(display-p3 0.9765 0.9490 0.9059);fill-opacity:1;"/>
<path d="M38 4.5H50C53.0376 4.5 55.5 6.96243 55.5 10V22C55.5 25.0376 53.0376 27.5 50 27.5H38C34.9624 27.5 32.5 25.0376 32.5 22V10C32.5 6.96243 34.9624 4.5 38 4.5Z" stroke="url(#paint1_linear_1982_2730)" style=""/>
<path d="M43.9946 20.0967C43.3071 20.0967 42.7038 19.9767 42.1846 19.7368C41.6689 19.4933 41.2661 19.1496 40.9761 18.7056C40.6896 18.258 40.5464 17.7298 40.5464 17.1211V11.9971H42.7163V16.9385C42.7163 17.1891 42.7718 17.4111 42.8828 17.6045C42.9938 17.7943 43.1442 17.9447 43.334 18.0557C43.5273 18.1631 43.7476 18.2168 43.9946 18.2168C44.2453 18.2168 44.4673 18.1631 44.6606 18.0557C44.854 17.9447 45.0062 17.7943 45.1172 17.6045C45.2282 17.4111 45.2837 17.1891 45.2837 16.9385V11.9971H47.4536V17.1211C47.4536 17.7298 47.3086 18.258 47.0186 18.7056C46.7285 19.1496 46.3239 19.4933 45.8047 19.7368C45.2855 19.9767 44.6821 20.0967 43.9946 20.0967Z" fill="#2E2F38" style="fill:#2E2F38;fill:color(display-p3 0.1804 0.1843 0.2196);fill-opacity:1;"/>
<path d="M66 4.5H78C81.0376 4.5 83.5 6.96243 83.5 10V22C83.5 25.0376 81.0376 27.5 78 27.5H66C62.9624 27.5 60.5 25.0376 60.5 22V10C60.5 6.96243 62.9624 4.5 66 4.5Z" fill="#F9F2E7" style="fill:#F9F2E7;fill:color(display-p3 0.9765 0.9490 0.9059);fill-opacity:1;"/>
<path d="M66 4.5H78C81.0376 4.5 83.5 6.96243 83.5 10V22C83.5 25.0376 81.0376 27.5 78 27.5H66C62.9624 27.5 60.5 25.0376 60.5 22V10C60.5 6.96243 62.9624 4.5 66 4.5Z" stroke="url(#paint2_linear_1982_2730)" style=""/>
<path d="M68.729 20V18.7969L71.6938 14.8384C71.9266 14.5269 72.1862 14.2153 72.4727 13.9038C72.7627 13.5887 73.0563 13.2754 73.3535 12.9639L73.4878 13.6621C73.1047 13.7051 72.7215 13.7301 72.3384 13.7373C71.9552 13.7445 71.5721 13.748 71.189 13.748H68.7397V11.9971H75.271V13.2002L72.3706 17.0781C72.1271 17.404 71.855 17.7298 71.5542 18.0557C71.257 18.3815 70.9544 18.7074 70.6465 19.0332L70.5122 18.335C70.9276 18.292 71.3411 18.2669 71.7529 18.2598C72.1683 18.2526 72.5819 18.249 72.9937 18.249H75.2603V20H68.729Z" fill="#2E2F38" style="fill:#2E2F38;fill:color(display-p3 0.1804 0.1843 0.2196);fill-opacity:1;"/>
<path d="M94 4.5H106C109.038 4.5 111.5 6.96243 111.5 10V22C111.5 25.0376 109.038 27.5 106 27.5H94C90.9624 27.5 88.5 25.0376 88.5 22V10C88.5 6.96243 90.9624 4.5 94 4.5Z" fill="#F9F2E7" style="fill:#F9F2E7;fill:color(display-p3 0.9765 0.9490 0.9059);fill-opacity:1;"/>
<path d="M94 4.5H106C109.038 4.5 111.5 6.96243 111.5 10V22C111.5 25.0376 109.038 27.5 106 27.5H94C90.9624 27.5 88.5 25.0376 88.5 22V10C88.5 6.96243 90.9624 4.5 94 4.5Z" stroke="url(#paint3_linear_1982_2730)" style=""/>
<path d="M96.729 20V18.7969L99.6938 14.8384C99.9266 14.5269 100.186 14.2153 100.473 13.9038C100.763 13.5887 101.056 13.2754 101.354 12.9639L101.488 13.6621C101.105 13.7051 100.722 13.7301 100.338 13.7373C99.9552 13.7445 99.5721 13.748 99.189 13.748H96.7397V11.9971H103.271V13.2002L100.371 17.0781C100.127 17.404 99.855 17.7298 99.5542 18.0557C99.257 18.3815 98.9544 18.7074 98.6465 19.0332L98.5122 18.335C98.9276 18.292 99.3411 18.2669 99.7529 18.2598C100.168 18.2526 100.582 18.249 100.994 18.249H103.26V20H96.729Z" fill="#2E2F38" style="fill:#2E2F38;fill:color(display-p3 0.1804 0.1843 0.2196);fill-opacity:1;"/>
<rect x="4.5" y="32.5" width="23" height="23" rx="5.5" fill="white" style="fill:white;fill-opacity:1;"/>
<rect x="4.5" y="32.5" width="23" height="23" rx="5.5" stroke="url(#paint4_linear_1982_2730)" style=""/>
<path d="M12.4175 48L10.2959 39.9971H12.7236L13.3628 43.1016C13.4451 43.4919 13.5186 43.9198 13.583 44.3853C13.6475 44.8472 13.7101 45.3091 13.771 45.771C13.8354 46.2329 13.8999 46.6608 13.9644 47.0547H13.5347C13.6099 46.6608 13.6815 46.2329 13.7495 45.771C13.8175 45.3091 13.8874 44.8472 13.959 44.3853C14.0342 43.9198 14.1165 43.4919 14.2061 43.1016L14.915 39.9971H17.085L17.7939 43.1016C17.8835 43.4919 17.964 43.9198 18.0356 44.3853C18.1108 44.8472 18.1825 45.3091 18.2505 45.771C18.3185 46.2329 18.3901 46.6608 18.4653 47.0547H18.0303C18.0983 46.6608 18.1628 46.2329 18.2236 45.771C18.2845 45.3091 18.3472 44.8472 18.4116 44.3853C18.4797 43.9198 18.5531 43.4919 18.6318 43.1016L19.2764 39.9971H21.7041L19.5825 48H17.1279L16.333 44.7397C16.1969 44.1776 16.0877 43.5706 16.0054 42.9189C15.9266 42.2673 15.8299 41.6406 15.7153 41.0391H16.2847C16.1486 41.6406 16.0465 42.2655 15.9785 42.9136C15.9141 43.5617 15.812 44.1704 15.6724 44.7397L14.8721 48H12.4175Z" fill="#2E2F38" style="fill:#2E2F38;fill:color(display-p3 0.1804 0.1843 0.2196);fill-opacity:1;"/>
<rect x="32.5" y="32.5" width="23" height="23" rx="5.5" fill="white" style="fill:white;fill-opacity:1;"/>
<rect x="32.5" y="32.5" width="23" height="23" rx="5.5" stroke="url(#paint5_linear_1982_2730)" style=""/>
<path d="M44 48.1074C43.2731 48.1074 42.6143 47.9499 42.0234 47.6348C41.4362 47.3197 40.9707 46.8577 40.627 46.249C40.2832 45.6367 40.1113 44.8883 40.1113 44.0039C40.1113 43.1123 40.2832 42.3604 40.627 41.748C40.9707 41.1357 41.4362 40.6738 42.0234 40.3623C42.6143 40.0472 43.2731 39.8896 44 39.8896C44.7269 39.8896 45.384 40.0472 45.9712 40.3623C46.5584 40.6738 47.0239 41.1357 47.3677 41.748C47.715 42.3604 47.8887 43.1123 47.8887 44.0039C47.8887 44.8919 47.715 45.6421 47.3677 46.2544C47.0239 46.8631 46.5584 47.325 45.9712 47.6401C45.384 47.9517 44.7269 48.1074 44 48.1074ZM44 46.2168C44.3617 46.2168 44.6642 46.1326 44.9077 45.9644C45.1548 45.7925 45.341 45.5418 45.4663 45.2124C45.5916 44.883 45.6543 44.4801 45.6543 44.0039C45.6543 43.5241 45.5916 43.1195 45.4663 42.79C45.341 42.457 45.1548 42.2064 44.9077 42.0381C44.6642 41.8662 44.3617 41.7803 44 41.7803C43.6419 41.7803 43.3394 41.8662 43.0923 42.0381C42.8488 42.2064 42.6626 42.457 42.5337 42.79C42.4084 43.1195 42.3457 43.5241 42.3457 44.0039C42.3457 44.4801 42.4084 44.883 42.5337 45.2124C42.6626 45.5418 42.8488 45.7925 43.0923 45.9644C43.3394 46.1326 43.6419 46.2168 44 46.2168Z" fill="#2E2F38" style="fill:#2E2F38;fill:color(display-p3 0.1804 0.1843 0.2196);fill-opacity:1;"/>
<rect x="60.5" y="32.5" width="23" height="23" rx="5.5" fill="white" style="fill:white;fill-opacity:1;"/>
<rect x="60.5" y="32.5" width="23" height="23" rx="5.5" stroke="url(#paint6_linear_1982_2730)" style=""/>
<path d="M68.8418 48V39.9971H72.29C72.8844 39.9971 73.4036 40.1063 73.8477 40.3247C74.2952 40.5396 74.6426 40.8511 74.8896 41.2593C75.1403 41.6639 75.2656 42.1491 75.2656 42.7148C75.2656 43.2878 75.1385 43.7712 74.8843 44.165C74.63 44.5589 74.2738 44.8561 73.8154 45.0566C73.3571 45.2572 72.8236 45.3574 72.2148 45.3574H70.1523V43.6709H71.7744C72.0322 43.6709 72.2524 43.6387 72.4351 43.5742C72.6177 43.5098 72.7573 43.4077 72.854 43.2681C72.9507 43.1284 72.999 42.944 72.999 42.7148C72.999 42.4857 72.9507 42.2995 72.854 42.1562C72.7573 42.013 72.6177 41.9074 72.4351 41.8394C72.2524 41.7713 72.0322 41.7373 71.7744 41.7373H71.0117V48H68.8418ZM73.1709 48L71.2158 44.3262H73.5254L75.5342 48H73.1709Z" fill="#2E2F38" style="fill:#2E2F38;fill:color(display-p3 0.1804 0.1843 0.2196);fill-opacity:1;"/>
<rect x="88.5" y="32.5" width="23" height="23" rx="5.5" fill="white" style="fill:white;fill-opacity:1;"/>
<rect x="88.5" y="32.5" width="23" height="23" rx="5.5" stroke="url(#paint7_linear_1982_2730)" style=""/>
<path d="M99.624 48H97.4326V46.1523H99.5381C99.9355 46.1523 100.274 46.0897 100.553 45.9644C100.836 45.839 101.051 45.6206 101.198 45.3091C101.345 44.994 101.418 44.5589 101.418 44.0039C101.418 43.4453 101.343 43.0103 101.192 42.6987C101.042 42.3836 100.822 42.1634 100.532 42.0381C100.245 41.9092 99.8926 41.8447 99.4736 41.8447H97.4004V39.9971H99.5918C100.415 39.9971 101.126 40.1582 101.724 40.4805C102.322 40.7992 102.784 41.2575 103.11 41.8555C103.436 42.4535 103.599 43.1696 103.599 44.0039C103.599 44.8346 103.436 45.549 103.11 46.147C102.788 46.745 102.329 47.2033 101.735 47.522C101.14 47.8407 100.437 48 99.624 48ZM98.7109 39.9971V48H96.541V39.9971H98.7109Z" fill="#2E2F38" style="fill:#2E2F38;fill:color(display-p3 0.1804 0.1843 0.2196);fill-opacity:1;"/>
<rect x="116.5" y="32.5" width="23" height="23" rx="5.5" fill="white" style="fill:white;fill-opacity:1;"/>
<rect x="116.5" y="32.5" width="23" height="23" rx="5.5" stroke="url(#paint8_linear_1982_2730)" style=""/>
<path d="M128.107 48.0967C127.413 48.0967 126.806 47.9946 126.287 47.7905C125.771 47.5828 125.37 47.2642 125.083 46.8345C124.797 46.4048 124.652 45.8551 124.648 45.1855H126.711C126.725 45.429 126.786 45.6349 126.894 45.8032C127.005 45.9715 127.159 46.0986 127.355 46.1846C127.556 46.2705 127.796 46.3135 128.075 46.3135C128.308 46.3135 128.503 46.2848 128.661 46.2275C128.818 46.1702 128.936 46.0915 129.015 45.9912C129.097 45.8874 129.139 45.7692 129.139 45.6367C129.139 45.515 129.099 45.4093 129.021 45.3198C128.945 45.2267 128.82 45.1426 128.645 45.0674C128.469 44.9922 128.233 44.9242 127.936 44.8633L127.13 44.6914C126.424 44.541 125.868 44.285 125.459 43.9233C125.055 43.5581 124.853 43.0622 124.853 42.4355C124.853 41.9271 124.99 41.4831 125.266 41.1035C125.542 40.7204 125.921 40.4232 126.405 40.2119C126.892 39.9971 127.452 39.8896 128.086 39.8896C128.734 39.8896 129.293 39.9989 129.762 40.2173C130.234 40.4321 130.598 40.7365 130.852 41.1304C131.11 41.5207 131.241 41.9772 131.244 42.5H129.16C129.142 42.2386 129.046 42.0363 128.87 41.8931C128.698 41.7463 128.437 41.6729 128.086 41.6729C127.864 41.6729 127.681 41.6997 127.538 41.7534C127.395 41.8035 127.289 41.8752 127.221 41.9683C127.153 42.0614 127.119 42.167 127.119 42.2852C127.119 42.4105 127.155 42.5215 127.227 42.6182C127.302 42.7113 127.418 42.7936 127.576 42.8652C127.737 42.9333 127.943 42.9941 128.193 43.0479L128.849 43.1875C129.289 43.2806 129.667 43.4041 129.982 43.5581C130.301 43.7121 130.56 43.8929 130.761 44.1006C130.965 44.3047 131.113 44.5356 131.207 44.7935C131.303 45.0513 131.352 45.3324 131.352 45.6367C131.352 46.1631 131.221 46.6107 130.959 46.9795C130.702 47.3447 130.331 47.6222 129.848 47.812C129.364 48.0018 128.784 48.0967 128.107 48.0967Z" fill="#2E2F38" style="fill:#2E2F38;fill:color(display-p3 0.1804 0.1843 0.2196);fill-opacity:1;"/>
<rect x="144.5" y="32.5" width="23" height="23" rx="5.5" fill="white" style="fill:white;fill-opacity:1;"/>
<rect x="144.5" y="32.5" width="23" height="23" rx="5.5" stroke="url(#paint9_linear_1982_2730)" style=""/>
<path d="M155.022 45.4971L154.861 39.9971H157.139L156.978 45.4971H155.022ZM156 48.1289C155.653 48.1289 155.373 48.034 155.162 47.8442C154.954 47.6509 154.851 47.3895 154.851 47.0601C154.851 46.7306 154.954 46.471 155.162 46.2812C155.373 46.0879 155.653 45.9912 156 45.9912C156.351 45.9912 156.63 46.0879 156.838 46.2812C157.046 46.471 157.149 46.7306 157.149 47.0601C157.149 47.3895 157.046 47.6509 156.838 47.8442C156.63 48.034 156.351 48.1289 156 48.1289Z" fill="#2E2F38" style="fill:#2E2F38;fill:color(display-p3 0.1804 0.1843 0.2196);fill-opacity:1;"/>
<defs>
<linearGradient id="paint0_linear_1982_2730" x1="16" y1="4" x2="16" y2="28" gradientUnits="userSpaceOnUse">
<stop stop-color="#F3E1C5" style="stop-color:#F3E1C5;stop-color:color(display-p3 0.9529 0.8824 0.7725);stop-opacity:1;"/>
<stop offset="1" stop-color="#DDA846" style="stop-color:#DDA846;stop-color:color(display-p3 0.8667 0.6588 0.2745);stop-opacity:1;"/>
</linearGradient>
<linearGradient id="paint1_linear_1982_2730" x1="44" y1="4" x2="44" y2="28" gradientUnits="userSpaceOnUse">
<stop stop-color="#F3E1C5" style="stop-color:#F3E1C5;stop-color:color(display-p3 0.9529 0.8824 0.7725);stop-opacity:1;"/>
<stop offset="1" stop-color="#DDA846" style="stop-color:#DDA846;stop-color:color(display-p3 0.8667 0.6588 0.2745);stop-opacity:1;"/>
</linearGradient>
<linearGradient id="paint2_linear_1982_2730" x1="72" y1="4" x2="72" y2="28" gradientUnits="userSpaceOnUse">
<stop stop-color="#F3E1C5" style="stop-color:#F3E1C5;stop-color:color(display-p3 0.9529 0.8824 0.7725);stop-opacity:1;"/>
<stop offset="1" stop-color="#DDA846" style="stop-color:#DDA846;stop-color:color(display-p3 0.8667 0.6588 0.2745);stop-opacity:1;"/>
</linearGradient>
<linearGradient id="paint3_linear_1982_2730" x1="100" y1="4" x2="100" y2="28" gradientUnits="userSpaceOnUse">
<stop stop-color="#F3E1C5" style="stop-color:#F3E1C5;stop-color:color(display-p3 0.9529 0.8824 0.7725);stop-opacity:1;"/>
<stop offset="1" stop-color="#DDA846" style="stop-color:#DDA846;stop-color:color(display-p3 0.8667 0.6588 0.2745);stop-opacity:1;"/>
</linearGradient>
<linearGradient id="paint4_linear_1982_2730" x1="16" y1="32" x2="16" y2="56" gradientUnits="userSpaceOnUse">
<stop stop-color="#F2F3FB" style="stop-color:#F2F3FB;stop-color:color(display-p3 0.9490 0.9529 0.9843);stop-opacity:1;"/>
<stop offset="1" stop-color="#C9CAD6" style="stop-color:#C9CAD6;stop-color:color(display-p3 0.7882 0.7922 0.8392);stop-opacity:1;"/>
</linearGradient>
<linearGradient id="paint5_linear_1982_2730" x1="44" y1="32" x2="44" y2="56" gradientUnits="userSpaceOnUse">
<stop stop-color="#F2F3FB" style="stop-color:#F2F3FB;stop-color:color(display-p3 0.9490 0.9529 0.9843);stop-opacity:1;"/>
<stop offset="1" stop-color="#C9CAD6" style="stop-color:#C9CAD6;stop-color:color(display-p3 0.7882 0.7922 0.8392);stop-opacity:1;"/>
</linearGradient>
<linearGradient id="paint6_linear_1982_2730" x1="72" y1="32" x2="72" y2="56" gradientUnits="userSpaceOnUse">
<stop stop-color="#F2F3FB" style="stop-color:#F2F3FB;stop-color:color(display-p3 0.9490 0.9529 0.9843);stop-opacity:1;"/>
<stop offset="1" stop-color="#C9CAD6" style="stop-color:#C9CAD6;stop-color:color(display-p3 0.7882 0.7922 0.8392);stop-opacity:1;"/>
</linearGradient>
<linearGradient id="paint7_linear_1982_2730" x1="100" y1="32" x2="100" y2="56" gradientUnits="userSpaceOnUse">
<stop stop-color="#F2F3FB" style="stop-color:#F2F3FB;stop-color:color(display-p3 0.9490 0.9529 0.9843);stop-opacity:1;"/>
<stop offset="1" stop-color="#C9CAD6" style="stop-color:#C9CAD6;stop-color:color(display-p3 0.7882 0.7922 0.8392);stop-opacity:1;"/>
</linearGradient>
<linearGradient id="paint8_linear_1982_2730" x1="128" y1="32" x2="128" y2="56" gradientUnits="userSpaceOnUse">
<stop stop-color="#F2F3FB" style="stop-color:#F2F3FB;stop-color:color(display-p3 0.9490 0.9529 0.9843);stop-opacity:1;"/>
<stop offset="1" stop-color="#C9CAD6" style="stop-color:#C9CAD6;stop-color:color(display-p3 0.7882 0.7922 0.8392);stop-opacity:1;"/>
</linearGradient>
<linearGradient id="paint9_linear_1982_2730" x1="156" y1="32" x2="156" y2="56" gradientUnits="userSpaceOnUse">
<stop stop-color="#F2F3FB" style="stop-color:#F2F3FB;stop-color:color(display-p3 0.9490 0.9529 0.9843);stop-opacity:1;"/>
<stop offset="1" stop-color="#C9CAD6" style="stop-color:#C9CAD6;stop-color:color(display-p3 0.7882 0.7922 0.8392);stop-opacity:1;"/>
</linearGradient>
</defs>
</svg>
