<svg width="190" height="75" viewBox="0 0 190 75" fill="none" xmlns="http://www.w3.org/2000/svg">
<path d="M15.936 25.4957L16 25.4317H24.768C30.656 25.4317 33.6533 25.4957 33.76 25.6237C33.8027 25.7304 33.6107 27.0104 33.184 29.4637C32.7147 31.981 32.48 33.2504 32.48 33.2717C32.416 33.3784 32.128 33.4317 31.616 33.4317C31.104 33.4317 30.8267 33.3677 30.784 33.2397C30.7413 33.1544 30.7627 32.8344 30.848 32.2797C31.168 30.4664 31.2533 29.2397 31.104 28.5997C31.0827 28.3437 30.9547 28.1197 30.72 27.9277C30.528 27.7357 30.2507 27.5757 29.888 27.4477C29.44 27.2984 28.7253 27.2237 27.744 27.2237C26.7413 27.2237 26.1973 27.2877 26.112 27.4157L21.696 45.1117C21.8667 45.2184 22.688 45.2824 24.16 45.3037C25.1413 45.3037 25.6747 45.3784 25.76 45.5277C25.7813 45.5917 25.7493 45.837 25.664 46.2637C25.5573 46.669 25.4613 46.9144 25.376 46.9997L25.28 47.0957H24.704C21.9307 46.989 18.688 46.9784 14.976 47.0637C14.144 47.085 13.6853 47.021 13.6 46.8717C13.5787 46.8077 13.6107 46.5624 13.696 46.1357C13.8027 45.7304 13.8987 45.485 13.984 45.3997L14.08 45.3037H15.008C16.3947 45.3037 17.2587 45.2717 17.6 45.2077C17.8347 45.1437 17.9627 45.1117 17.984 45.1117C18.0907 45.069 18.1653 45.005 18.208 44.9197C18.3573 44.5997 19.1147 41.6664 20.48 36.1197C21.952 30.2317 22.6773 27.2877 22.656 27.2877C22.592 27.245 22.0267 27.2237 20.96 27.2237C20.192 27.245 19.7227 27.277 19.552 27.3197C19.04 27.405 18.6027 27.5437 18.24 27.7357C17.856 27.9277 17.5467 28.141 17.312 28.3757C16.7787 28.909 16.1813 30.1784 15.52 32.1837C15.264 32.8877 15.136 33.2504 15.136 33.2717C15.0507 33.3784 14.7627 33.4317 14.272 33.4317C13.76 33.4317 13.4827 33.3677 13.44 33.2397C13.3973 33.1544 13.376 33.101 13.376 33.0797L15.808 25.6557C15.808 25.5917 15.8507 25.5384 15.936 25.4957ZM36.3463 33.0157C36.7089 32.909 37.1676 32.9197 37.7223 33.0477C38.0636 33.133 38.4049 33.293 38.7463 33.5277C39.0876 33.7837 39.3329 34.0504 39.4823 34.3277L39.6103 34.5197L39.8983 34.2317C40.3036 33.869 40.7089 33.581 41.1143 33.3677C41.8823 32.9837 42.6716 32.8557 43.4823 32.9837C44.9116 33.2184 45.8076 33.8904 46.1703 34.9997C46.2769 35.3197 46.3196 35.661 46.2983 36.0237C46.2343 36.8344 45.9569 37.4317 45.4663 37.8157C44.7409 38.349 44.0689 38.445 43.4503 38.1037C43.1943 37.9757 43.0129 37.7837 42.9063 37.5277C42.8423 37.421 42.7996 37.2504 42.7783 37.0157C42.7783 36.653 42.8529 36.3224 43.0023 36.0237C43.2369 35.597 43.5249 35.309 43.8663 35.1597C43.9943 35.0957 44.0583 35.0424 44.0583 34.9997C43.9943 34.8717 43.7916 34.7437 43.4503 34.6157C43.0023 34.4237 42.5329 34.4024 42.0423 34.5517C41.2743 34.829 40.5383 35.661 39.8343 37.0477C39.7489 37.2184 39.3223 38.8077 38.5543 41.8157C37.7863 44.909 37.3383 46.5517 37.2103 46.7437C37.1889 46.7864 37.1356 46.8504 37.0503 46.9357C36.6023 47.3837 36.0796 47.5437 35.4823 47.4157C34.9489 47.2664 34.6609 46.9357 34.6183 46.4237C34.6183 46.2317 35.0236 44.5037 35.8343 41.2397C36.6663 38.0184 37.1036 36.2584 37.1463 35.9597C37.2103 35.405 37.1889 34.9997 37.0823 34.7437C36.9969 34.5944 36.8583 34.4984 36.6663 34.4557C36.5383 34.4557 36.4316 34.4877 36.3463 34.5517C36.1329 34.701 35.9303 34.957 35.7383 35.3197C35.5249 35.8317 35.2583 36.6957 34.9383 37.9117C34.8743 38.0397 34.8316 38.1144 34.8103 38.1357C34.7676 38.1784 34.5116 38.1997 34.0423 38.1997H33.3383L33.2423 38.1037C33.1783 38.0397 33.1463 37.9544 33.1463 37.8477L33.3383 37.0797C33.8929 35.2237 34.5756 34.0077 35.3863 33.4317C35.7276 33.2184 36.0476 33.0797 36.3463 33.0157ZM54.6463 32.9837L55.2863 32.9517H55.3183C55.7876 32.973 56.2036 33.0797 56.5663 33.2717C56.9289 33.4424 57.2489 33.677 57.5263 33.9757L57.7823 34.2317L57.9743 34.0717C58.4863 33.581 59.0409 33.453 59.6383 33.6877C59.9369 33.7944 60.1396 33.9757 60.2463 34.2317C60.3316 34.4664 60.3103 34.8824 60.1823 35.4797C60.0756 35.949 59.7449 37.2717 59.1903 39.4477C58.4223 42.5624 58.0276 44.1837 58.0063 44.3117C57.9209 44.909 57.9103 45.325 57.9743 45.5597C58.0169 45.6664 58.0809 45.7517 58.1663 45.8157C58.2303 45.8797 58.3263 45.9117 58.4543 45.9117C58.6036 45.9117 58.7209 45.8904 58.8063 45.8477C59.2116 45.549 59.6276 44.5784 60.0543 42.9357C60.1609 42.5304 60.2463 42.3064 60.3103 42.2637C60.3529 42.221 60.6089 42.1997 61.0783 42.1997C61.5476 42.1997 61.8143 42.221 61.8783 42.2637C61.9209 42.3064 61.9423 42.3917 61.9423 42.5197C61.9423 42.6477 61.8889 42.9037 61.7823 43.2877C60.9929 45.9757 59.8729 47.3624 58.4223 47.4477C57.3343 47.5117 56.4596 47.1384 55.7983 46.3277C55.6916 46.1997 55.5956 46.061 55.5103 45.9117C55.4676 45.7837 55.4356 45.7197 55.4143 45.7197L55.1903 45.9117C54.4436 46.573 53.7076 47.0104 52.9823 47.2237C51.5956 47.693 50.3476 47.4797 49.2383 46.5837C49.1103 46.477 48.9929 46.3597 48.8863 46.2317C48.5663 45.9117 48.2996 45.5277 48.0863 45.0797C47.4463 43.7784 47.3183 42.253 47.7023 40.5037C48.1929 38.1784 49.3023 36.2584 51.0303 34.7437C52.1823 33.741 53.3876 33.1544 54.6463 32.9837ZM55.3183 34.4877C54.4436 34.3384 53.6009 34.7544 52.7903 35.7357C52.5769 36.013 52.3849 36.3117 52.2143 36.6317C51.8943 37.2504 51.5103 38.4664 51.0623 40.2797C50.7849 41.3037 50.5823 42.1997 50.4543 42.9677C50.3689 43.693 50.3689 44.2477 50.4543 44.6317C50.6676 45.3784 51.0836 45.805 51.7023 45.9117C52.0649 45.9757 52.5023 45.901 53.0143 45.6877C53.7823 45.261 54.5076 44.5464 55.1903 43.5437L55.3503 43.3197L56.1503 40.1517L56.9503 36.9517L56.8863 36.6957C56.6943 35.4797 56.2143 34.7544 55.4463 34.5197C55.4036 34.4984 55.3609 34.4877 55.3183 34.4877ZM66.19 33.0157C66.5527 32.909 67.0113 32.9197 67.566 33.0477C68.078 33.1757 68.5153 33.4104 68.878 33.7517C69.198 34.0717 69.4113 34.381 69.518 34.6797L69.646 34.9357L69.902 34.7117C70.8193 33.7944 71.8647 33.2397 73.038 33.0477C73.806 32.8984 74.51 32.909 75.15 33.0797C75.982 33.2504 76.6113 33.613 77.038 34.1677C77.2727 34.4664 77.4647 34.861 77.614 35.3517C77.6567 35.5437 77.678 35.8957 77.678 36.4077C77.678 36.9624 77.6673 37.3144 77.646 37.4637C77.4113 38.6797 76.8353 40.5677 75.918 43.1277C75.5767 44.045 75.374 44.6744 75.31 45.0157C75.246 45.549 75.31 45.8477 75.502 45.9117C75.758 45.997 76.0567 45.9437 76.398 45.7517C77.0593 45.3464 77.614 44.3544 78.062 42.7757C78.1687 42.4344 78.2753 42.253 78.382 42.2317C78.446 42.2104 78.67 42.1997 79.054 42.1997C79.5233 42.1997 79.7793 42.221 79.822 42.2637C79.95 42.349 79.95 42.573 79.822 42.9357C79.5873 43.7677 79.2353 44.5464 78.766 45.2717C77.9127 46.5517 76.942 47.2664 75.854 47.4157C75.47 47.501 75.0753 47.4797 74.67 47.3517C74.0513 47.2237 73.582 46.9357 73.262 46.4877C72.8567 45.997 72.654 45.421 72.654 44.7597C72.654 44.3544 72.814 43.693 73.134 42.7757C74.1793 39.9597 74.766 37.965 74.894 36.7917C74.9793 36.2797 74.9687 35.7997 74.862 35.3517C74.7127 34.925 74.4993 34.6584 74.222 34.5517C74.0087 34.445 73.678 34.4237 73.23 34.4877C71.822 34.701 70.606 35.7677 69.582 37.6877L69.326 38.1357L68.302 42.1997C67.6193 44.9517 67.246 46.381 67.182 46.4877C66.9047 47.0424 66.446 47.3624 65.806 47.4477C65.6353 47.469 65.4753 47.4584 65.326 47.4157C64.7927 47.2664 64.5047 46.9357 64.462 46.4237C64.462 46.2317 64.8673 44.5037 65.678 41.2397C66.51 38.0184 66.9473 36.2584 66.99 35.9597C67.054 35.405 67.0327 34.9997 66.926 34.7437C66.8407 34.5944 66.702 34.4984 66.51 34.4557C66.382 34.4557 66.2753 34.4877 66.19 34.5517C65.87 34.7437 65.5713 35.2664 65.294 36.1197C65.1873 36.4184 65.0167 37.0157 64.782 37.9117C64.718 38.0397 64.6753 38.1144 64.654 38.1357C64.6113 38.1784 64.3553 38.1997 63.886 38.1997H63.182L63.086 38.1037C63.022 38.0397 62.99 37.9544 62.99 37.8477L63.182 37.1117C63.7153 35.2557 64.398 34.029 65.23 33.4317C65.5713 33.2184 65.8913 33.0797 66.19 33.0157ZM87.9668 33.0157C89.3961 32.8024 90.5268 33.101 91.3588 33.9117C91.5508 34.0824 91.7001 34.285 91.8068 34.5197C91.9988 34.8824 92.0948 35.277 92.0948 35.7037C92.0948 36.8557 91.6041 37.549 90.6228 37.7837C90.3668 37.8477 90.1214 37.8477 89.8868 37.7837C89.3321 37.6557 89.0334 37.3144 88.9908 36.7597C88.9908 36.4397 89.0548 36.141 89.1828 35.8637C89.3961 35.4797 89.6201 35.2344 89.8548 35.1277C89.9188 35.085 89.9614 35.053 89.9828 35.0317C89.9828 34.9464 89.7801 34.8077 89.3748 34.6157C88.9054 34.4237 88.4148 34.3917 87.9028 34.5197C87.1988 34.7117 86.6974 35.2024 86.3988 35.9917C86.3134 36.269 86.2708 36.557 86.2708 36.8557C86.3134 37.197 86.4201 37.4637 86.5908 37.6557C86.7401 37.8264 87.1454 37.9864 87.8068 38.1357C88.6174 38.3277 89.1508 38.4877 89.4068 38.6157C90.3028 39.0637 90.9001 39.757 91.1988 40.6957C91.3054 41.037 91.3588 41.4637 91.3588 41.9757C91.3374 42.4237 91.2414 42.925 91.0708 43.4797C90.9001 43.9917 90.6228 44.525 90.2388 45.0797C89.8548 45.613 89.4174 46.0504 88.9268 46.3917C88.1801 46.9037 87.3161 47.2344 86.3348 47.3837C85.7374 47.469 85.0868 47.4797 84.3828 47.4157C84.3401 47.3944 84.2974 47.3837 84.2548 47.3837C82.9961 47.1277 82.1321 46.6584 81.6628 45.9757C81.4068 45.5917 81.2574 45.2824 81.2148 45.0477C81.1721 44.9197 81.1508 44.6957 81.1508 44.3757C81.1294 43.9064 81.2148 43.4904 81.4068 43.1277C81.7054 42.4877 82.2174 42.1037 82.9427 41.9757C83.1561 41.9544 83.3374 41.9544 83.4868 41.9757C84.1481 42.0824 84.5321 42.4344 84.6388 43.0317C84.7454 43.6717 84.5108 44.269 83.9348 44.8237C83.8068 44.9304 83.6788 45.0157 83.5508 45.0797L83.3268 45.2077L83.5188 45.3357C83.8814 45.6344 84.3294 45.8157 84.8628 45.8797C85.9508 46.0504 86.8681 45.8477 87.6148 45.2717C88.0841 44.8877 88.4148 44.3544 88.6068 43.6717C88.6494 43.3517 88.6494 43.0424 88.6068 42.7437C88.4574 42.253 88.1161 41.901 87.5828 41.6877C87.3268 41.6024 86.9854 41.517 86.5588 41.4317C86.0254 41.325 85.6628 41.229 85.4708 41.1437C84.5534 40.8024 83.9454 40.109 83.6468 39.0637C83.6041 38.8717 83.5828 38.5624 83.5828 38.1357C83.5828 37.709 83.6041 37.389 83.6468 37.1757C83.9668 35.917 84.5321 34.9144 85.3428 34.1677C86.0468 33.5277 86.9214 33.1437 87.9668 33.0157Z" fill="black" style="fill:black;fill-opacity:1;"/>
<path d="M109.296 25.0797C110.96 24.9517 111.781 24.8877 111.76 24.8877C111.952 24.8877 112.08 24.9624 112.144 25.1117C112.165 25.197 111.397 28.3757 109.84 34.6477L107.408 44.3757C107.365 44.8664 107.365 45.261 107.408 45.5597C107.451 45.6664 107.515 45.7517 107.6 45.8157C107.664 45.8797 107.76 45.9117 107.888 45.9117C108.037 45.9117 108.155 45.8904 108.24 45.8477C108.645 45.549 109.061 44.5784 109.488 42.9357C109.595 42.5304 109.68 42.3064 109.744 42.2637C109.787 42.221 110.043 42.1997 110.512 42.1997C110.981 42.1997 111.248 42.221 111.312 42.2637C111.355 42.3064 111.376 42.3917 111.376 42.5197C111.376 42.6477 111.323 42.9037 111.216 43.2877C110.405 46.0397 109.232 47.4264 107.696 47.4477C107.547 47.4477 107.397 47.437 107.248 47.4157C105.925 47.245 105.083 46.5517 104.72 45.3357C104.592 44.8664 104.571 44.365 104.656 43.8317L106.672 35.7357C108.037 30.2744 108.677 27.4584 108.592 27.2877C108.443 27.1384 107.984 27.053 107.216 27.0317C106.704 27.0317 106.405 26.957 106.32 26.8077L106.288 26.7117L106.448 26.0717C106.533 25.6664 106.619 25.421 106.704 25.3357C106.768 25.2717 106.832 25.2397 106.896 25.2397L109.296 25.0797ZM120.428 32.9837L121.068 32.9517H121.1C121.569 32.973 121.985 33.0797 122.348 33.2717C122.71 33.4424 123.03 33.677 123.308 33.9757L123.564 34.2317L123.756 34.0717C124.268 33.581 124.822 33.453 125.42 33.6877C125.718 33.7944 125.921 33.9757 126.028 34.2317C126.113 34.4664 126.092 34.8824 125.964 35.4797C125.857 35.949 125.526 37.2717 124.972 39.4477C124.204 42.5624 123.809 44.1837 123.788 44.3117C123.702 44.909 123.692 45.325 123.756 45.5597C123.798 45.6664 123.862 45.7517 123.948 45.8157C124.012 45.8797 124.108 45.9117 124.236 45.9117C124.385 45.9117 124.502 45.8904 124.588 45.8477C124.993 45.549 125.409 44.5784 125.836 42.9357C125.942 42.5304 126.028 42.3064 126.092 42.2637C126.134 42.221 126.39 42.1997 126.86 42.1997C127.329 42.1997 127.596 42.221 127.66 42.2637C127.702 42.3064 127.724 42.3917 127.724 42.5197C127.724 42.6477 127.67 42.9037 127.564 43.2877C126.774 45.9757 125.654 47.3624 124.204 47.4477C123.116 47.5117 122.241 47.1384 121.58 46.3277C121.473 46.1997 121.377 46.061 121.292 45.9117C121.249 45.7837 121.217 45.7197 121.196 45.7197L120.972 45.9117C120.225 46.573 119.489 47.0104 118.764 47.2237C117.377 47.693 116.129 47.4797 115.02 46.5837C114.892 46.477 114.774 46.3597 114.668 46.2317C114.348 45.9117 114.081 45.5277 113.868 45.0797C113.228 43.7784 113.1 42.253 113.484 40.5037C113.974 38.1784 115.084 36.2584 116.812 34.7437C117.964 33.741 119.169 33.1544 120.428 32.9837ZM121.1 34.4877C120.225 34.3384 119.382 34.7544 118.572 35.7357C118.358 36.013 118.166 36.3117 117.996 36.6317C117.676 37.2504 117.292 38.4664 116.844 40.2797C116.566 41.3037 116.364 42.1997 116.236 42.9677C116.15 43.693 116.15 44.2477 116.236 44.6317C116.449 45.3784 116.865 45.805 117.484 45.9117C117.846 45.9757 118.284 45.901 118.796 45.6877C119.564 45.261 120.289 44.5464 120.972 43.5437L121.132 43.3197L121.932 40.1517L122.732 36.9517L122.668 36.6957C122.476 35.4797 121.996 34.7544 121.228 34.5197C121.185 34.4984 121.142 34.4877 121.1 34.4877ZM135.107 27.1277C135.406 27.021 135.715 27.0317 136.035 27.1597C136.313 27.2664 136.515 27.4477 136.643 27.7037C136.75 27.9384 136.718 28.3864 136.547 29.0477C136.483 29.325 136.345 29.9117 136.131 30.8077C135.683 32.4504 135.47 33.261 135.491 33.2397C135.491 33.2824 135.95 33.3037 136.867 33.3037H138.243L138.339 33.3997C138.467 33.485 138.467 33.7624 138.339 34.2317C138.275 34.5517 138.211 34.7757 138.147 34.9037C138.083 35.0104 137.881 35.0744 137.539 35.0957C137.39 35.0957 137.038 35.0957 136.483 35.0957H135.043L135.011 35.2237C133.582 40.7917 132.835 43.821 132.771 44.3117C132.729 44.5677 132.707 44.8024 132.707 45.0157C132.707 45.613 132.878 45.9224 133.219 45.9437C133.347 45.9437 133.497 45.9224 133.667 45.8797C133.966 45.8584 134.286 45.709 134.627 45.4317C135.374 44.8557 135.993 43.9277 136.483 42.6477C136.59 42.3917 136.707 42.253 136.835 42.2317C136.899 42.2104 137.113 42.1997 137.475 42.1997C137.945 42.1997 138.201 42.221 138.243 42.2637C138.371 42.3704 138.371 42.5837 138.243 42.9037C137.838 43.885 137.358 44.6957 136.803 45.3357C135.95 46.4237 134.969 47.0957 133.859 47.3517C133.689 47.3944 133.411 47.4157 133.027 47.4157C132.643 47.4157 132.377 47.3944 132.227 47.3517C131.63 47.181 131.15 46.925 130.787 46.5837C130.446 46.2424 130.201 45.8264 130.051 45.3357C130.009 45.165 129.987 44.877 129.987 44.4717V43.8637L131.075 39.5117C131.801 36.653 132.163 35.1917 132.163 35.1277C132.163 35.1064 131.715 35.0957 130.819 35.0957C129.881 35.0957 129.369 35.021 129.283 34.8717C129.241 34.8077 129.262 34.573 129.347 34.1677C129.475 33.741 129.55 33.517 129.571 33.4957C129.635 33.3677 129.859 33.3037 130.243 33.3037C130.393 33.3037 130.713 33.3037 131.203 33.3037H132.643L133.251 30.8077C133.657 29.165 133.913 28.237 134.019 28.0237C134.211 27.597 134.574 27.2984 135.107 27.1277ZM146.052 26.1677C146.82 25.9757 147.375 26.1677 147.716 26.7437C147.823 26.9357 147.887 27.149 147.908 27.3837C147.908 27.7037 147.834 28.013 147.684 28.3117C147.194 28.9944 146.575 29.389 145.828 29.4957C145.594 29.4957 145.348 29.4317 145.092 29.3037C144.879 29.197 144.708 29.005 144.58 28.7277C144.516 28.6424 144.474 28.4717 144.452 28.2157C144.452 27.8744 144.516 27.5757 144.644 27.3197C144.943 26.7224 145.412 26.3384 146.052 26.1677ZM143.3 33.0157C143.45 32.973 143.684 32.9517 144.004 32.9517C144.495 32.973 144.922 33.0797 145.284 33.2717C145.562 33.421 145.775 33.581 145.924 33.7517C146.095 33.901 146.255 34.1144 146.404 34.3917C146.596 34.797 146.682 35.2237 146.66 35.6717C146.66 36.0344 146.639 36.2904 146.596 36.4397C146.575 36.4824 146.095 37.8157 145.156 40.4397C144.26 42.829 143.78 44.1517 143.716 44.4077C143.503 45.1117 143.471 45.581 143.62 45.8157C143.727 45.9437 143.951 45.965 144.292 45.8797C145.124 45.6877 145.796 44.653 146.308 42.7757C146.415 42.4344 146.522 42.253 146.628 42.2317C146.692 42.2104 146.916 42.1997 147.3 42.1997C147.77 42.1997 148.026 42.221 148.068 42.2637C148.196 42.349 148.196 42.573 148.068 42.9357C147.834 43.7677 147.482 44.5464 147.012 45.2717C146.159 46.5517 145.188 47.2664 144.1 47.4157C143.716 47.501 143.322 47.4797 142.916 47.3517C142.49 47.2237 142.138 47.0637 141.86 46.8717C141.391 46.4877 141.082 45.9437 140.932 45.2397C140.847 44.8344 140.868 44.4077 140.996 43.9597C141.039 43.789 141.508 42.477 142.404 40.0237C143.172 37.9757 143.663 36.6317 143.876 35.9917C144.09 35.3304 144.122 34.8717 143.972 34.6157C143.908 34.445 143.684 34.413 143.3 34.5197C142.66 34.669 142.095 35.341 141.604 36.5357C141.327 37.4957 141.188 37.9544 141.188 37.9117C141.124 38.0397 141.082 38.1144 141.06 38.1357C141.018 38.1784 140.762 38.1997 140.292 38.1997H139.588L139.492 38.1037C139.428 38.0397 139.396 37.9544 139.396 37.8477C139.439 37.5064 139.62 36.973 139.94 36.2477C140.196 35.693 140.463 35.2344 140.74 34.8717C141.018 34.4877 141.37 34.1037 141.796 33.7197C142.266 33.357 142.767 33.1224 143.3 33.0157ZM158.041 32.9837C158.083 32.9624 158.307 32.9517 158.713 32.9517C159.289 32.973 159.801 33.0584 160.249 33.2077C162.019 33.805 163.118 35.0957 163.545 37.0797C163.587 37.3357 163.609 37.741 163.609 38.2957C163.63 38.9997 163.566 39.6397 163.417 40.2157C163.118 41.4104 162.606 42.5197 161.881 43.5437C160.558 45.3997 158.905 46.6157 156.921 47.1917C156.387 47.341 155.865 47.4264 155.353 47.4477C153.518 47.5117 152.11 46.8504 151.129 45.4637C151.001 45.3144 150.894 45.1544 150.809 44.9837C149.785 43.149 149.817 40.9944 150.905 38.5197C151.417 37.4104 152.099 36.429 152.953 35.5757C153.763 34.765 154.606 34.157 155.481 33.7517C156.334 33.325 157.187 33.069 158.041 32.9837ZM159.033 34.5197C158.585 34.4557 158.222 34.445 157.945 34.4877C156.899 34.6797 156.035 35.1917 155.353 36.0237C154.734 36.7704 154.201 38.0184 153.753 39.7677C153.71 39.917 153.667 40.0664 153.625 40.2157C153.283 41.6237 153.113 42.669 153.113 43.3517C153.113 43.7997 153.134 44.0984 153.177 44.2477C153.433 45.2504 154.051 45.805 155.033 45.9117C155.459 45.9544 155.907 45.901 156.377 45.7517C157.507 45.389 158.403 44.5677 159.065 43.2877C159.427 42.6264 159.79 41.5384 160.153 40.0237C160.622 38.1677 160.75 36.845 160.537 36.0557C160.323 35.2664 159.822 34.7544 159.033 34.5197ZM168.753 33.0157C169.115 32.909 169.574 32.9197 170.129 33.0477C170.641 33.1757 171.078 33.4104 171.441 33.7517C171.761 34.0717 171.974 34.381 172.081 34.6797L172.209 34.9357L172.465 34.7117C173.382 33.7944 174.427 33.2397 175.601 33.0477C176.369 32.8984 177.073 32.909 177.713 33.0797C178.545 33.2504 179.174 33.613 179.601 34.1677C179.835 34.4664 180.027 34.861 180.177 35.3517C180.219 35.5437 180.241 35.8957 180.241 36.4077C180.241 36.9624 180.23 37.3144 180.208 37.4637C179.974 38.6797 179.398 40.5677 178.481 43.1277C178.139 44.045 177.937 44.6744 177.873 45.0157C177.809 45.549 177.873 45.8477 178.065 45.9117C178.321 45.997 178.619 45.9437 178.961 45.7517C179.622 45.3464 180.177 44.3544 180.625 42.7757C180.731 42.4344 180.838 42.253 180.944 42.2317C181.009 42.2104 181.233 42.1997 181.617 42.1997C182.086 42.1997 182.342 42.221 182.385 42.2637C182.513 42.349 182.513 42.573 182.385 42.9357C182.15 43.7677 181.798 44.5464 181.329 45.2717C180.475 46.5517 179.505 47.2664 178.417 47.4157C178.033 47.501 177.638 47.4797 177.233 47.3517C176.614 47.2237 176.145 46.9357 175.825 46.4877C175.419 45.997 175.217 45.421 175.217 44.7597C175.217 44.3544 175.377 43.693 175.697 42.7757C176.742 39.9597 177.329 37.965 177.457 36.7917C177.542 36.2797 177.531 35.7997 177.425 35.3517C177.275 34.925 177.062 34.6584 176.785 34.5517C176.571 34.445 176.241 34.4237 175.793 34.4877C174.385 34.701 173.169 35.7677 172.145 37.6877L171.889 38.1357L170.865 42.1997C170.182 44.9517 169.809 46.381 169.745 46.4877C169.467 47.0424 169.009 47.3624 168.369 47.4477C168.198 47.469 168.038 47.4584 167.889 47.4157C167.355 47.2664 167.067 46.9357 167.025 46.4237C167.025 46.2317 167.43 44.5037 168.241 41.2397C169.073 38.0184 169.51 36.2584 169.553 35.9597C169.617 35.405 169.595 34.9997 169.489 34.7437C169.403 34.5944 169.265 34.4984 169.073 34.4557C168.945 34.4557 168.838 34.4877 168.753 34.5517C168.433 34.7437 168.134 35.2664 167.857 36.1197C167.75 36.4184 167.579 37.0157 167.345 37.9117C167.281 38.0397 167.238 38.1144 167.217 38.1357C167.174 38.1784 166.918 38.1997 166.449 38.1997H165.745L165.649 38.1037C165.585 38.0397 165.553 37.9544 165.553 37.8477L165.745 37.1117C166.278 35.2557 166.961 34.029 167.793 33.4317C168.134 33.2184 168.454 33.0797 168.753 33.0157Z" fill="black" style="fill:black;fill-opacity:1;"/>
<path d="M98.44 37.9357C98.9307 37.8504 99.368 37.9144 99.752 38.1277C100.435 38.5117 100.701 39.1197 100.552 39.9517C100.445 40.421 100.211 40.8477 99.848 41.2317C99.1227 41.9997 98.3333 42.2664 97.48 42.0317C97.224 41.9464 96.9893 41.8077 96.776 41.6157C96.2 41.0824 96.104 40.3784 96.488 39.5037C96.7653 38.9277 97.192 38.4904 97.768 38.1917C98.024 38.0637 98.248 37.9784 98.44 37.9357Z" fill="black" style="fill:black;fill-opacity:1;"/>
<path d="M69.4331 50.6309L70.244 51.2315C69.7103 54.0577 69.8634 57.3057 70.8074 60.9485L69.6154 62.4347C68.2395 60.1256 67.4896 58.1319 67.1891 56.5437C64.0277 61.9169 58.2484 65.2028 51.1589 64.7187C42.7465 64.1443 36.8594 58.5282 35.4016 50.9312L38.1492 51.1188C39.5431 57.655 44.4035 61.8378 51.3234 62.3103C57.3952 62.7249 62.2778 60.0934 64.9273 55.2306C63.3915 55.2621 61.3563 55.1231 58.9032 54.6148L60.0975 53.0946C63.7618 52.8336 66.8233 51.9181 69.4331 50.6309Z" fill="#FF0001" style="fill:#FF0001;fill:color(display-p3 1.0000 0.0000 0.0030);fill-opacity:1;"/>
<path d="M144.467 23.5155L145.321 22.9769C144.999 20.1188 145.394 16.8913 146.606 13.3289L145.528 11.758C143.984 13.9582 143.088 15.8906 142.67 17.4519C139.917 11.8583 134.399 8.15115 127.293 8.10594C118.861 8.05231 112.572 13.2144 110.553 20.6817L113.307 20.6992C115.184 14.285 120.342 10.4758 127.278 10.5199C133.364 10.5586 138.037 13.5464 140.317 18.593C138.788 18.4473 136.748 18.4343 134.263 18.7585L135.341 20.3634C138.976 20.8965 141.961 22.0375 144.467 23.5155Z" fill="#FF0001" style="fill:#FF0001;fill:color(display-p3 1.0000 0.0000 0.0030);fill-opacity:1;"/>
</svg>
