<svg width="147" height="54" viewBox="0 0 147 54" fill="none" xmlns="http://www.w3.org/2000/svg">
<path d="M23 39H22V36H23V37H24V38H25V39H31V38H32V37H33V36H34V30H33V29H32V28H31V27H25V28H24V29H23V31H22V25H23V19H24V13H25V7H26H31V4L10 4V7H16V31H15V29H14V28H13V27H7.00001V28H6.00001V29H5.00001V30H4L4.00001 36H5.00001V37H6.00001V38H7.00001V39H13V38H14V37H15V36H16V39H15V40H14V41H13V47H14V48H15V49H16V50H22V49H23V48H24V47H25V41H24V40H23V39Z" fill="black" style="fill:black;fill-opacity:1;"/>
<path fill-rule="evenodd" clip-rule="evenodd" d="M51 27V22H52V17H53V12H54V7H55H59V4H41V7H46V27H51ZM67 22V27H62L62 4H76V5H78V6H79V9H78V11H77V13H76V14H75V17H76V19H77V21H78V23H79V25H80V27H72V23H71V18H70V14H71V11H72V9H73V7H70V12H69V17H68V22H67ZM88 24H96V27L88 27L87 27L83 27L83 4H96V7H91V12H90V14H93V17L89 17V22H88V24ZM144 24H136V22H137V17L141 17V14H138V12H139V7H144V4H131L131 27L135 27L136 27L144 27V24ZM120 22H121V17H122V12H123V7H124V4H115L115 27L119 27L120 27L128 27V24H120V22ZM104 22V27H99L99 4H112V7H107V12H106V14H109V17L105 17V22H104Z" fill="black" style="fill:black;fill-opacity:1;"/>
</svg>
