<svg width="134" height="46" viewBox="0 0 134 46" fill="none" xmlns="http://www.w3.org/2000/svg">
<path d="M5.68359 23V6.99414H11.5059C12.7018 6.99414 13.7116 7.21257 14.5352 7.64941C15.3659 8.0791 15.9925 8.67708 16.415 9.44336C16.8447 10.2096 17.0596 11.0941 17.0596 12.0967C17.0596 13.0993 16.8411 13.9837 16.4043 14.75C15.9746 15.5163 15.3408 16.1178 14.5029 16.5547C13.6722 16.9915 12.6589 17.21 11.4629 17.21H7.24121V15.1367H11.3125C12.0573 15.1367 12.6732 15.0114 13.1602 14.7607C13.6543 14.5029 14.0231 14.1449 14.2666 13.6865C14.5173 13.2282 14.6426 12.6982 14.6426 12.0967C14.6426 11.4951 14.5173 10.9688 14.2666 10.5176C14.0231 10.0664 13.6543 9.71549 13.1602 9.46484C12.666 9.20703 12.0465 9.07812 11.3018 9.07812H8.11133V23H5.68359ZM22.5273 23.2256C21.7682 23.2256 21.0879 23.0931 20.4863 22.8281C19.8848 22.556 19.4049 22.1549 19.0469 21.625C18.696 21.0951 18.5205 20.4434 18.5205 19.6699C18.5205 19.0039 18.6494 18.4596 18.9072 18.0371C19.165 17.6074 19.5088 17.2673 19.9385 17.0166C20.3753 16.766 20.8659 16.5798 21.4102 16.458C21.9544 16.3291 22.513 16.2288 23.0859 16.1572C23.7949 16.0713 24.3643 16.0033 24.7939 15.9531C25.2236 15.8958 25.5352 15.8063 25.7285 15.6846C25.929 15.5628 26.0293 15.3623 26.0293 15.083V15.0078C26.0293 14.5924 25.9398 14.238 25.7607 13.9443C25.5889 13.6436 25.3311 13.4108 24.9873 13.2461C24.6436 13.0814 24.2246 12.999 23.7305 12.999C23.2292 12.999 22.7923 13.0814 22.4199 13.2461C22.0475 13.4036 21.7467 13.6113 21.5176 13.8691C21.2884 14.127 21.138 14.4098 21.0664 14.7178L18.832 14.4062C19.0039 13.6829 19.319 13.0778 19.7773 12.5908C20.2428 12.1038 20.8122 11.735 21.4854 11.4844C22.1657 11.2337 22.9105 11.1084 23.7197 11.1084C24.2998 11.1084 24.8656 11.18 25.417 11.3232C25.9684 11.4665 26.4626 11.6956 26.8994 12.0107C27.3363 12.3187 27.6836 12.7305 27.9414 13.2461C28.2064 13.7546 28.3389 14.3776 28.3389 15.1152V23H26.0723V21.3672H25.9863C25.8288 21.6751 25.6032 21.9723 25.3096 22.2588C25.0231 22.5452 24.6507 22.778 24.1924 22.957C23.734 23.1361 23.179 23.2256 22.5273 23.2256ZM23.0215 21.3672C23.6803 21.3672 24.2318 21.2454 24.6758 21.002C25.127 20.7513 25.4671 20.4255 25.6963 20.0244C25.9255 19.6162 26.04 19.1794 26.04 18.7139V17.2637C25.9541 17.3353 25.8037 17.4033 25.5889 17.4678C25.3812 17.5322 25.1341 17.5895 24.8477 17.6396C24.5684 17.6898 24.2819 17.7363 23.9883 17.7793C23.7018 17.8223 23.444 17.8581 23.2148 17.8867C22.7852 17.944 22.3877 18.0407 22.0225 18.1768C21.6572 18.3057 21.3636 18.4954 21.1416 18.7461C20.9268 18.9896 20.8193 19.3118 20.8193 19.7129C20.8193 20.0638 20.9124 20.3646 21.0986 20.6152C21.2848 20.8587 21.5426 21.0449 21.8721 21.1738C22.2015 21.3027 22.5846 21.3672 23.0215 21.3672ZM33.5596 6.99414V23H31.2393V6.99414H33.5596ZM36.46 23V11.291H38.7803V23H36.46ZM37.6309 9.40039C37.2227 9.40039 36.8753 9.26432 36.5889 8.99219C36.3096 8.72005 36.1699 8.39062 36.1699 8.00391C36.1699 7.61003 36.3096 7.2806 36.5889 7.01562C36.8753 6.74349 37.2191 6.60742 37.6201 6.60742C38.0355 6.60742 38.3828 6.74349 38.6621 7.01562C38.9486 7.2806 39.0918 7.61003 39.0918 8.00391C39.0918 8.39062 38.9486 8.72005 38.6621 8.99219C38.3757 9.26432 38.0319 9.40039 37.6309 9.40039ZM44.001 16.1465V23H41.6807V11.291H43.9258L43.9365 14.1699H43.5713C43.9294 13.1243 44.4378 12.3545 45.0967 11.8604C45.7627 11.359 46.5684 11.1084 47.5137 11.1084C48.3086 11.1084 49.014 11.2803 49.6299 11.624C50.2458 11.9606 50.7292 12.4655 51.0801 13.1387C51.431 13.8047 51.6064 14.6318 51.6064 15.6201V23H49.2861V15.9102C49.2861 15.0221 49.0641 14.3418 48.6201 13.8691C48.1761 13.3893 47.5602 13.1494 46.7725 13.1494C46.2497 13.1494 45.777 13.2604 45.3545 13.4824C44.9391 13.7044 44.6097 14.0374 44.3662 14.4814C44.1227 14.9255 44.001 15.4805 44.001 16.1465ZM58.9219 23.2363C57.9479 23.2363 57.085 22.9893 56.333 22.4951C55.5882 21.9938 55.0046 21.2884 54.582 20.3789C54.1595 19.4694 53.9482 18.3952 53.9482 17.1562C53.9482 15.9173 54.1595 14.8467 54.582 13.9443C55.0117 13.0348 55.599 12.3366 56.3438 11.8496C57.0957 11.3555 57.9551 11.1084 58.9219 11.1084C59.5592 11.1084 60.0999 11.2087 60.5439 11.4092C60.9951 11.6025 61.3711 11.8532 61.6719 12.1611C61.9727 12.4619 62.2126 12.777 62.3916 13.1064H62.4775V6.99414H64.7979V23H62.5312V21.1846H62.4131C62.2197 21.5212 61.9691 21.847 61.6611 22.1621C61.3604 22.4772 60.9844 22.735 60.5332 22.9355C60.0892 23.1361 59.5521 23.2363 58.9219 23.2363ZM59.416 21.249C60.082 21.249 60.6478 21.0771 61.1133 20.7334C61.5859 20.3896 61.944 19.9098 62.1875 19.2939C62.4382 18.6781 62.5635 17.9619 62.5635 17.1455C62.5635 16.3291 62.4382 15.6165 62.1875 15.0078C61.944 14.3991 61.5859 13.9264 61.1133 13.5898C60.6478 13.2533 60.082 13.085 59.416 13.085C58.7643 13.085 58.2057 13.2533 57.7402 13.5898C57.2819 13.9264 56.9274 14.3991 56.6768 15.0078C56.4333 15.6165 56.3115 16.3291 56.3115 17.1455C56.3115 17.9691 56.4333 18.6888 56.6768 19.3047C56.9274 19.9134 57.2855 20.3896 57.751 20.7334C58.2165 21.0771 58.7715 21.249 59.416 21.249ZM67.6982 23V11.291H69.9326V13.1709H70.0293C70.2441 12.5335 70.6022 12.0358 71.1035 11.6777C71.612 11.3125 72.2207 11.1299 72.9297 11.1299C73.0944 11.1299 73.2627 11.137 73.4346 11.1514C73.6064 11.1585 73.7461 11.1693 73.8535 11.1836V13.375C73.7676 13.3535 73.6064 13.3285 73.3701 13.2998C73.141 13.2712 72.8975 13.2568 72.6396 13.2568C72.1455 13.2568 71.6979 13.3643 71.2969 13.5791C70.903 13.7939 70.5915 14.1055 70.3623 14.5137C70.1331 14.9147 70.0186 15.4017 70.0186 15.9746V23H67.6982ZM80.4062 23.2578C79.3034 23.2578 78.3366 23.0036 77.5059 22.4951C76.6751 21.9795 76.027 21.2669 75.5615 20.3574C75.1032 19.4479 74.874 18.3916 74.874 17.1885C74.874 15.9782 75.1032 14.9147 75.5615 13.998C76.027 13.0814 76.6751 12.3688 77.5059 11.8604C78.3366 11.3447 79.3034 11.0869 80.4062 11.0869C81.5163 11.0869 82.4867 11.3447 83.3174 11.8604C84.1481 12.3688 84.7926 13.0814 85.251 13.998C85.7093 14.9147 85.9385 15.9782 85.9385 17.1885C85.9385 18.3916 85.7093 19.4479 85.251 20.3574C84.7926 21.2669 84.1481 21.9795 83.3174 22.4951C82.4867 23.0036 81.5163 23.2578 80.4062 23.2578ZM80.4062 21.2705C81.1009 21.2705 81.6846 21.0951 82.1572 20.7441C82.6299 20.3861 82.9844 19.8991 83.2207 19.2832C83.4642 18.6602 83.5859 17.9619 83.5859 17.1885C83.5859 16.4007 83.4642 15.6989 83.2207 15.083C82.9844 14.46 82.6299 13.9694 82.1572 13.6113C81.6846 13.2533 81.1009 13.0742 80.4062 13.0742C79.7188 13.0742 79.1387 13.2533 78.666 13.6113C78.1934 13.9694 77.8353 14.4564 77.5918 15.0723C77.3555 15.6882 77.2373 16.3936 77.2373 17.1885C77.2373 17.9691 77.3555 18.6673 77.5918 19.2832C77.8353 19.8991 78.1898 20.3861 78.6553 20.7441C79.1279 21.0951 79.7116 21.2705 80.4062 21.2705ZM88.3018 23V11.291H90.5361L90.5684 13.9014H90.375C90.5612 13.264 90.8333 12.7376 91.1914 12.3223C91.5566 11.9069 91.9756 11.5954 92.4482 11.3877C92.9209 11.18 93.4186 11.0762 93.9414 11.0762C94.8151 11.0762 95.5384 11.3376 96.1113 11.8604C96.6914 12.3831 97.0674 13.0778 97.2393 13.9443H96.917C97.0745 13.3571 97.3395 12.8486 97.7119 12.4189C98.0843 11.9893 98.5355 11.6598 99.0654 11.4307C99.6025 11.1943 100.186 11.0762 100.816 11.0762C101.518 11.0762 102.156 11.2301 102.729 11.5381C103.301 11.8389 103.756 12.2936 104.093 12.9023C104.437 13.5111 104.608 14.2702 104.608 15.1797V23H102.277V15.4053C102.277 14.596 102.052 14.0124 101.601 13.6543C101.157 13.2891 100.627 13.1064 100.011 13.1064C99.5166 13.1064 99.0869 13.2139 98.7217 13.4287C98.3636 13.6364 98.0843 13.9264 97.8838 14.2988C97.6904 14.6641 97.5938 15.0902 97.5938 15.5771V23H95.3057V15.2441C95.3057 14.5996 95.098 14.084 94.6826 13.6973C94.2673 13.3034 93.7409 13.1064 93.1035 13.1064C92.6667 13.1064 92.2585 13.2103 91.8789 13.418C91.4993 13.6185 91.195 13.9193 90.9658 14.3203C90.7367 14.7214 90.6221 15.2191 90.6221 15.8135V23H88.3018ZM112.536 23.2578C111.383 23.2578 110.388 23.0036 109.55 22.4951C108.719 21.9795 108.078 21.2669 107.627 20.3574C107.176 19.4479 106.95 18.3952 106.95 17.1992C106.95 16.0033 107.176 14.9469 107.627 14.0303C108.085 13.1064 108.719 12.3867 109.528 11.8711C110.345 11.3483 111.294 11.0869 112.375 11.0869C113.113 11.0869 113.804 11.2122 114.448 11.4629C115.093 11.7135 115.659 12.0895 116.146 12.5908C116.632 13.0921 117.012 13.7188 117.284 14.4707C117.563 15.2155 117.703 16.082 117.703 17.0703V17.8115H108.143V16.0713H116.5L115.447 16.6299C115.447 15.9066 115.326 15.2764 115.082 14.7393C114.846 14.195 114.498 13.7725 114.04 13.4717C113.589 13.1637 113.037 13.0098 112.386 13.0098C111.734 13.0098 111.175 13.1637 110.71 13.4717C110.244 13.7796 109.886 14.195 109.636 14.7178C109.385 15.2406 109.26 15.8314 109.26 16.4902V17.5859C109.26 18.3594 109.392 19.029 109.657 19.5947C109.929 20.1533 110.312 20.583 110.807 20.8838C111.301 21.1774 111.888 21.3242 112.568 21.3242C113.034 21.3242 113.449 21.2562 113.814 21.1201C114.187 20.984 114.498 20.7835 114.749 20.5186C115.007 20.2536 115.2 19.9385 115.329 19.5732L117.531 19.8633C117.359 20.5365 117.041 21.1273 116.575 21.6357C116.117 22.1442 115.544 22.5417 114.856 22.8281C114.169 23.1146 113.396 23.2578 112.536 23.2578ZM124.277 23.2578C123.411 23.2578 122.634 23.1253 121.946 22.8604C121.266 22.5954 120.707 22.2051 120.271 21.6895C119.841 21.1738 119.576 20.5365 119.476 19.7773L121.71 19.5195C121.832 20.1426 122.107 20.6117 122.537 20.9268C122.974 21.2347 123.55 21.3887 124.267 21.3887C125.011 21.3887 125.599 21.2383 126.028 20.9375C126.465 20.6296 126.684 20.25 126.684 19.7988C126.684 19.4121 126.54 19.097 126.254 18.8535C125.975 18.61 125.563 18.431 125.019 18.3164L123.063 17.876C121.975 17.6325 121.155 17.2386 120.604 16.6943C120.059 16.1429 119.787 15.4411 119.787 14.5889C119.787 13.8942 119.977 13.2855 120.356 12.7627C120.736 12.2327 121.266 11.821 121.946 11.5273C122.627 11.2337 123.411 11.0869 124.299 11.0869C125.158 11.0869 125.903 11.2266 126.533 11.5059C127.171 11.778 127.683 12.1611 128.069 12.6553C128.456 13.1494 128.7 13.7331 128.8 14.4062L126.662 14.6641C126.569 14.1842 126.329 13.776 125.942 13.4395C125.556 13.0957 125.015 12.9238 124.32 12.9238C123.669 12.9238 123.135 13.0742 122.72 13.375C122.312 13.6686 122.107 14.041 122.107 14.4922C122.107 14.8789 122.254 15.194 122.548 15.4375C122.841 15.681 123.282 15.8708 123.869 16.0068L125.803 16.4365C126.913 16.6872 127.733 17.0739 128.263 17.5967C128.793 18.1195 129.058 18.7962 129.058 19.627C129.058 20.3574 128.854 20.9948 128.445 21.5391C128.037 22.0833 127.471 22.5059 126.748 22.8066C126.032 23.1074 125.208 23.2578 124.277 23.2578Z" fill="black" style="fill:black;fill-opacity:1;"/>
<path d="M16 30.5H22C23.3807 30.5 24.5 31.6193 24.5 33V39C24.5 40.3807 23.3807 41.5 22 41.5H16C14.6193 41.5 13.5 40.3807 13.5 39V33C13.5 31.6193 14.6193 30.5 16 30.5Z" fill="#EDF5EB" style="fill:#EDF5EB;fill:color(display-p3 0.9294 0.9608 0.9216);fill-opacity:1;"/>
<path d="M16 30.5H22C23.3807 30.5 24.5 31.6193 24.5 33V39C24.5 40.3807 23.3807 41.5 22 41.5H16C14.6193 41.5 13.5 40.3807 13.5 39V33C13.5 31.6193 14.6193 30.5 16 30.5Z" stroke="#ACD6A3" style="stroke:#ACD6A3;stroke:color(display-p3 0.6745 0.8392 0.6392);stroke-opacity:1;"/>
<g clip-path="url(#clip0_2005_8804)">
<path d="M17.25 38.25C17.1125 38.25 16.9948 38.201 16.8969 38.1031C16.799 38.0052 16.75 37.8875 16.75 37.75V34.25C16.75 34.1125 16.799 33.9948 16.8969 33.8969C16.9948 33.799 17.1125 33.75 17.25 33.75H20.75C20.8875 33.75 21.0052 33.799 21.1031 33.8969C21.201 33.9948 21.25 34.1125 21.25 34.25V37.75C21.25 37.8875 21.201 38.0052 21.1031 38.1031C21.0052 38.201 20.8875 38.25 20.75 38.25H17.25Z" fill="#ACD6A3" style="fill:#ACD6A3;fill:color(display-p3 0.6745 0.8392 0.6392);fill-opacity:1;"/>
</g>
<path d="M32 30.5H38C39.3807 30.5 40.5 31.6193 40.5 33V39C40.5 40.3807 39.3807 41.5 38 41.5H32C30.6193 41.5 29.5 40.3807 29.5 39V33C29.5 31.6193 30.6193 30.5 32 30.5Z" fill="#E9F5FE" style="fill:#E9F5FE;fill:color(display-p3 0.9137 0.9608 0.9961);fill-opacity:1;"/>
<path d="M32 30.5H38C39.3807 30.5 40.5 31.6193 40.5 33V39C40.5 40.3807 39.3807 41.5 38 41.5H32C30.6193 41.5 29.5 40.3807 29.5 39V33C29.5 31.6193 30.6193 30.5 32 30.5Z" stroke="#98D1FA" style="stroke:#98D1FA;stroke:color(display-p3 0.5961 0.8196 0.9804);stroke-opacity:1;"/>
<path d="M32.9501 38C32.8542 38 32.7813 37.9573 32.7313 37.8719C32.6813 37.7865 32.6834 37.7021 32.7376 37.6188L34.7876 34.3375C34.8376 34.2583 34.9084 34.2188 35.0001 34.2188C35.0917 34.2188 35.1626 34.2583 35.2126 34.3375L37.2626 37.6188C37.3167 37.7021 37.3188 37.7865 37.2688 37.8719C37.2188 37.9573 37.1459 38 37.0501 38H32.9501Z" fill="#98D1FA" style="fill:#98D1FA;fill:color(display-p3 0.5961 0.8196 0.9804);fill-opacity:1;"/>
<path d="M48 30.5H54C55.3807 30.5 56.5 31.6193 56.5 33V39C56.5 40.3807 55.3807 41.5 54 41.5H48C46.6193 41.5 45.5 40.3807 45.5 39V33C45.5 31.6193 46.6193 30.5 48 30.5Z" fill="#F9F2E7" style="fill:#F9F2E7;fill:color(display-p3 0.9765 0.9490 0.9059);fill-opacity:1;"/>
<path d="M48 30.5H54C55.3807 30.5 56.5 31.6193 56.5 33V39C56.5 40.3807 55.3807 41.5 54 41.5H48C46.6193 41.5 45.5 40.3807 45.5 39V33C45.5 31.6193 46.6193 30.5 48 30.5Z" stroke="#E8C68E" style="stroke:#E8C68E;stroke:color(display-p3 0.9098 0.7765 0.5569);stroke-opacity:1;"/>
<path d="M51.0001 37.0749L50.0751 37.7812C50.0292 37.8187 49.9792 37.8364 49.9251 37.8343C49.8709 37.8322 49.823 37.8166 49.7813 37.7874C49.7397 37.7582 49.7074 37.7187 49.6845 37.6687C49.6615 37.6187 49.6605 37.5645 49.6813 37.5062L50.0376 36.3499L49.1313 35.7062C49.0813 35.6728 49.0501 35.6291 49.0376 35.5749C49.0251 35.5207 49.0272 35.4707 49.0438 35.4249C49.0605 35.3791 49.0897 35.3384 49.1313 35.303C49.173 35.2676 49.223 35.2499 49.2813 35.2499H50.4001L50.7626 34.0499C50.7834 33.9916 50.8157 33.9468 50.8595 33.9155C50.9032 33.8843 50.9501 33.8687 51.0001 33.8687C51.0501 33.8687 51.097 33.8843 51.1407 33.9155C51.1845 33.9468 51.2167 33.9916 51.2376 34.0499L51.6001 35.2499H52.7188C52.7772 35.2499 52.8272 35.2676 52.8688 35.303C52.9105 35.3384 52.9397 35.3791 52.9563 35.4249C52.973 35.4707 52.9751 35.5207 52.9626 35.5749C52.9501 35.6291 52.9188 35.6728 52.8688 35.7062L51.9626 36.3499L52.3188 37.5062C52.3397 37.5645 52.3386 37.6187 52.3157 37.6687C52.2928 37.7187 52.2605 37.7582 52.2188 37.7874C52.1772 37.8166 52.1292 37.8322 52.0751 37.8343C52.0209 37.8364 51.9709 37.8187 51.9251 37.7812L51.0001 37.0749Z" fill="#E8C68E" style="fill:#E8C68E;fill:color(display-p3 0.9098 0.7765 0.5569);fill-opacity:1;"/>
<path d="M64 30.5H70C71.3807 30.5 72.5 31.6193 72.5 33V39C72.5 40.3807 71.3807 41.5 70 41.5H64C62.6193 41.5 61.5 40.3807 61.5 39V33C61.5 31.6193 62.6193 30.5 64 30.5Z" fill="#FFF0EF" style="fill:#FFF0EF;fill:color(display-p3 1.0000 0.9412 0.9373);fill-opacity:1;"/>
<path d="M64 30.5H70C71.3807 30.5 72.5 31.6193 72.5 33V39C72.5 40.3807 71.3807 41.5 70 41.5H64C62.6193 41.5 61.5 40.3807 61.5 39V33C61.5 31.6193 62.6193 30.5 64 30.5Z" stroke="#FFB9B8" style="stroke:#FFB9B8;stroke:color(display-p3 1.0000 0.7255 0.7216);stroke-opacity:1;"/>
<g clip-path="url(#clip1_2005_8804)">
<path d="M67 38.0813C66.9417 38.0813 66.8823 38.0709 66.8219 38.0501C66.7615 38.0293 66.7083 37.9959 66.6625 37.9501L66.2313 37.5563C65.7896 37.1522 65.3906 36.7511 65.0344 36.3532C64.6781 35.9553 64.5 35.5168 64.5 35.0376C64.5 34.6459 64.6313 34.3188 64.8938 34.0563C65.1563 33.7938 65.4833 33.6626 65.875 33.6626C66.0958 33.6626 66.3042 33.7095 66.5 33.8032C66.6958 33.897 66.8625 34.0251 67 34.1876C67.1375 34.0251 67.3042 33.897 67.5 33.8032C67.6958 33.7095 67.9042 33.6626 68.125 33.6626C68.5167 33.6626 68.8438 33.7938 69.1063 34.0563C69.3688 34.3188 69.5 34.6459 69.5 35.0376C69.5 35.5168 69.3229 35.9563 68.9688 36.3563C68.6146 36.7563 68.2125 37.1584 67.7625 37.5626L67.3375 37.9501C67.2917 37.9959 67.2385 38.0293 67.1781 38.0501C67.1177 38.0709 67.0583 38.0813 67 38.0813Z" fill="#FFB9B8" style="fill:#FFB9B8;fill:color(display-p3 1.0000 0.7255 0.7216);fill-opacity:1;"/>
</g>
<path d="M80 30.5H86C87.3807 30.5 88.5 31.6193 88.5 33V39C88.5 40.3807 87.3807 41.5 86 41.5H80C78.6193 41.5 77.5 40.3807 77.5 39V33C77.5 31.6193 78.6193 30.5 80 30.5Z" fill="#F9F2E7" style="fill:#F9F2E7;fill:color(display-p3 0.9765 0.9490 0.9059);fill-opacity:1;"/>
<path d="M80 30.5H86C87.3807 30.5 88.5 31.6193 88.5 33V39C88.5 40.3807 87.3807 41.5 86 41.5H80C78.6193 41.5 77.5 40.3807 77.5 39V33C77.5 31.6193 78.6193 30.5 80 30.5Z" stroke="#E8C68E" style="stroke:#E8C68E;stroke:color(display-p3 0.9098 0.7765 0.5569);stroke-opacity:1;"/>
<path d="M83.0001 37.0749L82.0751 37.7812C82.0292 37.8187 81.9792 37.8364 81.9251 37.8343C81.8709 37.8322 81.823 37.8166 81.7813 37.7874C81.7397 37.7582 81.7074 37.7187 81.6845 37.6687C81.6615 37.6187 81.6605 37.5645 81.6813 37.5062L82.0376 36.3499L81.1313 35.7062C81.0813 35.6728 81.0501 35.6291 81.0376 35.5749C81.0251 35.5207 81.0272 35.4707 81.0438 35.4249C81.0605 35.3791 81.0897 35.3384 81.1313 35.303C81.173 35.2676 81.223 35.2499 81.2813 35.2499H82.4001L82.7626 34.0499C82.7834 33.9916 82.8157 33.9468 82.8595 33.9155C82.9032 33.8843 82.9501 33.8687 83.0001 33.8687C83.0501 33.8687 83.097 33.8843 83.1407 33.9155C83.1845 33.9468 83.2167 33.9916 83.2376 34.0499L83.6001 35.2499H84.7188C84.7772 35.2499 84.8272 35.2676 84.8688 35.303C84.9105 35.3384 84.9397 35.3791 84.9563 35.4249C84.973 35.4707 84.9751 35.5207 84.9626 35.5749C84.9501 35.6291 84.9188 35.6728 84.8688 35.7062L83.9626 36.3499L84.3188 37.5062C84.3397 37.5645 84.3386 37.6187 84.3157 37.6687C84.2928 37.7187 84.2605 37.7582 84.2188 37.7874C84.1772 37.8166 84.1292 37.8322 84.0751 37.8343C84.0209 37.8364 83.9709 37.8187 83.9251 37.7812L83.0001 37.0749Z" fill="#E8C68E" style="fill:#E8C68E;fill:color(display-p3 0.9098 0.7765 0.5569);fill-opacity:1;"/>
<path d="M96 30.5H102C103.381 30.5 104.5 31.6193 104.5 33V39C104.5 40.3807 103.381 41.5 102 41.5H96C94.6193 41.5 93.5 40.3807 93.5 39V33C93.5 31.6193 94.6193 30.5 96 30.5Z" fill="#E9F5FE" style="fill:#E9F5FE;fill:color(display-p3 0.9137 0.9608 0.9961);fill-opacity:1;"/>
<path d="M96 30.5H102C103.381 30.5 104.5 31.6193 104.5 33V39C104.5 40.3807 103.381 41.5 102 41.5H96C94.6193 41.5 93.5 40.3807 93.5 39V33C93.5 31.6193 94.6193 30.5 96 30.5Z" stroke="#98D1FA" style="stroke:#98D1FA;stroke:color(display-p3 0.5961 0.8196 0.9804);stroke-opacity:1;"/>
<path d="M96.9501 38C96.8542 38 96.7813 37.9573 96.7313 37.8719C96.6813 37.7865 96.6834 37.7021 96.7376 37.6188L98.7876 34.3375C98.8376 34.2583 98.9084 34.2188 99.0001 34.2188C99.0917 34.2188 99.1626 34.2583 99.2126 34.3375L101.263 37.6188C101.317 37.7021 101.319 37.7865 101.269 37.8719C101.219 37.9573 101.146 38 101.05 38H96.9501Z" fill="#98D1FA" style="fill:#98D1FA;fill:color(display-p3 0.5961 0.8196 0.9804);fill-opacity:1;"/>
<path d="M112 30.5H118C119.381 30.5 120.5 31.6193 120.5 33V39C120.5 40.3807 119.381 41.5 118 41.5H112C110.619 41.5 109.5 40.3807 109.5 39V33C109.5 31.6193 110.619 30.5 112 30.5Z" fill="#EDF5EB" style="fill:#EDF5EB;fill:color(display-p3 0.9294 0.9608 0.9216);fill-opacity:1;"/>
<path d="M112 30.5H118C119.381 30.5 120.5 31.6193 120.5 33V39C120.5 40.3807 119.381 41.5 118 41.5H112C110.619 41.5 109.5 40.3807 109.5 39V33C109.5 31.6193 110.619 30.5 112 30.5Z" stroke="#ACD6A3" style="stroke:#ACD6A3;stroke:color(display-p3 0.6745 0.8392 0.6392);stroke-opacity:1;"/>
<g clip-path="url(#clip2_2005_8804)">
<path d="M113.25 38.25C113.113 38.25 112.995 38.201 112.897 38.1031C112.799 38.0052 112.75 37.8875 112.75 37.75V34.25C112.75 34.1125 112.799 33.9948 112.897 33.8969C112.995 33.799 113.113 33.75 113.25 33.75H116.75C116.888 33.75 117.005 33.799 117.103 33.8969C117.201 33.9948 117.25 34.1125 117.25 34.25V37.75C117.25 37.8875 117.201 38.0052 117.103 38.1031C117.005 38.201 116.888 38.25 116.75 38.25H113.25Z" fill="#ACD6A3" style="fill:#ACD6A3;fill:color(display-p3 0.6745 0.8392 0.6392);fill-opacity:1;"/>
</g>
<defs>
<clipPath id="clip0_2005_8804">
<rect width="6" height="6" fill="white" style="fill:white;fill-opacity:1;" transform="translate(16 33)"/>
</clipPath>
<clipPath id="clip1_2005_8804">
<rect width="6" height="6" fill="white" style="fill:white;fill-opacity:1;" transform="translate(64 33)"/>
</clipPath>
<clipPath id="clip2_2005_8804">
<rect width="6" height="6" fill="white" style="fill:white;fill-opacity:1;" transform="translate(112 33)"/>
</clipPath>
</defs>
</svg>
