<svg width="281" height="82" viewBox="0 0 281 82" fill="none" xmlns="http://www.w3.org/2000/svg">
<rect x="32.5" y="0.5" width="9" height="9" rx="1.5" fill="white" style="fill:white;fill-opacity:1;"/>
<rect x="32.5" y="0.5" width="9" height="9" rx="1.5" stroke="#C9CAD6" style="stroke:#C9CAD6;stroke:color(display-p3 0.7882 0.7922 0.8392);stroke-opacity:1;"/>
<rect x="44.5" y="0.5" width="9" height="9" rx="1.5" fill="white" style="fill:white;fill-opacity:1;"/>
<rect x="44.5" y="0.5" width="9" height="9" rx="1.5" stroke="#C9CAD6" style="stroke:#C9CAD6;stroke:color(display-p3 0.7882 0.7922 0.8392);stroke-opacity:1;"/>
<rect x="56.5" y="0.5" width="9" height="9" rx="1.5" fill="white" style="fill:white;fill-opacity:1;"/>
<rect x="56.5" y="0.5" width="9" height="9" rx="1.5" stroke="#C9CAD6" style="stroke:#C9CAD6;stroke:color(display-p3 0.7882 0.7922 0.8392);stroke-opacity:1;"/>
<rect x="68.5" y="0.5" width="9" height="9" rx="1.5" fill="white" style="fill:white;fill-opacity:1;"/>
<rect x="68.5" y="0.5" width="9" height="9" rx="1.5" stroke="#C9CAD6" style="stroke:#C9CAD6;stroke:color(display-p3 0.7882 0.7922 0.8392);stroke-opacity:1;"/>
<rect x="80.5" y="0.5" width="9" height="9" rx="1.5" fill="white" style="fill:white;fill-opacity:1;"/>
<rect x="80.5" y="0.5" width="9" height="9" rx="1.5" stroke="#C9CAD6" style="stroke:#C9CAD6;stroke:color(display-p3 0.7882 0.7922 0.8392);stroke-opacity:1;"/>
<rect x="92.5" y="0.5" width="9" height="9" rx="1.5" fill="white" style="fill:white;fill-opacity:1;"/>
<rect x="92.5" y="0.5" width="9" height="9" rx="1.5" stroke="#C9CAD6" style="stroke:#C9CAD6;stroke:color(display-p3 0.7882 0.7922 0.8392);stroke-opacity:1;"/>
<rect x="32.5" y="12.5" width="9" height="9" rx="1.5" fill="#FDF2E9" style="fill:#FDF2E9;fill:color(display-p3 0.9922 0.9490 0.9137);fill-opacity:1;"/>
<rect x="32.5" y="12.5" width="9" height="9" rx="1.5" stroke="#F5C197" style="stroke:#F5C197;stroke:color(display-p3 0.9608 0.7569 0.5922);stroke-opacity:1;"/>
<rect x="44.5" y="12.5" width="9" height="9" rx="1.5" fill="white" style="fill:white;fill-opacity:1;"/>
<rect x="44.5" y="12.5" width="9" height="9" rx="1.5" stroke="#C9CAD6" style="stroke:#C9CAD6;stroke:color(display-p3 0.7882 0.7922 0.8392);stroke-opacity:1;"/>
<rect x="56.5" y="12.5" width="9" height="9" rx="1.5" fill="white" style="fill:white;fill-opacity:1;"/>
<rect x="56.5" y="12.5" width="9" height="9" rx="1.5" stroke="#C9CAD6" style="stroke:#C9CAD6;stroke:color(display-p3 0.7882 0.7922 0.8392);stroke-opacity:1;"/>
<rect x="68.5" y="12.5" width="9" height="9" rx="1.5" fill="white" style="fill:white;fill-opacity:1;"/>
<rect x="68.5" y="12.5" width="9" height="9" rx="1.5" stroke="#C9CAD6" style="stroke:#C9CAD6;stroke:color(display-p3 0.7882 0.7922 0.8392);stroke-opacity:1;"/>
<rect x="80.5" y="12.5" width="9" height="9" rx="1.5" fill="white" style="fill:white;fill-opacity:1;"/>
<rect x="80.5" y="12.5" width="9" height="9" rx="1.5" stroke="#C9CAD6" style="stroke:#C9CAD6;stroke:color(display-p3 0.7882 0.7922 0.8392);stroke-opacity:1;"/>
<rect x="92.5" y="12.5" width="9" height="9" rx="1.5" fill="white" style="fill:white;fill-opacity:1;"/>
<rect x="92.5" y="12.5" width="9" height="9" rx="1.5" stroke="#C9CAD6" style="stroke:#C9CAD6;stroke:color(display-p3 0.7882 0.7922 0.8392);stroke-opacity:1;"/>
<rect x="32.5" y="24.5" width="9" height="9" rx="1.5" fill="white" style="fill:white;fill-opacity:1;"/>
<rect x="32.5" y="24.5" width="9" height="9" rx="1.5" stroke="#C9CAD6" style="stroke:#C9CAD6;stroke:color(display-p3 0.7882 0.7922 0.8392);stroke-opacity:1;"/>
<rect x="44.5" y="24.5" width="9" height="9" rx="1.5" fill="white" style="fill:white;fill-opacity:1;"/>
<rect x="44.5" y="24.5" width="9" height="9" rx="1.5" stroke="#C9CAD6" style="stroke:#C9CAD6;stroke:color(display-p3 0.7882 0.7922 0.8392);stroke-opacity:1;"/>
<rect x="56.5" y="24.5" width="9" height="9" rx="1.5" fill="white" style="fill:white;fill-opacity:1;"/>
<rect x="56.5" y="24.5" width="9" height="9" rx="1.5" stroke="#C9CAD6" style="stroke:#C9CAD6;stroke:color(display-p3 0.7882 0.7922 0.8392);stroke-opacity:1;"/>
<rect x="68.5" y="24.5" width="9" height="9" rx="1.5" fill="#FDF2E9" style="fill:#FDF2E9;fill:color(display-p3 0.9922 0.9490 0.9137);fill-opacity:1;"/>
<rect x="68.5" y="24.5" width="9" height="9" rx="1.5" stroke="#F5C197" style="stroke:#F5C197;stroke:color(display-p3 0.9608 0.7569 0.5922);stroke-opacity:1;"/>
<rect x="80.5" y="24.5" width="9" height="9" rx="1.5" fill="white" style="fill:white;fill-opacity:1;"/>
<rect x="80.5" y="24.5" width="9" height="9" rx="1.5" stroke="#C9CAD6" style="stroke:#C9CAD6;stroke:color(display-p3 0.7882 0.7922 0.8392);stroke-opacity:1;"/>
<rect x="92.5" y="24.5" width="9" height="9" rx="1.5" fill="white" style="fill:white;fill-opacity:1;"/>
<rect x="92.5" y="24.5" width="9" height="9" rx="1.5" stroke="#C9CAD6" style="stroke:#C9CAD6;stroke:color(display-p3 0.7882 0.7922 0.8392);stroke-opacity:1;"/>
<rect x="32.5" y="36.5" width="9" height="9" rx="1.5" fill="white" style="fill:white;fill-opacity:1;"/>
<rect x="32.5" y="36.5" width="9" height="9" rx="1.5" stroke="#C9CAD6" style="stroke:#C9CAD6;stroke:color(display-p3 0.7882 0.7922 0.8392);stroke-opacity:1;"/>
<rect x="44.5" y="36.5" width="9" height="9" rx="1.5" fill="white" style="fill:white;fill-opacity:1;"/>
<rect x="44.5" y="36.5" width="9" height="9" rx="1.5" stroke="url(#paint0_linear_1988_4438)" style=""/>
<rect x="-0.5" y="0.5" width="9" height="9" rx="1.5" transform="matrix(-1 0 0 1 65 36)" fill="white" style="fill:white;fill-opacity:1;"/>
<rect x="-0.5" y="0.5" width="9" height="9" rx="1.5" transform="matrix(-1 0 0 1 65 36)" stroke="url(#paint1_linear_1988_4438)" style=""/>
<rect x="68.5" y="36.5" width="9" height="9" rx="1.5" fill="white" style="fill:white;fill-opacity:1;"/>
<rect x="68.5" y="36.5" width="9" height="9" rx="1.5" stroke="#C9CAD6" style="stroke:#C9CAD6;stroke:color(display-p3 0.7882 0.7922 0.8392);stroke-opacity:1;"/>
<rect x="80.5" y="36.5" width="9" height="9" rx="1.5" fill="white" style="fill:white;fill-opacity:1;"/>
<rect x="80.5" y="36.5" width="9" height="9" rx="1.5" stroke="#C9CAD6" style="stroke:#C9CAD6;stroke:color(display-p3 0.7882 0.7922 0.8392);stroke-opacity:1;"/>
<rect x="32.5" y="48.5" width="9" height="9" rx="1.5" fill="white" style="fill:white;fill-opacity:1;"/>
<rect x="32.5" y="48.5" width="9" height="9" rx="1.5" stroke="#C9CAD6" style="stroke:#C9CAD6;stroke:color(display-p3 0.7882 0.7922 0.8392);stroke-opacity:1;"/>
<rect x="44.5" y="48.5" width="9" height="9" rx="1.5" fill="white" style="fill:white;fill-opacity:1;"/>
<rect x="44.5" y="48.5" width="9" height="9" rx="1.5" stroke="#C9CAD6" style="stroke:#C9CAD6;stroke:color(display-p3 0.7882 0.7922 0.8392);stroke-opacity:1;"/>
<rect x="56.5" y="48.5" width="9" height="9" rx="1.5" fill="#FDF2E9" style="fill:#FDF2E9;fill:color(display-p3 0.9922 0.9490 0.9137);fill-opacity:1;"/>
<rect x="56.5" y="48.5" width="9" height="9" rx="1.5" stroke="#F5C197" style="stroke:#F5C197;stroke:color(display-p3 0.9608 0.7569 0.5922);stroke-opacity:1;"/>
<rect x="68.5" y="48.5" width="9" height="9" rx="1.5" fill="white" style="fill:white;fill-opacity:1;"/>
<rect x="68.5" y="48.5" width="9" height="9" rx="1.5" stroke="#C9CAD6" style="stroke:#C9CAD6;stroke:color(display-p3 0.7882 0.7922 0.8392);stroke-opacity:1;"/>
<rect x="80.5" y="48.5" width="9" height="9" rx="1.5" fill="white" style="fill:white;fill-opacity:1;"/>
<rect x="80.5" y="48.5" width="9" height="9" rx="1.5" stroke="#C9CAD6" style="stroke:#C9CAD6;stroke:color(display-p3 0.7882 0.7922 0.8392);stroke-opacity:1;"/>
<rect x="-0.5" y="0.5" width="9" height="9" rx="1.5" transform="matrix(-1 0 0 1 41 60)" fill="white" style="fill:white;fill-opacity:1;"/>
<rect x="-0.5" y="0.5" width="9" height="9" rx="1.5" transform="matrix(-1 0 0 1 41 60)" stroke="url(#paint2_linear_1988_4438)" style=""/>
<rect x="44.5" y="60.5" width="9" height="9" rx="1.5" fill="white" style="fill:white;fill-opacity:1;"/>
<rect x="44.5" y="60.5" width="9" height="9" rx="1.5" stroke="#C9CAD6" style="stroke:#C9CAD6;stroke:color(display-p3 0.7882 0.7922 0.8392);stroke-opacity:1;"/>
<rect x="56.5" y="60.5" width="9" height="9" rx="1.5" fill="white" style="fill:white;fill-opacity:1;"/>
<rect x="56.5" y="60.5" width="9" height="9" rx="1.5" stroke="#C9CAD6" style="stroke:#C9CAD6;stroke:color(display-p3 0.7882 0.7922 0.8392);stroke-opacity:1;"/>
<rect x="68.5" y="60.5" width="9" height="9" rx="1.5" fill="white" style="fill:white;fill-opacity:1;"/>
<rect x="68.5" y="60.5" width="9" height="9" rx="1.5" stroke="#C9CAD6" style="stroke:#C9CAD6;stroke:color(display-p3 0.7882 0.7922 0.8392);stroke-opacity:1;"/>
<rect x="32.5" y="72.5" width="9" height="9" rx="1.5" fill="white" style="fill:white;fill-opacity:1;"/>
<rect x="32.5" y="72.5" width="9" height="9" rx="1.5" stroke="#C9CAD6" style="stroke:#C9CAD6;stroke:color(display-p3 0.7882 0.7922 0.8392);stroke-opacity:1;"/>
<rect x="44.5" y="72.5" width="9" height="9" rx="1.5" fill="white" style="fill:white;fill-opacity:1;"/>
<rect x="44.5" y="72.5" width="9" height="9" rx="1.5" stroke="#C9CAD6" style="stroke:#C9CAD6;stroke:color(display-p3 0.7882 0.7922 0.8392);stroke-opacity:1;"/>
<rect x="-0.5" y="0.5" width="9" height="9" rx="1.5" transform="matrix(-1 0 0 1 65 72)" fill="#EDF5EB" style="fill:#EDF5EB;fill:color(display-p3 0.9294 0.9608 0.9216);fill-opacity:1;"/>
<rect x="-0.5" y="0.5" width="9" height="9" rx="1.5" transform="matrix(-1 0 0 1 65 72)" stroke="#ACD6A3" style="stroke:#ACD6A3;stroke:color(display-p3 0.6745 0.8392 0.6392);stroke-opacity:1;"/>
<rect x="68.5" y="72.5" width="9" height="9" rx="1.5" fill="white" style="fill:white;fill-opacity:1;"/>
<rect x="68.5" y="72.5" width="9" height="9" rx="1.5" stroke="#C9CAD6" style="stroke:#C9CAD6;stroke:color(display-p3 0.7882 0.7922 0.8392);stroke-opacity:1;"/>
<rect x="80.5" y="72.5" width="9" height="9" rx="1.5" fill="white" style="fill:white;fill-opacity:1;"/>
<rect x="80.5" y="72.5" width="9" height="9" rx="1.5" stroke="#C9CAD6" style="stroke:#C9CAD6;stroke:color(display-p3 0.7882 0.7922 0.8392);stroke-opacity:1;"/>
<path d="M119.28 57.5675C118.573 57.5675 118 58.1406 118 58.8475C118 59.5545 118.573 60.1275 119.28 60.1275V57.5675ZM119.28 60.1275C121.592 60.1275 122.777 58.715 123.603 57.7704C124.457 56.795 124.952 56.2875 126 56.2875V53.7275C123.688 53.7275 122.503 55.1401 121.677 56.0846C120.823 57.0601 120.328 57.5675 119.28 57.5675V60.1275Z" fill="#DC6B6E" style="fill:#DC6B6E;fill:color(display-p3 0.8627 0.4196 0.4314);fill-opacity:1;"/>
<path d="M126 56.2875C127.048 56.2875 127.543 56.795 128.397 57.7704C129.223 58.715 130.408 60.1275 132.72 60.1275V57.5675C131.672 57.5675 131.177 57.0601 130.323 56.0846C129.497 55.1401 128.312 53.7275 126 53.7275V56.2875Z" fill="#DC6B6E" style="fill:#DC6B6E;fill:color(display-p3 0.8627 0.4196 0.4314);fill-opacity:1;"/>
<path d="M132.72 60.1275C135.032 60.1275 136.217 58.715 137.043 57.7704C137.897 56.795 138.392 56.2875 139.44 56.2875V53.7275C137.128 53.7275 135.943 55.1401 135.117 56.0846C134.263 57.0601 133.768 57.5675 132.72 57.5675V60.1275Z" fill="#DC6B6E" style="fill:#DC6B6E;fill:color(display-p3 0.8627 0.4196 0.4314);fill-opacity:1;"/>
<path d="M139.44 56.2875C140.488 56.2875 140.983 56.795 141.837 57.7704C142.663 58.715 143.848 60.1275 146.16 60.1275V57.5675C145.112 57.5675 144.617 57.0601 143.763 56.0846C142.937 55.1401 141.752 53.7275 139.44 53.7275V56.2875Z" fill="#DC6B6E" style="fill:#DC6B6E;fill:color(display-p3 0.8627 0.4196 0.4314);fill-opacity:1;"/>
<path d="M146.16 60.1275C148.472 60.1275 149.657 58.715 150.483 57.7704C151.337 56.795 151.832 56.2875 152.88 56.2875V53.7275C150.568 53.7275 149.383 55.1401 148.557 56.0846C147.703 57.0601 147.208 57.5675 146.16 57.5675V60.1275Z" fill="#DC6B6E" style="fill:#DC6B6E;fill:color(display-p3 0.8627 0.4196 0.4314);fill-opacity:1;"/>
<path d="M152.88 56.2875C153.928 56.2875 154.423 56.795 155.277 57.7704C156.103 58.715 157.288 60.1275 159.6 60.1275V57.5675C158.552 57.5675 158.057 57.0601 157.203 56.0846C156.377 55.1401 155.192 53.7275 152.88 53.7275V56.2875Z" fill="#DC6B6E" style="fill:#DC6B6E;fill:color(display-p3 0.8627 0.4196 0.4314);fill-opacity:1;"/>
<path d="M159.6 60.1275C161.912 60.1275 163.097 58.715 163.923 57.7704C164.777 56.795 165.272 56.2875 166.32 56.2875V53.7275C164.008 53.7275 162.823 55.1401 161.997 56.0846C161.143 57.0601 160.648 57.5675 159.6 57.5675V60.1275Z" fill="#DC6B6E" style="fill:#DC6B6E;fill:color(display-p3 0.8627 0.4196 0.4314);fill-opacity:1;"/>
<path d="M166.32 56.2875C167.368 56.2875 167.863 56.795 168.717 57.7704C169.543 58.715 170.728 60.1275 173.04 60.1275V57.5675C171.992 57.5675 171.497 57.0601 170.643 56.0846C169.817 55.1401 168.632 53.7275 166.32 53.7275V56.2875Z" fill="#DC6B6E" style="fill:#DC6B6E;fill:color(display-p3 0.8627 0.4196 0.4314);fill-opacity:1;"/>
<path d="M173.04 60.1275C175.352 60.1275 176.537 58.715 177.363 57.7704C178.217 56.795 178.712 56.2875 179.76 56.2875V53.7275C177.448 53.7275 176.263 55.1401 175.437 56.0846C174.583 57.0601 174.088 57.5675 173.04 57.5675V60.1275Z" fill="#DC6B6E" style="fill:#DC6B6E;fill:color(display-p3 0.8627 0.4196 0.4314);fill-opacity:1;"/>
<path d="M179.76 56.2875C180.808 56.2875 181.303 56.795 182.157 57.7704C182.983 58.715 184.168 60.1275 186.48 60.1275V57.5675C185.432 57.5675 184.937 57.0601 184.083 56.0846C183.257 55.1401 182.072 53.7275 179.76 53.7275V56.2875Z" fill="#DC6B6E" style="fill:#DC6B6E;fill:color(display-p3 0.8627 0.4196 0.4314);fill-opacity:1;"/>
<path d="M186.48 60.1275C188.792 60.1275 189.977 58.715 190.803 57.7704C191.657 56.795 192.152 56.2875 193.2 56.2875V53.7275C190.888 53.7275 189.703 55.1401 188.877 56.0846C188.023 57.0601 187.528 57.5675 186.48 57.5675V60.1275Z" fill="#DC6B6E" style="fill:#DC6B6E;fill:color(display-p3 0.8627 0.4196 0.4314);fill-opacity:1;"/>
<path d="M193.2 56.2875C194.248 56.2875 194.743 56.795 195.597 57.7704C196.423 58.715 197.608 60.1275 199.92 60.1275V57.5675C198.872 57.5675 198.377 57.0601 197.523 56.0846C196.697 55.1401 195.512 53.7275 193.2 53.7275V56.2875Z" fill="#DC6B6E" style="fill:#DC6B6E;fill:color(display-p3 0.8627 0.4196 0.4314);fill-opacity:1;"/>
<path d="M199.92 60.1275C202.232 60.1275 203.417 58.715 204.243 57.7704C205.097 56.795 205.592 56.2875 206.64 56.2875V53.7275C204.328 53.7275 203.143 55.1401 202.317 56.0846C201.463 57.0601 200.968 57.5675 199.92 57.5675V60.1275Z" fill="#DC6B6E" style="fill:#DC6B6E;fill:color(display-p3 0.8627 0.4196 0.4314);fill-opacity:1;"/>
<path d="M206.64 56.2875C207.688 56.2875 208.183 56.795 209.037 57.7704C209.863 58.715 211.048 60.1275 213.36 60.1275V57.5675C212.312 57.5675 211.817 57.0601 210.963 56.0846C210.137 55.1401 208.952 53.7275 206.64 53.7275V56.2875Z" fill="#DC6B6E" style="fill:#DC6B6E;fill:color(display-p3 0.8627 0.4196 0.4314);fill-opacity:1;"/>
<path d="M213.36 60.1275C215.672 60.1275 216.857 58.715 217.683 57.7704C218.537 56.795 219.032 56.2875 220.08 56.2875V53.7275C217.768 53.7275 216.583 55.1401 215.757 56.0846C214.903 57.0601 214.408 57.5675 213.36 57.5675V60.1275Z" fill="#DC6B6E" style="fill:#DC6B6E;fill:color(display-p3 0.8627 0.4196 0.4314);fill-opacity:1;"/>
<path d="M220.08 56.2875C221.128 56.2875 221.623 56.795 222.477 57.7704C223.303 58.715 224.488 60.1275 226.8 60.1275V57.5675C225.752 57.5675 225.257 57.0601 224.403 56.0846C223.577 55.1401 222.392 53.7275 220.08 53.7275V56.2875Z" fill="#DC6B6E" style="fill:#DC6B6E;fill:color(display-p3 0.8627 0.4196 0.4314);fill-opacity:1;"/>
<path d="M226.8 60.1275C229.112 60.1275 230.297 58.715 231.123 57.7704C231.977 56.795 232.472 56.2875 233.52 56.2875V53.7275C231.208 53.7275 230.023 55.1401 229.197 56.0846C228.343 57.0601 227.848 57.5675 226.8 57.5675V60.1275Z" fill="#DC6B6E" style="fill:#DC6B6E;fill:color(display-p3 0.8627 0.4196 0.4314);fill-opacity:1;"/>
<path d="M233.52 56.2875C234.568 56.2875 235.063 56.795 235.917 57.7704C236.743 58.715 237.928 60.1275 240.24 60.1275V57.5675C239.192 57.5675 238.697 57.0601 237.843 56.0846C237.017 55.1401 235.832 53.7275 233.52 53.7275V56.2875Z" fill="#DC6B6E" style="fill:#DC6B6E;fill:color(display-p3 0.8627 0.4196 0.4314);fill-opacity:1;"/>
<path d="M240.24 60.1275C242.552 60.1275 243.737 58.715 244.563 57.7704C245.417 56.795 245.912 56.2875 246.96 56.2875V53.7275C244.648 53.7275 243.463 55.1401 242.637 56.0846C241.783 57.0601 241.288 57.5675 240.24 57.5675V60.1275ZM246.96 56.2875C247.667 56.2875 248.24 55.7145 248.24 55.0075C248.24 54.3006 247.667 53.7275 246.96 53.7275V56.2875Z" fill="#DC6B6E" style="fill:#DC6B6E;fill:color(display-p3 0.8627 0.4196 0.4314);fill-opacity:1;"/>
<path d="M231.534 21.8721C233.972 21.8721 236.12 22.4736 237.979 23.6768C239.854 24.8799 241.3 26.5752 242.315 28.7627C243.347 30.9346 243.862 33.4502 243.862 36.3096C243.862 39.1689 243.347 41.6924 242.315 43.8799C241.3 46.0518 239.854 47.7393 237.979 48.9424C236.12 50.1299 233.972 50.7236 231.534 50.7236C229.097 50.7236 226.94 50.1299 225.065 48.9424C223.206 47.7393 221.761 46.0518 220.729 43.8799C219.714 41.6924 219.206 39.1689 219.206 36.3096C219.206 33.4502 219.714 30.9346 220.729 28.7627C221.761 26.5752 223.206 24.8799 225.065 23.6768C226.94 22.4736 229.097 21.8721 231.534 21.8721ZM231.534 25.3408C229.815 25.3408 228.3 25.7861 226.987 26.6768C225.69 27.5674 224.683 28.8408 223.964 30.4971C223.261 32.1533 222.909 34.0908 222.909 36.3096C222.909 38.5283 223.261 40.4658 223.964 42.1221C224.683 43.7627 225.69 45.0283 226.987 45.9189C228.3 46.8096 229.815 47.2549 231.534 47.2549C233.253 47.2549 234.761 46.8096 236.058 45.9189C237.37 45.0283 238.378 43.7627 239.081 42.1221C239.8 40.4658 240.159 38.5283 240.159 36.3096C240.159 34.0908 239.8 32.1533 239.081 30.4971C238.378 28.8408 237.37 27.5674 236.058 26.6768C234.761 25.7861 233.253 25.3408 231.534 25.3408Z" fill="#2E2F38" style="fill:#2E2F38;fill:color(display-p3 0.1804 0.1843 0.2196);fill-opacity:1;"/>
<path d="M200.694 22.3877C202.772 22.3877 204.554 22.7549 206.038 23.4893C207.522 24.2236 208.647 25.2627 209.413 26.6064C210.194 27.9502 210.585 29.5049 210.585 31.2705C210.585 33.0361 210.194 34.583 209.413 35.9111C208.647 37.2236 207.522 38.2471 206.038 38.9814C204.554 39.7002 202.772 40.0596 200.694 40.0596H195.187V47.0205H200.812C201.343 47.0205 201.718 47.1455 201.937 47.3955C202.171 47.6299 202.288 48.0361 202.288 48.6143C202.288 49.1924 202.171 49.6064 201.937 49.8564C201.718 50.0908 201.343 50.208 200.812 50.208H187.874C187.343 50.208 186.96 50.0908 186.726 49.8564C186.507 49.6064 186.397 49.1924 186.397 48.6143C186.397 48.0361 186.507 47.6299 186.726 47.3955C186.96 47.1455 187.343 47.0205 187.874 47.0205H191.671V25.5752H187.874C187.343 25.5752 186.96 25.458 186.726 25.2236C186.507 24.9736 186.397 24.5596 186.397 23.9814C186.397 23.4033 186.507 22.9971 186.726 22.7627C186.96 22.5127 187.343 22.3877 187.874 22.3877H200.694ZM195.187 36.8721H200.202C202.374 36.8721 204.03 36.3799 205.171 35.3955C206.312 34.4111 206.882 33.0361 206.882 31.2705C206.882 29.4736 206.304 28.0752 205.147 27.0752C204.007 26.0752 202.358 25.5752 200.202 25.5752H195.187V36.8721Z" fill="#2E2F38" style="fill:#2E2F38;fill:color(display-p3 0.1804 0.1843 0.2196);fill-opacity:1;"/>
<path d="M177.8 22.3877C178.331 22.3877 178.706 22.5127 178.925 22.7627C179.159 22.9971 179.276 23.4033 179.276 23.9814C179.276 24.5596 179.159 24.9736 178.925 25.2236C178.706 25.458 178.331 25.5752 177.8 25.5752H176.206L168.05 38.6768V47.0205H173.347C173.878 47.0205 174.253 47.1455 174.472 47.3955C174.706 47.6299 174.823 48.0361 174.823 48.6143C174.823 49.1924 174.706 49.6064 174.472 49.8564C174.253 50.0908 173.878 50.208 173.347 50.208H159.237C158.706 50.208 158.323 50.0908 158.089 49.8564C157.87 49.6064 157.761 49.1924 157.761 48.6143C157.761 48.0361 157.87 47.6299 158.089 47.3955C158.323 47.1455 158.706 47.0205 159.237 47.0205H164.534V38.6768L156.425 25.5752H154.784C154.253 25.5752 153.87 25.458 153.636 25.2236C153.417 24.9736 153.308 24.5596 153.308 23.9814C153.308 23.4033 153.417 22.9971 153.636 22.7627C153.87 22.5127 154.253 22.3877 154.784 22.3877H162.612C163.144 22.3877 163.519 22.5127 163.737 22.7627C163.972 22.9971 164.089 23.4033 164.089 23.9814C164.089 24.5596 163.972 24.9736 163.737 25.2236C163.519 25.458 163.144 25.5752 162.612 25.5752H160.433L166.292 35.1611L172.198 25.5752H170.675C170.144 25.5752 169.761 25.458 169.526 25.2236C169.308 24.9736 169.198 24.5596 169.198 23.9814C169.198 23.4033 169.308 22.9971 169.526 22.7627C169.761 22.5127 170.144 22.3877 170.675 22.3877H177.8Z" fill="#2E2F38" style="fill:#2E2F38;fill:color(display-p3 0.1804 0.1843 0.2196);fill-opacity:1;"/>
<path d="M143.726 22.3877C144.257 22.3877 144.632 22.5127 144.851 22.7627C145.085 22.9971 145.202 23.4033 145.202 23.9814V32.8174C145.202 33.3643 145.069 33.7549 144.804 33.9893C144.538 34.2236 144.085 34.3408 143.444 34.3408C142.804 34.3408 142.351 34.2236 142.085 33.9893C141.819 33.7549 141.687 33.3643 141.687 32.8174V25.5752H135.429V47.0205H140.96C141.491 47.0205 141.866 47.1455 142.085 47.3955C142.319 47.6299 142.437 48.0361 142.437 48.6143C142.437 49.1924 142.319 49.6064 142.085 49.8564C141.866 50.0908 141.491 50.208 140.96 50.208H126.382C125.851 50.208 125.468 50.0908 125.233 49.8564C125.015 49.6064 124.905 49.1924 124.905 48.6143C124.905 48.0361 125.015 47.6299 125.233 47.3955C125.468 47.1455 125.851 47.0205 126.382 47.0205H131.913V25.5752H125.655V32.8174C125.655 33.3643 125.522 33.7549 125.257 33.9893C124.991 34.2236 124.538 34.3408 123.897 34.3408C123.257 34.3408 122.804 34.2236 122.538 33.9893C122.272 33.7549 122.14 33.3643 122.14 32.8174V23.9814C122.14 23.4033 122.249 22.9971 122.468 22.7627C122.702 22.5127 123.085 22.3877 123.616 22.3877H143.726Z" fill="#2E2F38" style="fill:#2E2F38;fill:color(display-p3 0.1804 0.1843 0.2196);fill-opacity:1;"/>
<defs>
<linearGradient id="paint0_linear_1988_4438" x1="44" y1="41" x2="54" y2="41" gradientUnits="userSpaceOnUse">
<stop stop-color="#C9CAD6" style="stop-color:#C9CAD6;stop-color:color(display-p3 0.7882 0.7922 0.8392);stop-opacity:1;"/>
<stop offset="1" stop-color="#FFB9B8" style="stop-color:#FFB9B8;stop-color:color(display-p3 1.0000 0.7255 0.7216);stop-opacity:1;"/>
</linearGradient>
<linearGradient id="paint1_linear_1988_4438" x1="0" y1="5" x2="10" y2="5" gradientUnits="userSpaceOnUse">
<stop stop-color="#C9CAD6" style="stop-color:#C9CAD6;stop-color:color(display-p3 0.7882 0.7922 0.8392);stop-opacity:1;"/>
<stop offset="1" stop-color="#FFB9B8" style="stop-color:#FFB9B8;stop-color:color(display-p3 1.0000 0.7255 0.7216);stop-opacity:1;"/>
</linearGradient>
<linearGradient id="paint2_linear_1988_4438" x1="0" y1="5" x2="10" y2="5" gradientUnits="userSpaceOnUse">
<stop stop-color="#C9CAD6" style="stop-color:#C9CAD6;stop-color:color(display-p3 0.7882 0.7922 0.8392);stop-opacity:1;"/>
<stop offset="1" stop-color="#FFB9B8" style="stop-color:#FFB9B8;stop-color:color(display-p3 1.0000 0.7255 0.7216);stop-opacity:1;"/>
</linearGradient>
</defs>
</svg>
