<svg width="328" height="66" viewBox="0 0 328 66" fill="none" xmlns="http://www.w3.org/2000/svg">
<path d="M27 45H26V42H27V43H28V44H29V45H35V44H36V43H37V42H38V36H37V35H36V34H35V33H29V34H28V35H27V37H26V31H27V25H28V19H29V13H30H35V10L14 10V13H20V37H19V35H18V34H17V33H11V34H10V35H9.00001V36H8L8.00001 42H9.00001V43H10V44H11V45H17V44H18V43H19V42H20V45H19V46H18V47H17V53H18V54H19V55H20V56H26V55H27V54H28V53H29V47H28V46H27V45Z" fill="black" style="fill:black;fill-opacity:1;"/>
<path d="M58 10H82V14H74V38H66V14H58V10ZM90 10H110V14H114V22H110V30H114V38H106V30H102V26H98V38H90V10ZM98 14V22H106V14H98ZM122 10H130V14H134V18H150V22H134V26H146V30H134V34H150V38H126V14H122V10ZM158 10H182V14H166V22H178V26H166V38H158V10ZM190 10H198V34H210V38H190V10ZM218 10H242V14H226V22H238V26H226V34H242V38H218V10Z" fill="black" style="fill:black;fill-opacity:1;"/>
<path d="M57 51.5H63V53H64.5V62H61.5V59H58.5V62H55.5V53H57V51.5ZM58.5 53V57.5H61.5V53H58.5ZM70.5 53H75V54.5H76.5V62H73.5V54.5H72V56H70.5V62H67.5V54.5H70.5V53ZM85.5 51.5H94.5V53H88.5V56H93V57.5H88.5V60.5H94.5V62H85.5V51.5ZM100.5 53H105V54.5H106.5V62H103.5V54.5H102V56H100.5V62H97.5V54.5H100.5V53ZM111 53H117V54.5H118.5V56H115.5V54.5H112.5V60.5H118.5V62H111V60.5H109.5V54.5H111V53ZM121.5 53H124.5V57.5H126V53H129V57.5H127.5V60.5H126V62H121.5V60.5H124.5V59H123V57.5H121.5V53ZM133.5 53H139.5V54.5H141V56H138V54.5H135V60.5H141V62H133.5V60.5H132V54.5H133.5V53ZM144 53H147V60.5H150V62H145.5V60.5H144V53ZM154.5 53H160.5V54.5H162V60.5H160.5V62H154.5V60.5H153V54.5H154.5V53ZM156 54.5V60.5H159V54.5H156ZM165 53H172.5V54.5H174V59H172.5V60.5H168V63.5H165V53ZM168 54.5V59H171V54.5H168ZM178.5 53H184.5V54.5H186V57.5H180V60.5H186V62H178.5V60.5H177V54.5H178.5V53ZM180 54.5V56H183V54.5H180ZM195 51.5H198V62H190.5V60.5H189V56H190.5V54.5H195V51.5ZM192 56V60.5H195V56H192ZM202.5 51.5H205.5V53H202.5V51.5ZM201 54.5H205.5V60.5H207V62H201V60.5H202.5V56H201V54.5ZM211.5 53H217.5V54.5H219V62H211.5V60.5H210V57.5H211.5V56H216V54.5H211.5V53ZM213 57.5V60.5H216V57.5H213ZM229.5 53H235.5V54.5H237V60.5H235.5V62H229.5V60.5H228V54.5H229.5V53ZM231 54.5V60.5H234V54.5H231ZM243 51.5H249V53H244.5V56H247.5V57.5H244.5V62H241.5V57.5H240V56H241.5V53H243V51.5ZM259.5 51.5H267V53H261V60.5H264V57.5H262.5V56H267V62H259.5V60.5H258V53H259.5V51.5ZM271.5 53H277.5V54.5H279V62H271.5V60.5H270V57.5H271.5V56H276V54.5H271.5V53ZM273 57.5V60.5H276V57.5H273ZM283.5 53H292.5V54.5H294V62H291V54.5H289.5V62H286.5V54.5H285V62H282V54.5H283.5V53ZM298.5 53H304.5V54.5H306V57.5H300V60.5H306V62H298.5V60.5H297V54.5H298.5V53ZM300 54.5V56H303V54.5H300ZM310.5 53H316.5V54.5H312V56H316.5V57.5H318V60.5H316.5V62H310.5V60.5H309V59H312V60.5H315V57.5H310.5V56H309V54.5H310.5V53Z" fill="black" style="fill:black;fill-opacity:1;"/>
</svg>
