<svg width="300" height="80" viewBox="0 0 300 80" fill="none" xmlns="http://www.w3.org/2000/svg">
<path fill-rule="evenodd" clip-rule="evenodd" d="M97 0H107V1H97V2V3V4V5H85V4V3V2V1H75V0H85H97ZM241 1V2H253H265V3V4V5H253H241H229V4H241H253V3H241H229V2V1V0H241H253H265V1H253H241ZM48 4H36V5H48H60H72V4V3V2H60H48V1H60H72V0H60H48H36V1V2V3H48H60V4H48ZM122 0H134H146V1V2V3V4V5H134V4V3H122V4V5H110V4V3V2V1V0H122ZM122 2V1H134V2H122ZM151 0H163H175H183V1H175H163V2V3V4H175H183V5H175H163H151V4V3V2V1V0ZM200 0H188V1V2V3V4V5H200V4V3H212V4V5H224V4V3H212V2H224V1V0H212V1V2H200V1V0Z" fill="black" fill-opacity="0.1" style="fill:black;fill-opacity:0.1;"/>
<path fill-rule="evenodd" clip-rule="evenodd" d="M97 10H107V12H97V14V16V18V20H85V18V16V14V12H75V10H85H97ZM241 12V14H253H265V16V18V20H253H241H229V18H241H253V16H241H229V14V12V10H241H253H265V12H253H241ZM48 18H36V20H48H60H72V18V16V14H60H48V12H60H72V10H60H48H36V12V14V16H48H60V18H48ZM122 10H134H146V12V14V16V18V20H134V18V16H122V18V20H110V18V16V14V12V10H122ZM122 14V12H134V14H122ZM151 10H163H175H183V12H175H163V14V16V18H175H183V20H175H163H151V18V16V14V12V10ZM200 10H188V12V14V16V18V20H200V18V16H212V18V20H224V18V16H212V14H224V12V10H212V12V14H200V12V10Z" fill="black" fill-opacity="0.2" style="fill:black;fill-opacity:0.2;"/>
<path fill-rule="evenodd" clip-rule="evenodd" d="M97 30H107V34H97V38V42V46V50H85V46V42V38V34H75V30H85H97ZM241 34V38H253H265V42V46V50H253H241H229V46H241H253V42H241H229V38V34V30H241H253H265V34H253H241ZM48 46H36V50H48H60H72V46V42V38H60H48V34H60H72V30H60H48H36V34V38V42H48H60V46H48ZM122 30H134H146V34V38V42V46V50H134V46V42H122V46V50H110V46V42V38V34V30H122ZM122 38V34H134V38H122ZM151 30H163H175H183V34H175H163V38V42V46H175H183V50H175H163H151V46V42V38V34V30ZM200 30H188V34V38V42V46V50H200V46V42H212V46V50H224V46V42H212V38H224V34V30H212V34V38H200V34V30Z" fill="black" style="fill:black;fill-opacity:1;"/>
<path fill-rule="evenodd" clip-rule="evenodd" d="M97 60H107V62H97V64V66V68V70H85V68V66V64V62H75V60H85H97ZM241 62V64H253H265V66V68V70H253H241H229V68H241H253V66H241H229V64V62V60H241H253H265V62H253H241ZM48 68H36V70H48H60H72V68V66V64H60H48V62H60H72V60H60H48H36V62V64V66H48H60V68H48ZM122 60H134H146V62V64V66V68V70H134V68V66H122V68V70H110V68V66V64V62V60H122ZM122 64V62H134V64H122ZM151 60H163H175H183V62H175H163V64V66V68H175H183V70H175H163H151V68V66V64V62V60ZM200 60H188V62V64V66V68V70H200V68V66H212V68V70H224V68V66H212V64H224V62V60H212V62V64H200V62V60Z" fill="black" fill-opacity="0.2" style="fill:black;fill-opacity:0.2;"/>
<path fill-rule="evenodd" clip-rule="evenodd" d="M97 75H107V76H97V77V78V79V80H85V79V78V77V76H75V75H85H97ZM241 76V77H253H265V78V79V80H253H241H229V79H241H253V78H241H229V77V76V75H241H253H265V76H253H241ZM48 79H36V80H48H60H72V79V78V77H60H48V76H60H72V75H60H48H36V76V77V78H48H60V79H48ZM122 75H134H146V76V77V78V79V80H134V79V78H122V79V80H110V79V78V77V76V75H122ZM122 77V76H134V77H122ZM151 75H163H175H183V76H175H163V77V78V79H175H183V80H175H163H151V79V78V77V76V75ZM200 75H188V76V77V78V79V80H200V79V78H212V79V80H224V79V78H212V77H224V76V75H212V76V77H200V76V75Z" fill="black" fill-opacity="0.1" style="fill:black;fill-opacity:0.1;"/>
</svg>
