<svg width="16" height="16" viewBox="0 0 16 16" fill="none" xmlns="http://www.w3.org/2000/svg">
<path d="M6.66683 10.6663V13.333H9.3335V10.6663H6.66683ZM5.3335 9.33301V6.66634H2.66683V9.33301H5.3335ZM6.66683 9.33301H9.3335V6.66634H6.66683V9.33301ZM10.6668 9.33301H13.3335V6.66634H10.6668V9.33301ZM10.6668 5.33301H13.3335V2.66634H10.6668V5.33301ZM5.3335 10.6663H2.66683C2.30016 10.6663 1.98627 10.5358 1.72516 10.2747C1.46405 10.0136 1.3335 9.69967 1.3335 9.33301V6.66634C1.3335 6.29967 1.46405 5.98579 1.72516 5.72467C1.98627 5.46356 2.30016 5.33301 2.66683 5.33301H9.3335V2.66634C9.3335 2.29967 9.46405 1.98579 9.72516 1.72467C9.98627 1.46356 10.3002 1.33301 10.6668 1.33301H13.3335C13.7002 1.33301 14.0141 1.46356 14.2752 1.72467C14.5363 1.98579 14.6668 2.29967 14.6668 2.66634V9.33301C14.6668 9.69967 14.5363 10.0136 14.2752 10.2747C14.0141 10.5358 13.7002 10.6663 13.3335 10.6663H10.6668V13.333C10.6668 13.6997 10.5363 14.0136 10.2752 14.2747C10.0141 14.5358 9.70016 14.6663 9.3335 14.6663H6.66683C6.30016 14.6663 5.98627 14.5358 5.72516 14.2747C5.46405 14.0136 5.3335 13.6997 5.3335 13.333V10.6663Z" fill="#2E2F38" style="fill:#2E2F38;fill:color(display-p3 0.1804 0.1843 0.2196);fill-opacity:1;"/>
</svg>
