<svg width="24" height="24" viewBox="0 0 24 24" fill="none" xmlns="http://www.w3.org/2000/svg">
<path d="M10 16V20H14V16H10ZM8 14V10H4V14H8ZM10 14H14V10H10V14ZM16 14H20V10H16V14ZM16 8H20V4H16V8ZM8 16H4C3.45 16 2.97917 15.8042 2.5875 15.4125C2.19583 15.0208 2 14.55 2 14V10C2 9.45 2.19583 8.97917 2.5875 8.5875C2.97917 8.19583 3.45 8 4 8H14V4C14 3.45 14.1958 2.97917 14.5875 2.5875C14.9792 2.19583 15.45 2 16 2H20C20.55 2 21.0208 2.19583 21.4125 2.5875C21.8042 2.97917 22 3.45 22 4V14C22 14.55 21.8042 15.0208 21.4125 15.4125C21.0208 15.8042 20.55 16 20 16H16V20C16 20.55 15.8042 21.0208 15.4125 21.4125C15.0208 21.8042 14.55 22 14 22H10C9.45 22 8.97917 21.8042 8.5875 21.4125C8.19583 21.0208 8 20.55 8 20V16Z" fill="#2E2F38" style="fill:#2E2F38;fill:color(display-p3 0.1804 0.1843 0.2196);fill-opacity:1;"/>
</svg>
