<svg width="16" height="16" viewBox="0 0 16 16" fill="none" xmlns="http://www.w3.org/2000/svg">
<path d="M5.90017 11.2171L8.00017 9.95046L10.1002 11.2338L9.55017 8.83379L11.4002 7.23379L8.96684 7.01712L8.00017 4.75046L7.03351 7.00046L4.60017 7.21712L6.45017 8.83379L5.90017 11.2171ZM8.00017 11.5171L5.23351 13.1838C5.11128 13.2616 4.98351 13.2949 4.85017 13.2838C4.71684 13.2727 4.60017 13.2282 4.50017 13.1505C4.40017 13.0727 4.3224 12.9755 4.26684 12.8588C4.21128 12.7421 4.20017 12.6116 4.23351 12.4671L4.96684 9.31712L2.51684 7.20046C2.40573 7.10046 2.33628 6.98657 2.30851 6.85879C2.28073 6.73101 2.28906 6.60601 2.33351 6.48379C2.37795 6.36157 2.44462 6.26157 2.53351 6.18379C2.6224 6.10601 2.74462 6.05601 2.90017 6.03379L6.13351 5.75046L7.38351 2.78379C7.43906 2.65046 7.52517 2.55046 7.64184 2.48379C7.75851 2.41712 7.87795 2.38379 8.00017 2.38379C8.1224 2.38379 8.24184 2.41712 8.35851 2.48379C8.47517 2.55046 8.56128 2.65046 8.61684 2.78379L9.86684 5.75046L13.1002 6.03379C13.2557 6.05601 13.378 6.10601 13.4668 6.18379C13.5557 6.26157 13.6224 6.36157 13.6668 6.48379C13.7113 6.60601 13.7196 6.73101 13.6918 6.85879C13.6641 6.98657 13.5946 7.10046 13.4835 7.20046L11.0335 9.31712L11.7668 12.4671C11.8002 12.6116 11.7891 12.7421 11.7335 12.8588C11.678 12.9755 11.6002 13.0727 11.5002 13.1505C11.4002 13.2282 11.2835 13.2727 11.1502 13.2838C11.0168 13.2949 10.8891 13.2616 10.7668 13.1838L8.00017 11.5171Z" fill="#9EA0AB" style="fill:#9EA0AB;fill:color(display-p3 0.6196 0.6275 0.6706);fill-opacity:1;"/>
</svg>
