<svg width="12" height="12" viewBox="0 0 12 12" fill="none" xmlns="http://www.w3.org/2000/svg">
<path d="M6.00001 8.63809L3.92501 9.88809C3.83334 9.94642 3.73751 9.97142 3.63751 9.96309C3.53751 9.95475 3.45001 9.92142 3.37501 9.86309C3.30001 9.80475 3.24167 9.73184 3.20001 9.64434C3.15834 9.55684 3.15001 9.45892 3.17501 9.35059L3.72501 6.98809L1.88751 5.40059C1.80417 5.32559 1.75209 5.24017 1.73126 5.14434C1.71042 5.0485 1.71667 4.95475 1.75001 4.86309C1.78334 4.77142 1.83334 4.69642 1.90001 4.63809C1.96667 4.57975 2.05834 4.54225 2.17501 4.52559L4.60001 4.31309L5.53751 2.08809C5.57917 1.98809 5.64376 1.91309 5.73126 1.86309C5.81876 1.81309 5.90834 1.78809 6.00001 1.78809C6.09167 1.78809 6.18126 1.81309 6.26876 1.86309C6.35626 1.91309 6.42084 1.98809 6.46251 2.08809L7.40001 4.31309L9.82501 4.52559C9.94168 4.54225 10.0333 4.57975 10.1 4.63809C10.1667 4.69642 10.2167 4.77142 10.25 4.86309C10.2833 4.95475 10.2896 5.0485 10.2688 5.14434C10.2479 5.24017 10.1958 5.32559 10.1125 5.40059L8.27501 6.98809L8.82501 9.35059C8.85001 9.45892 8.84167 9.55684 8.80001 9.64434C8.75834 9.73184 8.70001 9.80475 8.62501 9.86309C8.55001 9.92142 8.46251 9.95475 8.36251 9.96309C8.26251 9.97142 8.16667 9.94642 8.07501 9.88809L6.00001 8.63809Z" fill="#2E2F38" style="fill:#2E2F38;fill:color(display-p3 0.1804 0.1843 0.2196);fill-opacity:1;"/>
</svg>
