<svg width="12" height="12" viewBox="0 0 12 12" fill="none" xmlns="http://www.w3.org/2000/svg">
<path fill-rule="evenodd" clip-rule="evenodd" d="M1.5 3H9.5C9.775 3 10 3.225 10 3.5V3.505C10 3.78 9.775 4.005 9.5 4.005H1.5C1.225 4.005 1 3.78 1 3.505V3.5C1 3.225 1.225 3 1.5 3ZM9.5 5.5H1.5C1.225 5.5 1 5.725 1 6C1 6.275 1.225 6.5 1.5 6.5H9.5C9.775 6.5 10 6.275 10 6C10 5.725 9.775 5.5 9.5 5.5ZM1.5 9H6.5C6.775 9 7 8.775 7 8.5C7 8.225 6.775 8 6.5 8H1.5C1.225 8 1 8.225 1 8.5C1 8.775 1.225 9 1.5 9Z" fill="#9EA0AB" style="fill:#9EA0AB;fill:color(display-p3 0.6196 0.6275 0.6706);fill-opacity:1;"/>
</svg>
